<svg width="293" height="19" viewBox="0 0 293 19" fill="none" xmlns="http://www.w3.org/2000/svg">
<path d="M36.185 15V13.98H38.375V6.93H36.635V6.135C37.075 6.055 37.455 5.96 37.775 5.85C38.105 5.73 38.4 5.59 38.66 5.43H39.605V13.98H41.585V15H36.185ZM44.0911 11.37H47.0911V8.595C47.0911 8.335 47.1011 8.025 47.1211 7.665C47.1411 7.305 47.1561 7 47.1661 6.75H47.1061C46.9861 6.98 46.8611 7.205 46.7311 7.425C46.6011 7.645 46.4661 7.87 46.3261 8.1L44.0911 11.37ZM47.0911 15V12.36H42.7861V11.55L46.8811 5.43H48.2611V11.37H49.5661V12.36H48.2611V15H47.0911ZM50.6771 11.715V10.77H54.1271V11.715H50.6771ZM58.5153 15.18C57.6053 15.18 56.8753 14.85 56.3253 14.19C55.7753 13.52 55.5003 12.58 55.5003 11.37C55.5003 10.58 55.6453 9.9 55.9353 9.33C56.2353 8.75 56.6253 8.305 57.1053 7.995C57.5953 7.685 58.1153 7.53 58.6653 7.53C59.0853 7.53 59.4503 7.605 59.7603 7.755C60.0703 7.905 60.3853 8.11 60.7053 8.37L60.6453 7.125V4.32H61.8903V15H60.8703L60.7653 14.145H60.7203C60.4403 14.425 60.1103 14.67 59.7303 14.88C59.3503 15.08 58.9453 15.18 58.5153 15.18ZM58.7853 14.145C59.4253 14.145 60.0453 13.81 60.6453 13.14V9.33C60.3353 9.05 60.0353 8.855 59.7453 8.745C59.4653 8.625 59.1753 8.565 58.8753 8.565C58.4853 8.565 58.1303 8.685 57.8103 8.925C57.5003 9.155 57.2503 9.48 57.0603 9.9C56.8703 10.31 56.7753 10.795 56.7753 11.355C56.7753 12.225 56.9503 12.91 57.3003 13.41C57.6503 13.9 58.1453 14.145 58.7853 14.145ZM66.1006 15.18C65.4906 15.18 64.9806 15 64.5706 14.64C64.1706 14.27 63.9706 13.76 63.9706 13.11C63.9706 12.31 64.3256 11.7 65.0356 11.28C65.7556 10.85 66.8906 10.55 68.4406 10.38C68.4406 10.07 68.3956 9.775 68.3056 9.495C68.2256 9.215 68.0756 8.99 67.8556 8.82C67.6456 8.64 67.3406 8.55 66.9406 8.55C66.5206 8.55 66.1256 8.63 65.7556 8.79C65.3856 8.95 65.0556 9.13 64.7656 9.33L64.2856 8.475C64.6256 8.255 65.0406 8.045 65.5306 7.845C66.0306 7.635 66.5706 7.53 67.1506 7.53C68.0406 7.53 68.6856 7.805 69.0856 8.355C69.4856 8.895 69.6856 9.62 69.6856 10.53V15H68.6656L68.5606 14.13H68.5156C68.1756 14.41 67.8006 14.655 67.3906 14.865C66.9906 15.075 66.5606 15.18 66.1006 15.18ZM66.4606 14.19C66.8106 14.19 67.1406 14.105 67.4506 13.935C67.7606 13.765 68.0906 13.525 68.4406 13.215V11.19C67.2306 11.34 66.3806 11.565 65.8906 11.865C65.4106 12.165 65.1706 12.55 65.1706 13.02C65.1706 13.43 65.2956 13.73 65.5456 13.92C65.7956 14.1 66.1006 14.19 66.4606 14.19ZM72.1742 18.135C72.0142 18.135 71.8592 18.12 71.7092 18.09C71.5692 18.06 71.4392 18.025 71.3192 17.985L71.5592 17.01C71.6392 17.03 71.7292 17.05 71.8292 17.07C71.9292 17.1 72.0242 17.115 72.1142 17.115C72.5242 17.115 72.8642 16.965 73.1342 16.665C73.4042 16.375 73.6142 16.005 73.7642 15.555L73.9292 15.015L71.0042 7.71H72.2792L73.7642 11.745C73.8742 12.055 73.9892 12.39 74.1092 12.75C74.2392 13.11 74.3592 13.46 74.4692 13.8H74.5292C74.6392 13.47 74.7442 13.125 74.8442 12.765C74.9442 12.405 75.0442 12.065 75.1442 11.745L76.4492 7.71H77.6492L74.9042 15.6C74.7342 16.08 74.5292 16.51 74.2892 16.89C74.0592 17.27 73.7692 17.57 73.4192 17.79C73.0792 18.02 72.6642 18.135 72.1742 18.135ZM82.4191 15V8.715H81.4291V7.785L82.4191 7.71V6.555C82.4191 5.815 82.5891 5.23 82.9291 4.8C83.2791 4.36 83.8191 4.14 84.5491 4.14C84.7791 4.14 84.9991 4.165 85.2091 4.215C85.4191 4.255 85.6041 4.31 85.7641 4.38L85.4941 5.325C85.2241 5.205 84.9491 5.145 84.6691 5.145C83.9891 5.145 83.6491 5.615 83.6491 6.555V7.71H85.1941V8.715H83.6491V15H82.4191ZM86.664 15V7.71H87.684L87.789 9.03H87.834C88.084 8.57 88.389 8.205 88.749 7.935C89.109 7.665 89.494 7.53 89.904 7.53C90.194 7.53 90.454 7.58 90.684 7.68L90.444 8.76C90.324 8.72 90.214 8.69 90.114 8.67C90.014 8.65 89.889 8.64 89.739 8.64C89.429 8.64 89.104 8.765 88.764 9.015C88.434 9.265 88.144 9.7 87.894 10.32V15H86.664ZM94.7477 15.18C94.0977 15.18 93.5077 15.03 92.9777 14.73C92.4477 14.42 92.0277 13.98 91.7177 13.41C91.4077 12.84 91.2527 12.16 91.2527 11.37C91.2527 10.57 91.4077 9.885 91.7177 9.315C92.0377 8.745 92.4477 8.305 92.9477 7.995C93.4477 7.685 93.9727 7.53 94.5227 7.53C95.4527 7.53 96.1677 7.84 96.6677 8.46C97.1777 9.08 97.4327 9.91 97.4327 10.95C97.4327 11.08 97.4277 11.21 97.4177 11.34C97.4177 11.46 97.4077 11.565 97.3877 11.655H92.4677C92.5177 12.425 92.7577 13.04 93.1877 13.5C93.6277 13.96 94.1977 14.19 94.8977 14.19C95.2477 14.19 95.5677 14.14 95.8577 14.04C96.1577 13.93 96.4427 13.79 96.7127 13.62L97.1477 14.43C96.8377 14.63 96.4827 14.805 96.0827 14.955C95.6927 15.105 95.2477 15.18 94.7477 15.18ZM92.4527 10.77H96.3527C96.3527 10.03 96.1927 9.47 95.8727 9.09C95.5627 8.7 95.1227 8.505 94.5527 8.505C94.0427 8.505 93.5827 8.705 93.1727 9.105C92.7727 9.495 92.5327 10.05 92.4527 10.77ZM102.264 15.18C101.614 15.18 101.024 15.03 100.494 14.73C99.9641 14.42 99.5441 13.98 99.2341 13.41C98.9241 12.84 98.7691 12.16 98.7691 11.37C98.7691 10.57 98.9241 9.885 99.2341 9.315C99.5541 8.745 99.9641 8.305 100.464 7.995C100.964 7.685 101.489 7.53 102.039 7.53C102.969 7.53 103.684 7.84 104.184 8.46C104.694 9.08 104.949 9.91 104.949 10.95C104.949 11.08 104.944 11.21 104.934 11.34C104.934 11.46 104.924 11.565 104.904 11.655H99.9841C100.034 12.425 100.274 13.04 100.704 13.5C101.144 13.96 101.714 14.19 102.414 14.19C102.764 14.19 103.084 14.14 103.374 14.04C103.674 13.93 103.959 13.79 104.229 13.62L104.664 14.43C104.354 14.63 103.999 14.805 103.599 14.955C103.209 15.105 102.764 15.18 102.264 15.18ZM99.9691 10.77H103.869C103.869 10.03 103.709 9.47 103.389 9.09C103.079 8.7 102.639 8.505 102.069 8.505C101.559 8.505 101.099 8.705 100.689 9.105C100.289 9.495 100.049 10.05 99.9691 10.77ZM112.198 15.18C111.418 15.18 110.873 14.955 110.563 14.505C110.263 14.055 110.113 13.47 110.113 12.75V8.715H109.033V7.785L110.173 7.71L110.323 5.67H111.358V7.71H113.323V8.715H111.358V12.765C111.358 13.215 111.438 13.565 111.598 13.815C111.768 14.055 112.063 14.175 112.483 14.175C112.613 14.175 112.753 14.155 112.903 14.115C113.053 14.065 113.188 14.02 113.308 13.98L113.548 14.91C113.348 14.98 113.128 15.04 112.888 15.09C112.658 15.15 112.428 15.18 112.198 15.18ZM115.047 15V7.71H116.067L116.172 9.03H116.217C116.467 8.57 116.772 8.205 117.132 7.935C117.492 7.665 117.877 7.53 118.287 7.53C118.577 7.53 118.837 7.58 119.067 7.68L118.827 8.76C118.707 8.72 118.597 8.69 118.497 8.67C118.397 8.65 118.272 8.64 118.122 8.64C117.812 8.64 117.487 8.765 117.147 9.015C116.817 9.265 116.527 9.7 116.277 10.32V15H115.047ZM120.322 15V7.71H121.552V15H120.322ZM120.952 6.21C120.712 6.21 120.512 6.14 120.352 6C120.202 5.85 120.127 5.65 120.127 5.4C120.127 5.16 120.202 4.965 120.352 4.815C120.512 4.665 120.712 4.59 120.952 4.59C121.192 4.59 121.387 4.665 121.537 4.815C121.697 4.965 121.777 5.16 121.777 5.4C121.777 5.65 121.697 5.85 121.537 6C121.387 6.14 121.192 6.21 120.952 6.21ZM125.768 15.18C125.158 15.18 124.648 15 124.238 14.64C123.838 14.27 123.638 13.76 123.638 13.11C123.638 12.31 123.993 11.7 124.703 11.28C125.423 10.85 126.558 10.55 128.108 10.38C128.108 10.07 128.063 9.775 127.973 9.495C127.893 9.215 127.743 8.99 127.523 8.82C127.313 8.64 127.008 8.55 126.608 8.55C126.188 8.55 125.793 8.63 125.423 8.79C125.053 8.95 124.723 9.13 124.433 9.33L123.953 8.475C124.293 8.255 124.708 8.045 125.198 7.845C125.698 7.635 126.238 7.53 126.818 7.53C127.708 7.53 128.353 7.805 128.753 8.355C129.153 8.895 129.353 9.62 129.353 10.53V15H128.333L128.228 14.13H128.183C127.843 14.41 127.468 14.655 127.058 14.865C126.658 15.075 126.228 15.18 125.768 15.18ZM126.128 14.19C126.478 14.19 126.808 14.105 127.118 13.935C127.428 13.765 127.758 13.525 128.108 13.215V11.19C126.898 11.34 126.048 11.565 125.558 11.865C125.078 12.165 124.838 12.55 124.838 13.02C124.838 13.43 124.963 13.73 125.213 13.92C125.463 14.1 125.768 14.19 126.128 14.19ZM133.027 15.18C132.567 15.18 132.232 15.04 132.022 14.76C131.822 14.47 131.722 14.06 131.722 13.53V4.32H132.952V13.62C132.952 13.81 132.987 13.95 133.057 14.04C133.127 14.12 133.207 14.16 133.297 14.16C133.337 14.16 133.372 14.16 133.402 14.16C133.442 14.15 133.497 14.14 133.567 14.13L133.732 15.06C133.652 15.1 133.557 15.13 133.447 15.15C133.337 15.17 133.197 15.18 133.027 15.18ZM148.052 15V5.16H149.342L152.897 11.34L153.962 13.38H154.022C153.992 12.88 153.957 12.365 153.917 11.835C153.887 11.295 153.872 10.765 153.872 10.245V5.16H155.057V15H153.767L150.197 8.805L149.132 6.78H149.072C149.112 7.27 149.147 7.775 149.177 8.295C149.217 8.815 149.237 9.335 149.237 9.855V15H148.052ZM160.554 15.18C159.964 15.18 159.409 15.03 158.889 14.73C158.379 14.43 157.964 13.995 157.644 13.425C157.334 12.855 157.179 12.17 157.179 11.37C157.179 10.55 157.334 9.855 157.644 9.285C157.964 8.715 158.379 8.28 158.889 7.98C159.409 7.68 159.964 7.53 160.554 7.53C161.154 7.53 161.709 7.68 162.219 7.98C162.729 8.28 163.139 8.715 163.449 9.285C163.769 9.855 163.929 10.55 163.929 11.37C163.929 12.17 163.769 12.855 163.449 13.425C163.139 13.995 162.729 14.43 162.219 14.73C161.709 15.03 161.154 15.18 160.554 15.18ZM160.554 14.16C161.184 14.16 161.689 13.905 162.069 13.395C162.459 12.875 162.654 12.2 162.654 11.37C162.654 10.53 162.459 9.85 162.069 9.33C161.689 8.81 161.184 8.55 160.554 8.55C159.934 8.55 159.429 8.81 159.039 9.33C158.649 9.85 158.454 10.53 158.454 11.37C158.454 12.2 158.649 12.875 159.039 13.395C159.429 13.905 159.934 14.16 160.554 14.16ZM171.882 15.18C171.242 15.18 170.662 15.03 170.142 14.73C169.622 14.43 169.212 13.995 168.912 13.425C168.612 12.855 168.462 12.17 168.462 11.37C168.462 10.55 168.622 9.855 168.942 9.285C169.272 8.715 169.702 8.28 170.232 7.98C170.772 7.68 171.352 7.53 171.972 7.53C172.452 7.53 172.862 7.615 173.202 7.785C173.552 7.955 173.852 8.155 174.102 8.385L173.472 9.195C173.262 9.005 173.037 8.85 172.797 8.73C172.567 8.61 172.307 8.55 172.017 8.55C171.577 8.55 171.182 8.67 170.832 8.91C170.492 9.14 170.222 9.47 170.022 9.9C169.832 10.32 169.737 10.81 169.737 11.37C169.737 12.2 169.942 12.875 170.352 13.395C170.772 13.905 171.317 14.16 171.987 14.16C172.327 14.16 172.642 14.09 172.932 13.95C173.222 13.8 173.477 13.625 173.697 13.425L174.237 14.25C173.907 14.54 173.542 14.77 173.142 14.94C172.742 15.1 172.322 15.18 171.882 15.18ZM175.918 15V7.71H176.938L177.043 9.03H177.088C177.338 8.57 177.643 8.205 178.003 7.935C178.363 7.665 178.748 7.53 179.158 7.53C179.448 7.53 179.708 7.58 179.938 7.68L179.698 8.76C179.578 8.72 179.468 8.69 179.368 8.67C179.268 8.65 179.143 8.64 178.993 8.64C178.683 8.64 178.358 8.765 178.018 9.015C177.688 9.265 177.398 9.7 177.148 10.32V15H175.918ZM184.001 15.18C183.351 15.18 182.761 15.03 182.231 14.73C181.701 14.42 181.281 13.98 180.971 13.41C180.661 12.84 180.506 12.16 180.506 11.37C180.506 10.57 180.661 9.885 180.971 9.315C181.291 8.745 181.701 8.305 182.201 7.995C182.701 7.685 183.226 7.53 183.776 7.53C184.706 7.53 185.421 7.84 185.921 8.46C186.431 9.08 186.686 9.91 186.686 10.95C186.686 11.08 186.681 11.21 186.671 11.34C186.671 11.46 186.661 11.565 186.641 11.655H181.721C181.771 12.425 182.011 13.04 182.441 13.5C182.881 13.96 183.451 14.19 184.151 14.19C184.501 14.19 184.821 14.14 185.111 14.04C185.411 13.93 185.696 13.79 185.966 13.62L186.401 14.43C186.091 14.63 185.736 14.805 185.336 14.955C184.946 15.105 184.501 15.18 184.001 15.18ZM181.706 10.77H185.606C185.606 10.03 185.446 9.47 185.126 9.09C184.816 8.7 184.376 8.505 183.806 8.505C183.296 8.505 182.836 8.705 182.426 9.105C182.026 9.495 181.786 10.05 181.706 10.77ZM191.053 15.18C190.143 15.18 189.413 14.85 188.863 14.19C188.313 13.52 188.038 12.58 188.038 11.37C188.038 10.58 188.183 9.9 188.473 9.33C188.773 8.75 189.163 8.305 189.643 7.995C190.133 7.685 190.653 7.53 191.203 7.53C191.623 7.53 191.988 7.605 192.298 7.755C192.608 7.905 192.923 8.11 193.243 8.37L193.183 7.125V4.32H194.428V15H193.408L193.303 14.145H193.258C192.978 14.425 192.648 14.67 192.268 14.88C191.888 15.08 191.483 15.18 191.053 15.18ZM191.323 14.145C191.963 14.145 192.583 13.81 193.183 13.14V9.33C192.873 9.05 192.573 8.855 192.283 8.745C192.003 8.625 191.713 8.565 191.413 8.565C191.023 8.565 190.668 8.685 190.348 8.925C190.038 9.155 189.788 9.48 189.598 9.9C189.408 10.31 189.313 10.795 189.313 11.355C189.313 12.225 189.488 12.91 189.838 13.41C190.188 13.9 190.683 14.145 191.323 14.145ZM196.958 15V7.71H198.188V15H196.958ZM197.588 6.21C197.348 6.21 197.148 6.14 196.988 6C196.838 5.85 196.763 5.65 196.763 5.4C196.763 5.16 196.838 4.965 196.988 4.815C197.148 4.665 197.348 4.59 197.588 4.59C197.828 4.59 198.023 4.665 198.173 4.815C198.333 4.965 198.413 5.16 198.413 5.4C198.413 5.65 198.333 5.85 198.173 6C198.023 6.14 197.828 6.21 197.588 6.21ZM203.019 15.18C202.239 15.18 201.694 14.955 201.384 14.505C201.084 14.055 200.934 13.47 200.934 12.75V8.715H199.854V7.785L200.994 7.71L201.144 5.67H202.179V7.71H204.144V8.715H202.179V12.765C202.179 13.215 202.259 13.565 202.419 13.815C202.589 14.055 202.884 14.175 203.304 14.175C203.434 14.175 203.574 14.155 203.724 14.115C203.874 14.065 204.009 14.02 204.129 13.98L204.369 14.91C204.169 14.98 203.949 15.04 203.709 15.09C203.479 15.15 203.249 15.18 203.019 15.18ZM211.826 15.18C211.186 15.18 210.606 15.03 210.086 14.73C209.566 14.43 209.156 13.995 208.856 13.425C208.556 12.855 208.406 12.17 208.406 11.37C208.406 10.55 208.566 9.855 208.886 9.285C209.216 8.715 209.646 8.28 210.176 7.98C210.716 7.68 211.296 7.53 211.916 7.53C212.396 7.53 212.806 7.615 213.146 7.785C213.496 7.955 213.796 8.155 214.046 8.385L213.416 9.195C213.206 9.005 212.981 8.85 212.741 8.73C212.511 8.61 212.251 8.55 211.961 8.55C211.521 8.55 211.126 8.67 210.776 8.91C210.436 9.14 210.166 9.47 209.966 9.9C209.776 10.32 209.681 10.81 209.681 11.37C209.681 12.2 209.886 12.875 210.296 13.395C210.716 13.905 211.261 14.16 211.931 14.16C212.271 14.16 212.586 14.09 212.876 13.95C213.166 13.8 213.421 13.625 213.641 13.425L214.181 14.25C213.851 14.54 213.486 14.77 213.086 14.94C212.686 15.1 212.266 15.18 211.826 15.18ZM217.395 15.18C216.785 15.18 216.275 15 215.865 14.64C215.465 14.27 215.265 13.76 215.265 13.11C215.265 12.31 215.62 11.7 216.33 11.28C217.05 10.85 218.185 10.55 219.735 10.38C219.735 10.07 219.69 9.775 219.6 9.495C219.52 9.215 219.37 8.99 219.15 8.82C218.94 8.64 218.635 8.55 218.235 8.55C217.815 8.55 217.42 8.63 217.05 8.79C216.68 8.95 216.35 9.13 216.06 9.33L215.58 8.475C215.92 8.255 216.335 8.045 216.825 7.845C217.325 7.635 217.865 7.53 218.445 7.53C219.335 7.53 219.98 7.805 220.38 8.355C220.78 8.895 220.98 9.62 220.98 10.53V15H219.96L219.855 14.13H219.81C219.47 14.41 219.095 14.655 218.685 14.865C218.285 15.075 217.855 15.18 217.395 15.18ZM217.755 14.19C218.105 14.19 218.435 14.105 218.745 13.935C219.055 13.765 219.385 13.525 219.735 13.215V11.19C218.525 11.34 217.675 11.565 217.185 11.865C216.705 12.165 216.465 12.55 216.465 13.02C216.465 13.43 216.59 13.73 216.84 13.92C217.09 14.1 217.395 14.19 217.755 14.19ZM223.349 15V7.71H224.369L224.474 9.03H224.519C224.769 8.57 225.074 8.205 225.434 7.935C225.794 7.665 226.179 7.53 226.589 7.53C226.879 7.53 227.139 7.58 227.369 7.68L227.129 8.76C227.009 8.72 226.899 8.69 226.799 8.67C226.699 8.65 226.574 8.64 226.424 8.64C226.114 8.64 225.789 8.765 225.449 9.015C225.119 9.265 224.829 9.7 224.579 10.32V15H223.349ZM230.967 15.18C230.057 15.18 229.327 14.85 228.777 14.19C228.227 13.52 227.952 12.58 227.952 11.37C227.952 10.58 228.097 9.9 228.387 9.33C228.687 8.75 229.077 8.305 229.557 7.995C230.047 7.685 230.567 7.53 231.117 7.53C231.537 7.53 231.902 7.605 232.212 7.755C232.522 7.905 232.837 8.11 233.157 8.37L233.097 7.125V4.32H234.342V15H233.322L233.217 14.145H233.172C232.892 14.425 232.562 14.67 232.182 14.88C231.802 15.08 231.397 15.18 230.967 15.18ZM231.237 14.145C231.877 14.145 232.497 13.81 233.097 13.14V9.33C232.787 9.05 232.487 8.855 232.197 8.745C231.917 8.625 231.627 8.565 231.327 8.565C230.937 8.565 230.582 8.685 230.262 8.925C229.952 9.155 229.702 9.48 229.512 9.9C229.322 10.31 229.227 10.795 229.227 11.355C229.227 12.225 229.402 12.91 229.752 13.41C230.102 13.9 230.597 14.145 231.237 14.145ZM239.951 15V7.71H240.971L241.076 9.03H241.121C241.371 8.57 241.676 8.205 242.036 7.935C242.396 7.665 242.781 7.53 243.191 7.53C243.481 7.53 243.741 7.58 243.971 7.68L243.731 8.76C243.611 8.72 243.501 8.69 243.401 8.67C243.301 8.65 243.176 8.64 243.026 8.64C242.716 8.64 242.391 8.765 242.051 9.015C241.721 9.265 241.431 9.7 241.181 10.32V15H239.951ZM248.034 15.18C247.384 15.18 246.794 15.03 246.264 14.73C245.734 14.42 245.314 13.98 245.004 13.41C244.694 12.84 244.539 12.16 244.539 11.37C244.539 10.57 244.694 9.885 245.004 9.315C245.324 8.745 245.734 8.305 246.234 7.995C246.734 7.685 247.259 7.53 247.809 7.53C248.739 7.53 249.454 7.84 249.954 8.46C250.464 9.08 250.719 9.91 250.719 10.95C250.719 11.08 250.714 11.21 250.704 11.34C250.704 11.46 250.694 11.565 250.674 11.655H245.754C245.804 12.425 246.044 13.04 246.474 13.5C246.914 13.96 247.484 14.19 248.184 14.19C248.534 14.19 248.854 14.14 249.144 14.04C249.444 13.93 249.729 13.79 249.999 13.62L250.434 14.43C250.124 14.63 249.769 14.805 249.369 14.955C248.979 15.105 248.534 15.18 248.034 15.18ZM245.739 10.77H249.639C249.639 10.03 249.479 9.47 249.159 9.09C248.849 8.7 248.409 8.505 247.839 8.505C247.329 8.505 246.869 8.705 246.459 9.105C246.059 9.495 245.819 10.05 245.739 10.77ZM257.216 18.075V15.48L257.276 14.16C256.986 14.44 256.651 14.68 256.271 14.88C255.901 15.08 255.506 15.18 255.086 15.18C254.176 15.18 253.446 14.85 252.896 14.19C252.346 13.52 252.071 12.58 252.071 11.37C252.071 10.58 252.216 9.9 252.506 9.33C252.806 8.75 253.196 8.305 253.676 7.995C254.166 7.685 254.686 7.53 255.236 7.53C255.656 7.53 256.026 7.605 256.346 7.755C256.666 7.895 256.991 8.11 257.321 8.4H257.351L257.471 7.71H258.461V18.075H257.216ZM255.356 14.145C255.996 14.145 256.616 13.81 257.216 13.14V9.33C256.906 9.05 256.606 8.855 256.316 8.745C256.036 8.625 255.746 8.565 255.446 8.565C255.056 8.565 254.701 8.685 254.381 8.925C254.071 9.155 253.821 9.48 253.631 9.9C253.441 10.31 253.346 10.795 253.346 11.355C253.346 12.225 253.521 12.91 253.871 13.41C254.221 13.9 254.716 14.145 255.356 14.145ZM263.121 15.18C262.351 15.18 261.786 14.94 261.426 14.46C261.066 13.97 260.886 13.26 260.886 12.33V7.71H262.131V12.165C262.131 12.845 262.236 13.34 262.446 13.65C262.666 13.96 263.016 14.115 263.496 14.115C263.876 14.115 264.211 14.02 264.501 13.83C264.801 13.63 265.121 13.315 265.461 12.885V7.71H266.691V15H265.671L265.566 13.86H265.521C265.181 14.26 264.821 14.58 264.441 14.82C264.061 15.06 263.621 15.18 263.121 15.18ZM269.225 15V7.71H270.455V15H269.225ZM269.855 6.21C269.615 6.21 269.415 6.14 269.255 6C269.105 5.85 269.03 5.65 269.03 5.4C269.03 5.16 269.105 4.965 269.255 4.815C269.415 4.665 269.615 4.59 269.855 4.59C270.095 4.59 270.29 4.665 270.44 4.815C270.6 4.965 270.68 5.16 270.68 5.4C270.68 5.65 270.6 5.85 270.44 6C270.29 6.14 270.095 6.21 269.855 6.21ZM272.992 15V7.71H274.012L274.117 9.03H274.162C274.412 8.57 274.717 8.205 275.077 7.935C275.437 7.665 275.822 7.53 276.232 7.53C276.522 7.53 276.782 7.58 277.012 7.68L276.772 8.76C276.652 8.72 276.542 8.69 276.442 8.67C276.342 8.65 276.217 8.64 276.067 8.64C275.757 8.64 275.432 8.765 275.092 9.015C274.762 9.265 274.472 9.7 274.222 10.32V15H272.992ZM281.075 15.18C280.425 15.18 279.835 15.03 279.305 14.73C278.775 14.42 278.355 13.98 278.045 13.41C277.735 12.84 277.58 12.16 277.58 11.37C277.58 10.57 277.735 9.885 278.045 9.315C278.365 8.745 278.775 8.305 279.275 7.995C279.775 7.685 280.3 7.53 280.85 7.53C281.78 7.53 282.495 7.84 282.995 8.46C283.505 9.08 283.76 9.91 283.76 10.95C283.76 11.08 283.755 11.21 283.745 11.34C283.745 11.46 283.735 11.565 283.715 11.655H278.795C278.845 12.425 279.085 13.04 279.515 13.5C279.955 13.96 280.525 14.19 281.225 14.19C281.575 14.19 281.895 14.14 282.185 14.04C282.485 13.93 282.77 13.79 283.04 13.62L283.475 14.43C283.165 14.63 282.81 14.805 282.41 14.955C282.02 15.105 281.575 15.18 281.075 15.18ZM278.78 10.77H282.68C282.68 10.03 282.52 9.47 282.2 9.09C281.89 8.7 281.45 8.505 280.88 8.505C280.37 8.505 279.91 8.705 279.5 9.105C279.1 9.495 278.86 10.05 278.78 10.77ZM288.127 15.18C287.217 15.18 286.487 14.85 285.937 14.19C285.387 13.52 285.112 12.58 285.112 11.37C285.112 10.58 285.257 9.9 285.547 9.33C285.847 8.75 286.237 8.305 286.717 7.995C287.207 7.685 287.727 7.53 288.277 7.53C288.697 7.53 289.062 7.605 289.372 7.755C289.682 7.905 289.997 8.11 290.317 8.37L290.257 7.125V4.32H291.502V15H290.482L290.377 14.145H290.332C290.052 14.425 289.722 14.67 289.342 14.88C288.962 15.08 288.557 15.18 288.127 15.18ZM288.397 14.145C289.037 14.145 289.657 13.81 290.257 13.14V9.33C289.947 9.05 289.647 8.855 289.357 8.745C289.077 8.625 288.787 8.565 288.487 8.565C288.097 8.565 287.742 8.685 287.422 8.925C287.112 9.155 286.862 9.48 286.672 9.9C286.482 10.31 286.387 10.795 286.387 11.355C286.387 12.225 286.562 12.91 286.912 13.41C287.262 13.9 287.757 14.145 288.397 14.145Z" fill="white"/>
<path d="M5.8866 8.79215L9.11552 12.3338L16.3232 4.40039" stroke="#8276FF" stroke-width="1.13333" stroke-linecap="round" stroke-linejoin="round"/>
<path d="M17.7316 9.5C17.7316 14.1944 13.9654 18 9.31942 18C4.67349 18 0.907227 14.1944 0.907227 9.5C0.907227 4.80558 4.67349 1 9.31942 1C10.3155 1 11.2711 1.17493 12.1579 1.49604" stroke="#8276FF" stroke-width="1.13333" stroke-linecap="round" stroke-linejoin="round"/>
<rect x="140" y="4" width="2" height="12" rx="1" fill="white" fill-opacity="0.3"/>
</svg>
