<svg width="298" height="209" viewBox="0 0 298 209" fill="none" xmlns="http://www.w3.org/2000/svg">
<g filter="url(#filter0_d_1_1950)">
<g filter="url(#filter1_d_1_1950)">
<rect x="44.0625" y="13.5688" width="239.648" height="125.631" rx="13.1456" transform="rotate(11.5871 44.0625 13.5688)" fill="white"/>
</g>
<path d="M58.9088 44.4959L54.8555 43.6649L53.7536 45.5L52.096 45.1601L57.552 36.1768L59.3906 36.5538L60.8712 46.9593L59.1997 46.6166L58.9088 44.4959ZM58.7287 43.1092L58.0772 38.2875L55.5669 42.4609L58.7287 43.1092ZM62.6381 43.3157C62.7999 42.5264 63.0996 41.8669 63.5372 41.3374C63.986 40.8004 64.5269 40.4275 65.16 40.2187C65.793 40.0098 66.4764 39.9806 67.2099 40.131C68.1385 40.3214 68.8589 40.7013 69.3711 41.2708C69.8945 41.8329 70.1792 42.5444 70.2252 43.4054L68.512 43.0541C68.4508 42.6448 68.2888 42.302 68.0262 42.0255C67.7635 41.7491 67.4001 41.5633 66.9358 41.4681C66.2858 41.3349 65.7182 41.4604 65.233 41.8447C64.7589 42.2217 64.4372 42.8234 64.2678 43.6498C64.0983 44.4762 64.1564 45.1606 64.4419 45.703C64.7367 46.2473 65.2091 46.586 65.8591 46.7193C66.7784 46.9078 67.4694 46.6286 67.9322 45.8816L69.6455 46.2329C69.2627 46.9672 68.7173 47.5037 68.0092 47.8423C67.303 48.1717 66.4949 48.243 65.5849 48.0565C64.8514 47.906 64.2347 47.6103 63.7349 47.1691C63.237 46.7187 62.8864 46.163 62.6833 45.5021C62.4913 44.8338 62.4763 44.105 62.6381 43.3157ZM73.8915 42.9814L73.0205 47.2297C72.9614 47.5175 72.9836 47.7398 73.0869 47.8965C73.2015 48.0457 73.4213 48.1537 73.7463 48.2203L74.7213 48.4202L74.45 49.7435L73.1964 49.4864C72.4814 49.3398 71.9678 49.0604 71.6556 48.648C71.3434 48.2357 71.2644 47.6534 71.4187 46.9013L72.2897 42.653L71.3843 42.4674L71.6499 41.172L72.5553 41.3576L72.9466 39.4494L74.5484 39.7778L74.1571 41.686L76.0236 42.0687L75.758 43.3641L73.8915 42.9814ZM78.5034 41.5176C78.2156 41.4586 77.9941 41.3116 77.8391 41.0766C77.6841 40.8416 77.6361 40.5802 77.6951 40.2924C77.7541 40.0045 77.9011 39.7831 78.1361 39.628C78.3711 39.473 78.6325 39.425 78.9204 39.484C79.199 39.5412 79.4158 39.6872 79.5708 39.9222C79.7258 40.1572 79.7738 40.4186 79.7148 40.7065C79.6557 40.9943 79.5087 41.2158 79.2738 41.3708C79.0388 41.5258 78.782 41.5748 78.5034 41.5176ZM79.0749 42.6944L77.5013 50.3691L75.9135 50.0436L77.4871 42.3688L79.0749 42.6944ZM82.8442 49.9841L86.2994 44.1757L87.9848 44.5212L83.4861 51.5962L81.5918 51.2078L80.2543 42.9362L81.9536 43.2846L82.8442 49.9841ZM90.2014 43.9162C89.9135 43.8571 89.6921 43.7101 89.5371 43.4751C89.3821 43.2402 89.3341 42.9787 89.3931 42.6909C89.4521 42.403 89.5991 42.1816 89.8341 42.0266C90.0691 41.8715 90.3305 41.8235 90.6184 41.8826C90.8969 41.9397 91.1137 42.0857 91.2688 42.3207C91.4238 42.5557 91.4718 42.8171 91.4128 43.105C91.3537 43.3928 91.2067 43.6143 90.9717 43.7693C90.7368 43.9243 90.48 43.9733 90.2014 43.9162ZM90.7729 45.0929L89.1993 52.7676L87.6115 52.4421L89.1851 44.7673L90.7729 45.0929ZM94.4446 47.1955L93.5736 51.4438C93.5145 51.7317 93.5367 51.9539 93.64 52.1106C93.7546 52.2599 93.9743 52.3678 94.2994 52.4345L95.2744 52.6344L95.0031 53.9576L93.7495 53.7006C93.0345 53.554 92.5209 53.2745 92.2087 52.8622C91.8965 52.4498 91.8175 51.8675 91.9717 51.1154L92.8428 46.8671L91.9374 46.6815L92.203 45.3861L93.1084 45.5717L93.4997 43.6635L95.1015 43.9919L94.7102 45.9002L96.5767 46.2829L96.3111 47.5782L94.4446 47.1955ZM104.949 47.9995L97.9276 58.3165L96.284 57.9795L98.6094 54.5664L97.1348 46.3973L98.9037 46.76L99.8632 53.0527L103.305 47.6625L104.949 47.9995Z" fill="#495057"/>
<rect x="180.484" y="91.1074" width="77.7675" height="16.8915" rx="2.11144" transform="rotate(11.5871 180.484 91.1074)" fill="#BCBBFF"/>
<path d="M54.2452 72.8062L54.0247 73.8818L51.1744 73.2973L50.5817 76.188L49.4389 75.9536L50.0316 73.063L47.1813 72.4786L47.4019 71.4031L50.2521 71.9875L50.8448 69.0969L51.9876 69.3312L51.3949 72.2218L54.2452 72.8062ZM60.9968 76.5161L62.0884 71.1921L57.3802 75.7746L60.9968 76.5161ZM60.2949 79.7346L60.7414 77.5566L55.74 76.5311L55.9164 75.6706L61.9032 69.9772L63.4628 70.297L62.1396 76.7505L63.4437 77.0179L63.2287 78.0665L61.9246 77.7991L61.478 79.9772L60.2949 79.7346ZM66.4346 70.7523L72.2562 71.9459L72.0384 73.008L67.3462 72.0459L66.7149 75.1248C66.9728 74.8694 67.3236 74.6845 67.7674 74.57C68.2111 74.4555 68.6885 74.4506 69.1994 74.5554C69.7192 74.662 70.1696 74.8571 70.5504 75.1406C70.942 75.4171 71.2204 75.745 71.3854 76.1244C71.6923 76.8598 71.7612 77.6398 71.5921 78.4644C71.3844 79.4772 70.9321 80.2484 70.2351 80.778C69.54 81.2986 68.6815 81.4542 67.6597 81.2447C66.6469 81.037 65.8978 80.6359 65.4126 80.0414C64.9364 79.4487 64.7065 78.7478 64.723 77.9386L65.8927 78.1784C65.9189 78.6882 66.0963 79.1215 66.4247 79.4784C66.7621 79.8371 67.249 80.0817 67.8854 80.2122C68.5307 80.3445 69.0768 80.2323 69.5235 79.8756C69.9792 79.5207 70.2815 78.9802 70.4304 78.2542C70.5792 77.5282 70.5094 76.9348 70.221 76.4741C69.9433 76.0062 69.4459 75.6987 68.7289 75.5517C68.2449 75.4525 67.8024 75.4925 67.4013 75.6718C67.0003 75.8511 66.6706 76.1384 66.4121 76.5337L65.2961 76.3049L66.4346 70.7523ZM79.6669 81.7732C79.8341 80.9576 79.6085 80.4863 78.9901 80.3595C78.3716 80.2327 77.9788 80.5771 77.8115 81.3928C77.6443 82.2084 77.8699 82.6797 78.4884 82.8065C79.1068 82.9333 79.4997 82.5889 79.6669 81.7732ZM78.3312 83.5728C77.7576 83.4552 77.3238 83.1794 77.0298 82.7456C76.7448 82.3135 76.6639 81.7973 76.787 81.1967C76.912 80.5872 77.1949 80.1409 77.6359 79.8577C78.0788 79.5656 78.5825 79.4774 79.1472 79.5932C79.7119 79.709 80.1403 79.9883 80.4324 80.4311C80.7354 80.8668 80.8244 81.3894 80.6994 81.9989C80.5763 82.5994 80.2942 83.0413 79.8532 83.3245C79.4122 83.6076 78.9049 83.6904 78.3312 83.5728ZM72.9944 82.3385L80.3498 74.1378L81.5733 74.3886L74.2179 82.5893L72.9944 82.3385ZM76.7561 75.3343C76.9234 74.5186 76.6978 74.0474 76.0793 73.9206C75.4609 73.7938 75.068 74.1382 74.9008 74.9539C74.7335 75.7695 74.9591 76.2407 75.5776 76.3675C76.1961 76.4943 76.5889 76.1499 76.7561 75.3343ZM75.4205 77.1339C74.8558 77.0181 74.4265 76.7433 74.1325 76.3094C73.8404 75.8666 73.7559 75.3449 73.879 74.7444C74.0039 74.1349 74.2825 73.6876 74.7145 73.4026C75.1555 73.1194 75.6628 73.0366 76.2364 73.1543C76.8101 73.2719 77.2439 73.5476 77.5379 73.9815C77.8318 74.4154 77.9163 74.937 77.7914 75.5465C77.6682 76.1471 77.3853 76.5934 76.9424 76.8855C76.5014 77.1687 75.9941 77.2515 75.4205 77.1339Z" fill="#2ECD6F"/>
<path d="M90.1164 85.7251L88.6875 77.8668L90.032 78.1424L91.0667 84.575L94.5897 79.0769L95.8535 79.3361L89.1815 89.26L87.9177 89.0009L90.1164 85.7251ZM98.5724 87.711C97.5148 87.4942 96.726 86.9682 96.2061 86.1331C95.6862 85.298 95.5438 84.3068 95.779 83.1595C96.0143 82.0122 96.5388 81.1624 97.3525 80.6101C98.1681 80.0488 99.1092 79.8775 100.176 80.0962C101.251 80.3167 102.044 80.8248 102.553 81.6204C103.073 82.4088 103.229 83.314 103.019 84.3358C102.966 84.5957 102.898 84.834 102.817 85.0507L96.9412 83.8461C96.8263 84.5884 96.9354 85.2179 97.2685 85.7345C97.6124 86.244 98.1159 86.5667 98.7792 86.7027C99.2811 86.8056 99.7254 86.7799 100.112 86.6257C100.507 86.4733 100.823 86.2299 101.06 85.8955L102.378 86.1656C102.012 86.7632 101.5 87.2138 100.84 87.5175C100.189 87.8229 99.4329 87.8875 98.5724 87.711ZM101.775 83.9125C101.911 83.2026 101.803 82.592 101.45 82.0807C101.099 81.5604 100.596 81.2332 99.9422 81.099C99.2968 80.9667 98.7158 81.0671 98.1992 81.4001C97.6845 81.7242 97.3302 82.2447 97.1366 82.9615L101.775 83.9125ZM104.541 83.2889C104.668 82.6704 105.03 82.203 105.627 81.8864C106.235 81.5628 106.947 81.4846 107.763 81.6518C108.588 81.8209 109.19 82.1639 109.569 82.6807C109.951 83.1886 110.09 83.8101 109.986 84.5453L108.722 84.2862C108.789 83.8702 108.718 83.5101 108.509 83.2058C108.301 82.9016 107.963 82.7016 107.497 82.6061C107.04 82.5124 106.654 82.55 106.339 82.7189C106.035 82.8807 105.847 83.1364 105.776 83.486C105.706 83.8266 105.8 84.1213 106.057 84.3702C106.323 84.6209 106.657 84.8342 107.06 85.0103C107.474 85.1791 107.88 85.365 108.277 85.5679C108.685 85.7637 109.005 86.0488 109.236 86.4231C109.479 86.7903 109.541 87.2608 109.423 87.8344C109.308 88.3991 108.949 88.8253 108.349 89.1131C107.759 89.3938 107.051 89.4496 106.227 89.2805C105.402 89.1114 104.781 88.7693 104.364 88.254C103.955 87.7407 103.803 87.1164 103.907 86.3812L105.171 86.6403C105.104 87.0563 105.18 87.4173 105.397 87.7234C105.626 88.0224 105.977 88.2206 106.452 88.318C106.936 88.4172 107.334 88.3913 107.645 88.2403C107.965 88.0911 108.157 87.8597 108.222 87.546C108.288 87.2233 108.233 86.9458 108.056 86.7135C107.88 86.4811 107.637 86.296 107.329 86.1582C107.021 86.0203 106.685 85.8626 106.32 85.685C105.963 85.5092 105.635 85.3344 105.334 85.1607C105.036 84.978 104.807 84.7257 104.649 84.4037C104.491 84.0818 104.455 83.7102 104.541 83.2889ZM113.425 89.5935L114.433 89.8003L114.229 90.7952L112.992 90.5416C111.711 90.2788 111.199 89.5155 111.458 88.2517L112.379 83.7612L111.425 83.5654L111.629 82.5705L112.583 82.7663L112.958 80.9378L114.195 81.1914L113.82 83.0199L115.729 83.4113L115.525 84.4062L113.616 84.0148L112.695 88.5053C112.627 88.8369 112.647 89.0837 112.754 89.2458C112.861 89.4078 113.084 89.5237 113.425 89.5935ZM118.648 91.8272C117.59 91.6103 116.801 91.0843 116.281 90.2492C115.761 89.4141 115.619 88.4229 115.854 87.2756C116.089 86.1283 116.614 85.2785 117.428 84.7262C118.243 84.1649 119.184 83.9936 120.251 84.2123C121.326 84.4329 122.119 84.9409 122.628 85.7365C123.148 86.525 123.304 87.4301 123.094 88.4519C123.041 88.7118 122.973 88.9501 122.892 89.1669L117.016 87.9622C116.901 88.7045 117.011 89.334 117.344 89.8506C117.687 90.3601 118.191 90.6828 118.854 90.8188C119.356 90.9217 119.8 90.8961 120.187 90.7418C120.582 90.5894 120.899 90.346 121.135 90.0116L122.453 90.2818C122.087 90.8793 121.575 91.3299 120.915 91.6336C120.264 91.9391 119.508 92.0036 118.648 91.8272ZM121.85 88.0287C121.986 87.3187 121.878 86.7081 121.525 86.1968C121.174 85.6765 120.672 85.3493 120.017 85.2152C119.372 85.0828 118.791 85.1832 118.274 85.5163C117.76 85.8403 117.405 86.3608 117.212 87.0776L121.85 88.0287ZM126.536 85.6271L126.28 86.8774C126.906 86.0533 127.748 85.7496 128.806 85.9665L128.544 87.2437L128.222 87.1775C127.594 87.0489 127.081 87.1164 126.681 87.38C126.292 87.6365 126.015 88.1681 125.85 88.9748L125.023 93.0082L123.799 92.7574L125.313 85.3762L126.536 85.6271ZM134.108 93.1199C134.704 92.719 135.088 92.1018 135.259 91.2683C135.43 90.4347 135.32 89.7164 134.93 89.1134C134.549 88.5122 134.013 88.1409 133.323 87.9994C132.642 87.8597 132.005 87.9813 131.413 88.3643C130.83 88.749 130.453 89.3582 130.282 90.1918C130.111 91.0253 130.219 91.7526 130.605 92.3735C130.991 92.9945 131.525 93.3748 132.206 93.5144C132.887 93.6541 133.522 93.5226 134.108 93.1199ZM131.763 94.5163C130.759 94.3104 129.994 93.7801 129.469 92.9252C128.946 92.0614 128.799 91.0692 129.029 89.9488C129.26 88.8195 129.778 87.9777 130.583 87.4236C131.399 86.8623 132.313 86.6855 133.326 86.8931C133.953 87.0218 134.47 87.2818 134.875 87.6731C135.289 88.0663 135.569 88.5252 135.713 89.0499L136.543 85.0031L137.78 85.2567L135.74 95.2057L134.503 94.9521L134.812 93.4463C134.471 93.8807 134.031 94.2016 133.494 94.4089C132.967 94.6091 132.39 94.6449 131.763 94.5163ZM143.115 94.9666C143.711 94.5658 144.095 93.9486 144.266 93.115C144.436 92.2814 144.327 91.5631 143.937 90.9601C143.556 90.359 143.02 89.9876 142.33 89.8461C141.649 89.7064 141.012 89.8281 140.42 90.211C139.837 90.5958 139.459 91.2049 139.289 92.0385C139.118 92.8721 139.225 93.5993 139.612 94.2203C139.998 94.8412 140.532 95.2215 141.213 95.3612C141.894 95.5008 142.528 95.3693 143.115 94.9666ZM140.77 96.363C139.766 96.1572 139.001 95.6268 138.476 94.7719C137.953 93.9081 137.806 92.916 138.035 91.7956C138.267 90.6662 138.785 89.8245 139.59 89.2703C140.406 88.709 141.32 88.5322 142.333 88.7399C142.96 88.8685 143.476 89.1285 143.882 89.5199C144.296 89.913 144.576 90.372 144.72 90.8966L145.024 89.4177L146.26 89.6713L144.747 97.0525L143.51 96.7988L143.819 95.293C143.478 95.7274 143.038 96.0483 142.501 96.2556C141.974 96.4559 141.397 96.4916 140.77 96.363ZM148.858 97.7693L147.429 89.9109L148.774 90.1866L149.808 96.6192L153.331 91.1211L154.595 91.3802L147.923 101.304L146.659 101.045L148.858 97.7693Z" fill="#495057"/>
<path d="M195.744 105.352C196.482 104.938 197.066 104.595 197.496 104.323C197.935 104.045 198.313 103.742 198.632 103.412C198.952 103.083 199.15 102.729 199.228 102.35C199.308 101.959 199.277 101.632 199.133 101.371C198.995 101.112 198.727 100.941 198.329 100.86C197.944 100.781 197.618 100.843 197.352 101.047C197.093 101.246 196.915 101.55 196.818 101.958L195.74 101.737C195.912 100.997 196.251 100.474 196.756 100.169C197.268 99.8594 197.855 99.772 198.514 99.9073C199.226 100.053 199.741 100.363 200.059 100.837C200.384 101.311 200.479 101.875 200.345 102.528C200.249 102.999 200.035 103.428 199.703 103.816C199.38 104.199 199.016 104.529 198.612 104.807C198.216 105.079 197.717 105.389 197.115 105.735L196.594 106.036L199.699 106.673L199.508 107.604L194.748 106.628L194.914 105.815L195.744 105.352ZM202.44 104.418C201.83 103.939 201.6 103.334 201.75 102.602C201.823 102.25 201.977 101.944 202.214 101.687C202.45 101.429 202.762 101.251 203.15 101.154C203.539 101.05 203.988 101.05 204.497 101.154C205 101.258 205.41 101.433 205.726 101.682C206.05 101.925 206.271 102.212 206.387 102.542C206.503 102.872 206.525 103.214 206.452 103.566C206.377 103.932 206.216 104.236 205.969 104.478C205.73 104.715 205.442 104.877 205.104 104.964C205.448 105.177 205.696 105.463 205.847 105.821C206 106.172 206.033 106.556 205.948 106.974C205.861 107.399 205.676 107.752 205.393 108.035C205.111 108.317 204.759 108.507 204.337 108.604C203.916 108.702 203.46 108.7 202.971 108.6C202.481 108.499 202.061 108.321 201.712 108.066C201.369 107.812 201.124 107.5 200.975 107.129C200.827 106.758 200.796 106.36 200.883 105.936C200.97 105.511 201.153 105.168 201.431 104.905C201.71 104.642 202.046 104.48 202.44 104.418ZM205.357 103.485C205.432 103.119 205.375 102.815 205.186 102.572C204.998 102.329 204.705 102.167 204.306 102.085C203.914 102.005 203.584 102.039 203.315 102.188C203.047 102.337 202.874 102.598 202.798 102.97C202.731 103.297 202.793 103.588 202.986 103.846C203.186 104.098 203.472 104.262 203.844 104.338C204.216 104.415 204.545 104.373 204.829 104.214C205.114 104.054 205.29 103.811 205.357 103.485ZM203.672 105.181C203.24 105.092 202.866 105.128 202.547 105.287C202.237 105.441 202.04 105.717 201.959 106.116C201.882 106.488 201.951 106.818 202.164 107.107C202.378 107.389 202.711 107.576 203.161 107.669C203.605 107.76 203.979 107.714 204.282 107.531C204.591 107.35 204.783 107.076 204.858 106.71C204.939 106.318 204.867 105.987 204.644 105.717C204.427 105.448 204.103 105.269 203.672 105.181ZM210.78 104.301C211.192 104.385 211.539 104.548 211.823 104.79C212.113 105.033 212.315 105.347 212.426 105.73C212.545 106.115 212.554 106.553 212.453 107.043L211.801 110.226L210.694 109.999L211.312 106.982C211.411 106.499 211.366 106.105 211.177 105.801C210.989 105.49 210.686 105.292 210.268 105.206C209.85 105.12 209.49 105.183 209.188 105.393C208.894 105.598 208.698 105.942 208.599 106.426L207.98 109.443L206.863 109.214L208.35 101.965L209.467 102.194L208.958 104.672C209.195 104.482 209.469 104.355 209.782 104.29C210.101 104.226 210.434 104.23 210.78 104.301ZM216.706 105.628C216.87 105.029 217.199 104.603 217.693 104.35C218.194 104.099 218.777 104.041 219.443 104.178C219.9 104.272 220.279 104.434 220.578 104.666C220.878 104.898 221.084 105.171 221.196 105.487C221.308 105.802 221.328 106.137 221.256 106.489C221.173 106.894 220.994 107.218 220.72 107.461C220.445 107.705 220.148 107.844 219.827 107.881L219.819 107.92C220.18 108.116 220.437 108.394 220.588 108.751C220.74 109.102 220.767 109.52 220.668 110.003C220.589 110.388 220.431 110.713 220.193 110.977C219.955 111.241 219.645 111.426 219.262 111.532C218.881 111.63 218.449 111.63 217.966 111.531C217.261 111.387 216.716 111.088 216.333 110.635C215.957 110.177 215.823 109.605 215.929 108.919L217.007 109.14C216.962 109.491 217.038 109.803 217.234 110.074C217.431 110.34 217.736 110.514 218.147 110.599C218.545 110.68 218.874 110.635 219.134 110.464C219.395 110.286 219.561 110.024 219.632 109.678C219.726 109.221 219.645 108.868 219.39 108.618C219.143 108.363 218.719 108.174 218.118 108.051L217.863 107.999L218.052 107.078L218.317 107.132C218.847 107.234 219.267 107.228 219.576 107.115C219.892 107.002 220.087 106.763 220.162 106.398C220.226 106.084 220.176 105.815 220.011 105.591C219.847 105.36 219.579 105.206 219.207 105.13C218.841 105.055 218.538 105.092 218.297 105.239C218.057 105.381 217.889 105.585 217.793 105.851L216.706 105.628ZM221.608 110.685L221.78 109.843L226.04 105.796L227.392 106.073L226.45 110.668L227.361 110.854L227.162 111.824L226.251 111.638L225.946 113.127L224.849 112.902L225.154 111.413L221.608 110.685ZM226.111 106.995L223.09 109.979L225.402 110.453L226.111 106.995ZM235.588 109.387C236.012 109.474 236.373 109.64 236.67 109.885C236.973 110.13 237.184 110.446 237.303 110.831C237.428 111.217 237.44 111.655 237.34 112.145L236.687 115.329L235.58 115.102L236.199 112.085C236.298 111.601 236.252 111.208 236.063 110.903C235.875 110.593 235.572 110.394 235.154 110.309C234.736 110.223 234.376 110.285 234.074 110.496C233.781 110.701 233.584 111.045 233.485 111.528L232.866 114.546L231.759 114.319L232.378 111.301C232.477 110.818 232.432 110.424 232.243 110.12C232.054 109.809 231.751 109.611 231.333 109.525C230.915 109.44 230.556 109.502 230.254 109.712C229.96 109.917 229.764 110.262 229.664 110.745L229.046 113.762L227.929 113.533L229.036 108.135L230.153 108.364L230.026 108.982C230.254 108.797 230.522 108.672 230.828 108.605C231.134 108.539 231.447 108.538 231.767 108.604C232.198 108.692 232.565 108.863 232.867 109.115C233.169 109.367 233.376 109.686 233.488 110.069C233.718 109.776 234.026 109.57 234.411 109.452C234.797 109.327 235.19 109.305 235.588 109.387Z" fill="white"/>
<path d="M188.648 154.579L213.973 145.862L230.269 154.084L247.684 146.917" stroke="#2ECD6F" stroke-width="2.11144" stroke-linecap="round" stroke-linejoin="round"/>
<path d="M45.3205 104.347L45.1098 102.843L42.2686 102.26L41.483 103.56L40.6251 103.384L44.2605 97.4682L45.1829 97.6573L46.1876 104.525L45.3205 104.347ZM42.6447 101.645L45.0062 102.129L44.5025 98.5848L42.6447 101.645ZM49.3937 105.269C48.668 105.12 48.1268 104.759 47.7701 104.186C47.4134 103.613 47.3151 102.936 47.4752 102.155C47.6366 101.368 47.994 100.781 48.5475 100.395C49.1009 100.008 49.7404 99.8894 50.4661 100.038C51.0749 100.163 51.541 100.406 51.8643 100.767C52.1937 101.129 52.3817 101.588 52.4283 102.142L51.5243 101.957C51.4864 101.641 51.3645 101.376 51.1588 101.161C50.953 100.946 50.6748 100.802 50.3243 100.73C49.8446 100.632 49.4225 100.721 49.0579 100.999C48.7008 101.272 48.4592 101.716 48.3331 102.331C48.2083 102.94 48.2557 103.443 48.4754 103.84C48.7025 104.233 49.0559 104.478 49.5355 104.577C50.2551 104.724 50.7837 104.506 51.1214 103.921L52.0254 104.107C51.7695 104.573 51.4145 104.914 50.9604 105.128C50.5125 105.344 49.9902 105.391 49.3937 105.269ZM54.6206 105.542L55.3125 105.684L55.1725 106.367L54.3238 106.193C53.4444 106.013 53.0936 105.489 53.2714 104.622L53.9031 101.541L53.2482 101.406L53.3881 100.724L54.0431 100.858L54.3003 99.6036L55.149 99.7776L54.8918 101.032L56.2017 101.301L56.0617 101.983L54.7518 101.715L54.1201 104.796C54.0734 105.023 54.0868 105.193 54.1601 105.304C54.2334 105.415 54.3869 105.495 54.6206 105.542ZM58.1684 100.685C58.035 100.773 57.8883 100.801 57.7284 100.768C57.5685 100.735 57.4446 100.652 57.3566 100.519C57.2747 100.387 57.2502 100.24 57.283 100.081C57.3158 99.9207 57.3989 99.7968 57.5323 99.7088C57.6657 99.6208 57.8092 99.5925 57.963 99.624C58.1229 99.6568 58.2468 99.7399 58.3348 99.8733C58.4228 100.007 58.4504 100.153 58.4176 100.313C58.3848 100.473 58.3018 100.597 58.1684 100.685ZM56.0993 106.557L57.1377 101.493L57.9771 101.665L56.9387 106.729L56.0993 106.557ZM58.7816 101.83L59.6764 102.013L60.3485 106.611L62.7851 102.651L63.6891 102.836L60.6674 107.494L59.7173 107.299L58.7816 101.83ZM65.5548 108.582C64.8291 108.433 64.2879 108.073 63.9312 107.5C63.5745 106.927 63.4768 106.246 63.6382 105.459C63.7996 104.672 64.1595 104.089 64.7178 103.71C65.2774 103.325 65.9231 103.207 66.6549 103.358C67.3929 103.509 67.9366 103.857 68.2861 104.403C68.6429 104.944 68.7495 105.565 68.6058 106.266C68.5692 106.445 68.5229 106.608 68.4667 106.757L64.4356 105.93C64.3568 106.44 64.4316 106.872 64.6602 107.226C64.8961 107.576 65.2416 107.797 65.6967 107.89C66.041 107.961 66.3458 107.943 66.6111 107.838C66.8824 107.733 67.0993 107.566 67.2617 107.337L68.1657 107.522C67.915 107.932 67.5633 108.241 67.1104 108.449C66.6637 108.659 66.1452 108.703 65.5548 108.582ZM67.7521 105.976C67.8456 105.489 67.7713 105.07 67.5292 104.719C67.2884 104.362 66.9435 104.138 66.4946 104.046C66.0518 103.955 65.6532 104.024 65.2987 104.252C64.9456 104.475 64.7025 104.832 64.5696 105.323L67.7521 105.976ZM76.4633 105.455L77.3028 105.627L76.2644 110.692L75.425 110.519L75.5914 109.708C75.1309 110.235 74.5193 110.42 73.7567 110.264C73.1971 110.149 72.7675 109.869 72.4681 109.423C72.1699 108.971 72.0907 108.404 72.2307 107.721L72.8473 104.714L73.6775 104.884L73.0893 107.753C72.9859 108.257 73.0294 108.67 73.2199 108.991C73.4179 109.307 73.7321 109.509 74.1625 109.597C74.593 109.686 74.9584 109.623 75.2586 109.409C75.5662 109.19 75.7717 108.828 75.8751 108.324L76.4633 105.455ZM78.2082 107.303C78.2952 106.878 78.5436 106.558 78.9534 106.341C79.3706 106.119 79.859 106.065 80.4186 106.18C80.9844 106.296 81.3976 106.531 81.6581 106.886C81.9199 107.234 82.0151 107.66 81.9437 108.165L81.0766 107.987C81.1223 107.702 81.0736 107.455 80.9306 107.246C80.7875 107.037 80.5561 106.9 80.2363 106.834C79.9227 106.77 79.6579 106.796 79.4418 106.912C79.2332 107.023 79.1043 107.198 79.0552 107.438C79.0073 107.672 79.0715 107.874 79.248 108.045C79.4306 108.217 79.6601 108.363 79.9366 108.484C80.2204 108.6 80.4986 108.727 80.7713 108.866C81.0513 109.001 81.2708 109.196 81.4296 109.453C81.5958 109.705 81.6386 110.028 81.5579 110.422C81.4784 110.809 81.2326 111.101 80.8205 111.299C80.4157 111.491 79.9304 111.53 79.3647 111.414C78.7989 111.298 78.3728 111.063 78.0864 110.709C77.8062 110.357 77.7018 109.929 77.7731 109.424L78.6403 109.602C78.5946 109.888 78.6463 110.135 78.7955 110.345C78.9521 110.551 79.1933 110.687 79.5193 110.753C79.8514 110.821 80.1242 110.804 80.3377 110.7C80.5573 110.598 80.6892 110.439 80.7333 110.224C80.7787 110.002 80.7409 109.812 80.6197 109.652C80.4986 109.493 80.3324 109.366 80.1211 109.271C79.9098 109.177 79.6789 109.069 79.4283 108.947C79.1839 108.826 78.9585 108.706 78.7523 108.587C78.5473 108.462 78.3905 108.289 78.282 108.068C78.1735 107.847 78.1489 107.592 78.2082 107.303ZM84.6076 112.489C83.882 112.34 83.3408 111.979 82.984 111.406C82.6273 110.833 82.5296 110.153 82.691 109.366C82.8524 108.579 83.2123 107.996 83.7706 107.617C84.3302 107.232 84.9759 107.114 85.7077 107.264C86.4457 107.415 86.9894 107.764 87.3389 108.31C87.6958 108.851 87.8023 109.472 87.6586 110.173C87.622 110.351 87.5757 110.515 87.5196 110.663L83.4884 109.837C83.4096 110.346 83.4845 110.778 83.713 111.133C83.9489 111.482 84.2944 111.704 84.7495 111.797C85.0939 111.868 85.3987 111.85 85.6639 111.744C85.9352 111.64 86.1521 111.472 86.3145 111.243L87.2185 111.428C86.9679 111.838 86.6161 112.148 86.1632 112.356C85.7165 112.566 85.198 112.61 84.6076 112.489ZM86.805 109.883C86.8984 109.395 86.8241 108.976 86.582 108.626C86.3412 108.269 85.9964 108.044 85.5474 107.952C85.1046 107.861 84.706 107.93 84.3516 108.159C83.9984 108.381 83.7553 108.738 83.6225 109.23L86.805 109.883ZM90.0201 108.235L89.8442 109.093C90.2741 108.527 90.8519 108.319 91.5776 108.468L91.3979 109.344L91.1765 109.299C90.7461 109.21 90.3937 109.257 90.1195 109.437C89.8527 109.613 89.6626 109.978 89.5491 110.532L88.9817 113.299L88.1423 113.127L89.1806 108.063L90.0201 108.235ZM92.0992 110.151C92.1862 109.727 92.4346 109.406 92.8444 109.189C93.2616 108.967 93.75 108.913 94.3096 109.028C94.8754 109.144 95.2885 109.379 95.5491 109.734C95.8109 110.082 95.906 110.509 95.8347 111.013L94.9675 110.835C95.0133 110.55 94.9646 110.303 94.8215 110.094C94.6785 109.885 94.4471 109.748 94.1273 109.682C93.8137 109.618 93.5488 109.644 93.3328 109.76C93.1242 109.871 92.9953 110.046 92.9462 110.286C92.8982 110.52 92.9625 110.722 93.139 110.893C93.3216 111.065 93.5511 111.211 93.8275 111.332C94.1114 111.448 94.3896 111.575 94.6623 111.715C94.9423 111.849 95.1618 112.045 95.3206 112.301C95.4868 112.553 95.5296 112.876 95.4489 113.27C95.3694 113.657 95.1236 113.95 94.7114 114.147C94.3067 114.34 93.8214 114.378 93.2556 114.262C92.6899 114.146 92.2638 113.911 91.9774 113.558C91.6972 113.205 91.5927 112.777 91.6641 112.273L92.5312 112.45C92.4855 112.736 92.5373 112.984 92.6865 113.194C92.8431 113.399 93.0843 113.535 93.4103 113.602C93.7424 113.67 94.0152 113.652 94.2286 113.548C94.4483 113.446 94.5802 113.287 94.6243 113.072C94.6697 112.85 94.6318 112.66 94.5107 112.501C94.3896 112.341 94.2234 112.214 94.0121 112.12C93.8008 112.025 93.5699 111.917 93.3193 111.795C93.0749 111.674 92.8495 111.554 92.6433 111.435C92.4383 111.31 92.2815 111.137 92.173 110.916C92.0645 110.695 92.0399 110.44 92.0992 110.151Z" fill="#C8CCDE"/>
<path d="M112.961 118.219L112.75 116.714L109.909 116.132L109.124 117.432L108.266 117.256L111.901 111.34L112.824 111.529L113.828 118.396L112.961 118.219ZM110.285 115.517L112.647 116.001L112.143 112.456L110.285 115.517ZM117.034 119.14C116.309 118.992 115.767 118.631 115.411 118.058C115.054 117.485 114.956 116.808 115.116 116.027C115.277 115.239 115.635 114.653 116.188 114.266C116.742 113.88 117.381 113.761 118.107 113.91C118.716 114.035 119.182 114.278 119.505 114.639C119.834 115.001 120.022 115.459 120.069 116.014L119.165 115.828C119.127 115.513 119.005 115.248 118.799 115.032C118.594 114.817 118.315 114.674 117.965 114.602C117.485 114.503 117.063 114.593 116.699 114.871C116.341 115.144 116.1 115.588 115.974 116.203C115.849 116.811 115.896 117.315 116.116 117.712C116.343 118.105 116.696 118.35 117.176 118.448C117.896 118.596 118.424 118.378 118.762 117.793L119.666 117.978C119.41 118.445 119.055 118.786 118.601 119C118.153 119.216 117.631 119.263 117.034 119.14ZM122.261 119.414L122.953 119.556L122.813 120.239L121.964 120.065C121.085 119.884 120.734 119.361 120.912 118.494L121.544 115.412L120.889 115.278L121.029 114.596L121.684 114.73L121.941 113.475L122.79 113.649L122.532 114.904L123.842 115.172L123.702 115.855L122.392 115.586L121.761 118.668C121.714 118.895 121.727 119.064 121.801 119.176C121.874 119.287 122.028 119.366 122.261 119.414ZM125.809 114.557C125.676 114.645 125.529 114.672 125.369 114.64C125.209 114.607 125.085 114.524 124.997 114.39C124.915 114.258 124.891 114.112 124.924 113.952C124.956 113.792 125.039 113.668 125.173 113.58C125.306 113.492 125.45 113.464 125.604 113.496C125.763 113.529 125.887 113.612 125.975 113.745C126.063 113.878 126.091 114.025 126.058 114.185C126.025 114.345 125.942 114.469 125.809 114.557ZM123.74 120.429L124.778 115.364L125.618 115.536L124.579 120.601L123.74 120.429ZM126.422 115.701L127.317 115.885L127.989 120.483L130.426 116.522L131.33 116.708L128.308 121.365L127.358 121.171L126.422 115.701ZM133.195 122.454C132.47 122.305 131.929 121.944 131.572 121.371C131.215 120.798 131.117 120.118 131.279 119.331C131.44 118.544 131.8 117.961 132.358 117.582C132.918 117.197 133.564 117.079 134.296 117.229C135.033 117.381 135.577 117.729 135.927 118.275C136.284 118.816 136.39 119.437 136.246 120.138C136.21 120.316 136.163 120.48 136.107 120.629L132.076 119.802C131.997 120.311 132.072 120.743 132.301 121.098C132.537 121.447 132.882 121.669 133.337 121.762C133.682 121.833 133.986 121.815 134.252 121.709C134.523 121.605 134.74 121.438 134.902 121.208L135.806 121.394C135.556 121.804 135.204 122.113 134.751 122.321C134.304 122.531 133.786 122.575 133.195 122.454ZM135.393 119.848C135.486 119.361 135.412 118.942 135.17 118.591C134.929 118.234 134.584 118.009 134.135 117.917C133.692 117.827 133.294 117.895 132.939 118.124C132.586 118.346 132.343 118.703 132.21 119.195L135.393 119.848ZM142.882 117.692C143.601 117.84 144.113 118.127 144.416 118.555C144.726 118.983 144.824 119.471 144.712 120.019C144.6 120.566 144.322 120.98 143.88 121.261C143.446 121.537 142.856 121.599 142.112 121.447L140.876 121.193L140.335 123.831L139.496 123.659L140.806 117.267L142.882 117.692ZM141.012 120.529L142.248 120.782C142.71 120.877 143.072 120.842 143.337 120.679C143.608 120.51 143.783 120.235 143.861 119.854C144.027 119.048 143.654 118.552 142.744 118.365L141.508 118.112L141.012 120.529ZM146.706 119.86L146.531 120.718C146.961 120.153 147.538 119.944 148.264 120.093L148.084 120.97L147.863 120.924C147.432 120.836 147.08 120.882 146.806 121.063C146.539 121.239 146.349 121.604 146.235 122.157L145.668 124.925L144.829 124.753L145.867 119.688L146.706 119.86ZM150.508 125.283C150.982 125.38 151.425 125.295 151.839 125.027C152.26 124.754 152.533 124.317 152.656 123.714C152.78 123.111 152.71 122.607 152.447 122.201C152.185 121.794 151.814 121.542 151.334 121.444C150.86 121.347 150.429 121.434 150.04 121.707C149.651 121.98 149.394 122.42 149.269 123.029C149.145 123.632 149.203 124.134 149.441 124.535C149.679 124.936 150.035 125.186 150.508 125.283ZM148.715 124.886C148.352 124.312 148.251 123.634 148.411 122.853C148.571 122.072 148.943 121.492 149.527 121.112C150.113 120.725 150.772 120.607 151.503 120.757C152.235 120.908 152.794 121.275 153.18 121.861C153.568 122.44 153.682 123.12 153.521 123.901C153.363 124.676 152.978 125.254 152.368 125.635C151.765 126.012 151.098 126.125 150.366 125.975C149.635 125.825 149.084 125.462 148.715 124.886ZM155.092 121.58L155.931 121.752L154.67 127.905C154.49 128.778 153.964 129.125 153.091 128.946L152.574 128.84L152.716 128.148L153.067 128.22C153.301 128.268 153.474 128.252 153.586 128.173C153.703 128.101 153.785 127.954 153.83 127.733L155.092 121.58ZM156.122 120.772C155.989 120.86 155.842 120.888 155.682 120.855C155.523 120.822 155.399 120.739 155.311 120.606C155.229 120.474 155.204 120.328 155.237 120.168C155.27 120.008 155.353 119.884 155.486 119.796C155.62 119.708 155.763 119.68 155.917 119.711C156.077 119.744 156.201 119.827 156.289 119.96C156.377 120.094 156.404 120.24 156.372 120.4C156.339 120.56 156.256 120.684 156.122 120.772ZM158.383 127.618C157.657 127.47 157.116 127.109 156.759 126.536C156.403 125.963 156.305 125.283 156.466 124.495C156.628 123.708 156.988 123.125 157.546 122.746C158.106 122.361 158.751 122.244 159.483 122.394C160.221 122.545 160.765 122.894 161.114 123.439C161.471 123.98 161.578 124.601 161.434 125.302C161.397 125.481 161.351 125.644 161.295 125.793L157.264 124.966C157.185 125.476 157.26 125.908 157.488 126.262C157.724 126.612 158.07 126.833 158.525 126.926C158.869 126.997 159.174 126.979 159.439 126.874C159.711 126.769 159.927 126.602 160.09 126.373L160.994 126.558C160.743 126.968 160.391 127.277 159.939 127.485C159.492 127.695 158.973 127.739 158.383 127.618ZM160.58 125.012C160.674 124.525 160.599 124.106 160.357 123.755C160.117 123.398 159.772 123.174 159.323 123.082C158.88 122.991 158.481 123.06 158.127 123.288C157.774 123.511 157.531 123.868 157.398 124.36L160.58 125.012ZM164.022 128.775C163.297 128.626 162.755 128.265 162.399 127.692C162.042 127.119 161.944 126.442 162.104 125.661C162.265 124.874 162.623 124.287 163.176 123.901C163.729 123.514 164.369 123.395 165.095 123.544C165.704 123.669 166.17 123.912 166.493 124.273C166.822 124.635 167.01 125.094 167.057 125.648L166.153 125.463C166.115 125.147 165.993 124.882 165.787 124.667C165.582 124.451 165.303 124.308 164.953 124.236C164.473 124.138 164.051 124.227 163.686 124.505C163.329 124.778 163.088 125.222 162.962 125.837C162.837 126.446 162.884 126.949 163.104 127.346C163.331 127.739 163.684 127.984 164.164 128.083C164.884 128.23 165.412 128.012 165.75 127.427L166.654 127.613C166.398 128.079 166.043 128.42 165.589 128.634C165.141 128.85 164.619 128.897 164.022 128.775ZM169.249 129.048L169.941 129.19L169.801 129.873L168.952 129.699C168.073 129.519 167.722 128.995 167.9 128.128L168.532 125.047L167.877 124.912L168.017 124.23L168.672 124.364L168.929 123.11L169.778 123.284L169.52 124.538L170.83 124.807L170.69 125.489L169.38 125.221L168.749 128.302C168.702 128.529 168.715 128.699 168.789 128.81C168.862 128.921 169.016 129.001 169.249 129.048ZM171.289 126.391C171.376 125.966 171.624 125.646 172.034 125.428C172.451 125.206 172.939 125.153 173.499 125.267C174.065 125.383 174.478 125.619 174.738 125.973C175 126.322 175.095 126.748 175.024 127.253L174.157 127.075C174.203 126.789 174.154 126.542 174.011 126.334C173.868 126.125 173.637 125.988 173.317 125.922C173.003 125.858 172.738 125.884 172.522 126C172.314 126.111 172.185 126.286 172.136 126.526C172.088 126.76 172.152 126.962 172.328 127.132C172.511 127.305 172.741 127.451 173.017 127.572C173.301 127.688 173.579 127.815 173.852 127.954C174.132 128.089 174.351 128.284 174.51 128.541C174.676 128.793 174.719 129.116 174.638 129.509C174.559 129.897 174.313 130.189 173.901 130.387C173.496 130.579 173.011 130.618 172.445 130.502C171.879 130.386 171.453 130.151 171.167 129.797C170.887 129.445 170.782 129.017 170.854 128.512L171.721 128.69C171.675 128.975 171.727 129.223 171.876 129.433C172.032 129.638 172.274 129.774 172.6 129.841C172.932 129.909 173.205 129.891 173.418 129.788C173.638 129.685 173.77 129.527 173.814 129.311C173.859 129.09 173.821 128.9 173.7 128.74C173.579 128.581 173.413 128.454 173.202 128.359C172.99 128.265 172.759 128.156 172.509 128.035C172.264 127.914 172.039 127.794 171.833 127.675C171.628 127.55 171.471 127.376 171.362 127.156C171.254 126.935 171.229 126.68 171.289 126.391Z" fill="#C8CCDE"/>
<path d="M43.1756 117.828L39.2428 117.021L38.7638 119.357C38.9731 119.172 39.2534 119.038 39.6048 118.955C39.964 118.874 40.3275 118.871 40.6953 118.946C41.3527 119.081 41.8561 119.331 42.2053 119.696C42.5623 120.063 42.7828 120.479 42.8667 120.945C42.9584 121.412 42.9554 121.885 42.8575 122.362C42.7387 122.941 42.5193 123.434 42.1993 123.842C41.8887 124.243 41.4839 124.527 40.9848 124.694C40.4936 124.862 39.9271 124.881 39.2853 124.749C38.4322 124.574 37.7907 124.222 37.3609 123.694C36.931 123.165 36.7366 122.542 36.7776 121.825L38.0807 122.092C38.0914 122.478 38.223 122.81 38.4754 123.091C38.7295 123.363 39.0796 123.545 39.5257 123.636C40.0814 123.75 40.5307 123.667 40.8736 123.387C41.2244 123.108 41.4567 122.691 41.5706 122.135C41.6862 121.571 41.6336 121.112 41.4128 120.757C41.1936 120.394 40.8101 120.156 40.2623 120.044C39.8788 119.965 39.5339 119.997 39.2277 120.138C38.9309 120.272 38.6901 120.492 38.5053 120.797L37.2375 120.537L38.2508 115.595L43.4163 116.654L43.1756 117.828ZM44.5371 121.251C44.8147 119.897 45.2583 118.887 45.8679 118.221C46.4869 117.548 47.356 117.327 48.4752 117.556C49.5944 117.786 50.3023 118.331 50.599 119.191C50.9051 120.044 50.9193 121.148 50.6417 122.502C50.3609 123.872 49.9101 124.897 49.2895 125.577C48.6783 126.251 47.8131 126.473 46.694 126.244C45.5748 126.014 44.863 125.469 44.5585 124.607C44.2634 123.739 44.2563 122.62 44.5371 121.251ZM49.3269 122.233C49.4568 121.599 49.5237 121.054 49.5275 120.598C49.5391 120.144 49.4477 119.754 49.2535 119.429C49.0608 119.095 48.7179 118.878 48.2249 118.777C47.7318 118.676 47.3311 118.741 47.0229 118.971C46.7163 119.194 46.475 119.515 46.2991 119.936C46.131 120.358 45.9819 120.886 45.8519 121.52C45.7171 122.178 45.6431 122.737 45.6299 123.2C45.6167 123.662 45.7073 124.056 45.9015 124.381C46.1037 124.708 46.4512 124.922 46.9443 125.023C47.4374 125.124 47.8372 125.063 48.1438 124.841C48.4582 124.62 48.7003 124.294 48.8701 123.864C49.0398 123.434 49.1921 122.89 49.3269 122.233Z" fill="#495057"/>
<path d="M104.726 131.449C104.922 130.731 105.317 130.22 105.909 129.917C106.509 129.616 107.208 129.548 108.006 129.711C108.554 129.824 109.007 130.019 109.366 130.296C109.725 130.574 109.972 130.902 110.107 131.28C110.241 131.658 110.265 132.058 110.178 132.481C110.079 132.966 109.865 133.355 109.536 133.646C109.207 133.937 108.851 134.105 108.466 134.149L108.457 134.195C108.89 134.431 109.197 134.763 109.378 135.192C109.561 135.613 109.593 136.113 109.474 136.692C109.379 137.153 109.19 137.543 108.904 137.859C108.619 138.176 108.248 138.398 107.79 138.524C107.333 138.642 106.815 138.642 106.236 138.523C105.391 138.35 104.738 137.992 104.279 137.449C103.829 136.9 103.667 136.215 103.795 135.393L105.087 135.658C105.033 136.079 105.123 136.452 105.358 136.778C105.595 137.095 105.96 137.305 106.453 137.406C106.93 137.504 107.325 137.45 107.636 137.245C107.949 137.031 108.148 136.717 108.233 136.303C108.345 135.755 108.248 135.331 107.943 135.032C107.647 134.727 107.138 134.5 106.418 134.353L106.113 134.29L106.339 133.186L106.656 133.251C107.292 133.374 107.795 133.367 108.165 133.23C108.544 133.096 108.778 132.81 108.868 132.371C108.945 131.996 108.884 131.673 108.687 131.405C108.49 131.128 108.169 130.944 107.723 130.852C107.285 130.762 106.921 130.806 106.632 130.983C106.345 131.153 106.144 131.397 106.029 131.716L104.726 131.449ZM117.435 133.051L113.502 132.245L113.023 134.581C113.233 134.396 113.513 134.262 113.864 134.179C114.223 134.097 114.587 134.095 114.955 134.17C115.612 134.305 116.116 134.555 116.465 134.92C116.822 135.287 117.042 135.703 117.126 136.169C117.218 136.636 117.215 137.109 117.117 137.586C116.998 138.165 116.779 138.658 116.459 139.066C116.148 139.467 115.743 139.751 115.244 139.918C114.753 140.086 114.187 140.105 113.545 139.973C112.692 139.798 112.05 139.446 111.62 138.918C111.19 138.389 110.996 137.766 111.037 137.049L112.34 137.316C112.351 137.702 112.482 138.034 112.735 138.314C112.989 138.587 113.339 138.769 113.785 138.86C114.341 138.974 114.79 138.891 115.133 138.61C115.484 138.332 115.716 137.914 115.83 137.359C115.946 136.795 115.893 136.336 115.672 135.981C115.453 135.618 115.07 135.38 114.522 135.268C114.138 135.189 113.793 135.22 113.487 135.361C113.19 135.496 112.95 135.716 112.765 136.021L111.497 135.761L112.51 130.818L117.676 131.878L117.435 133.051Z" fill="#495057"/>
</g>
<defs>
<filter id="filter0_d_1_1950" x="8.90331" y="12.5855" width="279.849" height="191.056" filterUnits="userSpaceOnUse" color-interpolation-filters="sRGB">
<feFlood flood-opacity="0" result="BackgroundImageFix"/>
<feColorMatrix in="SourceAlpha" type="matrix" values="0 0 0 0 0 0 0 0 0 0 0 0 0 0 0 0 0 0 127 0" result="hardAlpha"/>
<feOffset dy="8.94195"/>
<feGaussianBlur stdDeviation="6.14759"/>
<feComposite in2="hardAlpha" operator="out"/>
<feColorMatrix type="matrix" values="0 0 0 0 0.72549 0 0 0 0 0.741176 0 0 0 0 0.764706 0 0 0 0.12 0"/>
<feBlend mode="normal" in2="BackgroundImageFix" result="effect1_dropShadow_1_1950"/>
<feBlend mode="normal" in="SourceGraphic" in2="effect1_dropShadow_1_1950" result="shape"/>
</filter>
<filter id="filter1_d_1_1950" x="0.0840816" y="0.102923" width="297.487" height="208.695" filterUnits="userSpaceOnUse" color-interpolation-filters="sRGB">
<feFlood flood-opacity="0" result="BackgroundImageFix"/>
<feColorMatrix in="SourceAlpha" type="matrix" values="0 0 0 0 0 0 0 0 0 0 0 0 0 0 0 0 0 0 127 0" result="hardAlpha"/>
<feOffset dy="5.2786"/>
<feGaussianBlur stdDeviation="10.5572"/>
<feComposite in2="hardAlpha" operator="out"/>
<feColorMatrix type="matrix" values="0 0 0 0 0.596078 0 0 0 0 0.611765 0 0 0 0 0.631373 0 0 0 0.1 0"/>
<feBlend mode="normal" in2="BackgroundImageFix" result="effect1_dropShadow_1_1950"/>
<feBlend mode="normal" in="SourceGraphic" in2="effect1_dropShadow_1_1950" result="shape"/>
</filter>
</defs>
</svg>
