<svg width="335" height="274" viewBox="0 0 335 274" fill="none" xmlns="http://www.w3.org/2000/svg">
<g clip-path="url(#clip0_1_1971)">
<mask id="mask0_1_1971" style="mask-type:alpha" maskUnits="userSpaceOnUse" x="-60" y="9" width="402" height="277">
<rect x="-17.9688" y="9.55811" width="366.846" height="206.351" transform="rotate(11.5871 -17.9688 9.55811)" fill="#C4C4C4"/>
</mask>
<g mask="url(#mask0_1_1971)">
<path fill-rule="evenodd" clip-rule="evenodd" d="M71.1593 76.7165C70.6923 79.0073 71.4854 81.3485 72.9309 83.1064C74.3764 84.8643 76.3685 85.6104 78.6087 85.4759L82.6362 74.8509C82.6362 74.8509 79.1639 73.6346 74.5925 71.9963C72.9263 73.1058 71.5679 74.7109 71.1593 76.7165Z" fill="white"/>
<path fill-rule="evenodd" clip-rule="evenodd" d="M77.77 261.459L87.2069 271.204L106.741 254.473L97.2465 243.955L77.77 261.459Z" fill="white"/>
<path fill-rule="evenodd" clip-rule="evenodd" d="M87.1577 271.412C87.1135 271.402 87.0732 271.38 87.042 271.348L77.6034 261.601C77.5639 261.558 77.5422 261.503 77.5428 261.445C77.545 261.388 77.5707 261.333 77.6143 261.295L97.0908 243.79C97.1343 243.752 97.192 243.732 97.251 243.735C97.3102 243.739 97.3658 243.765 97.4052 243.809L106.9 254.327C106.941 254.369 106.961 254.427 106.956 254.484C106.953 254.541 106.926 254.594 106.883 254.632L87.3482 271.363C87.2964 271.407 87.2258 271.426 87.1577 271.412ZM78.0781 261.465L87.2019 270.899L106.413 254.445L97.2185 244.257L78.0781 261.465Z" fill="#37434E"/>
<path fill-rule="evenodd" clip-rule="evenodd" d="M82.3282 318.822L129.731 278.395L134.578 283.437L87.4591 324.385L82.3282 318.822Z" fill="white"/>
<path fill-rule="evenodd" clip-rule="evenodd" d="M87.4231 324.602C87.377 324.593 87.3354 324.568 87.304 324.534L82.1731 318.971C82.1334 318.928 82.1129 318.871 82.1163 318.813C82.1196 318.756 82.1465 318.702 82.1909 318.664L129.592 278.234C129.682 278.157 129.818 278.165 129.9 278.251L134.747 283.295C134.787 283.338 134.809 283.394 134.806 283.452C134.804 283.51 134.777 283.564 134.733 283.603L87.6141 324.551C87.5626 324.597 87.4917 324.616 87.4231 324.602ZM82.65 318.846L87.4816 324.086L134.269 283.426L129.725 278.697L82.65 318.846Z" fill="#37434E"/>
<path fill-rule="evenodd" clip-rule="evenodd" d="M93.6194 272.919C98.4203 273.564 98.2084 279.386 105.146 275.831C112.083 272.276 115.298 269.616 114.447 267.468C113.79 265.812 111.794 262.658 112.719 260.696L106.738 254.472L87.2016 271.2L89.5616 273.79C89.6976 273.941 89.8262 274.095 89.9522 274.251C90.6124 273.342 91.724 272.665 93.6194 272.919Z" fill="white"/>
<path fill-rule="evenodd" clip-rule="evenodd" d="M100.452 277.107C99.2068 276.852 98.3367 276.065 97.4458 275.259C96.4154 274.33 95.3508 273.37 93.5936 273.135C92.0563 272.928 90.8851 273.346 90.1335 274.381C90.0931 274.437 90.0279 274.47 89.9578 274.471C89.8878 274.472 89.8211 274.44 89.7783 274.385C89.6401 274.212 89.5206 274.068 89.3989 273.935L87.0303 271.344C86.9911 271.301 86.971 271.245 86.9744 271.188C86.9773 271.13 87.0038 271.076 87.0481 271.037L106.585 254.307C106.674 254.232 106.809 254.239 106.89 254.324L112.872 260.548C112.931 260.61 112.948 260.699 112.915 260.777C112.228 262.237 113.303 264.497 114.091 266.147C114.306 266.599 114.509 267.026 114.651 267.381C115.519 269.574 112.617 272.234 105.247 276.011C103.107 277.123 101.617 277.346 100.452 277.107ZM94.0532 272.775C95.7121 273.116 96.7823 274.082 97.7369 274.94C99.4221 276.462 100.88 277.774 105.041 275.641C112.076 272.035 115 269.463 114.24 267.545C114.105 267.203 113.904 266.783 113.694 266.332C112.893 264.651 111.8 262.365 112.457 260.733L106.723 254.765L87.5067 271.222L89.7155 273.657C89.7874 273.735 89.8606 273.819 89.9369 273.909C90.7872 272.899 92.0317 272.498 93.6374 272.712C93.7832 272.727 93.9218 272.749 94.0532 272.775Z" fill="#37434E"/>
<path fill-rule="evenodd" clip-rule="evenodd" d="M134.578 283.437L129.731 278.395L82.3282 318.822L87.4591 324.385L134.578 283.437Z" fill="white"/>
<path fill-rule="evenodd" clip-rule="evenodd" d="M87.4231 324.602C87.377 324.593 87.3354 324.568 87.304 324.534L82.1731 318.971C82.1334 318.928 82.1129 318.871 82.1163 318.813C82.1196 318.756 82.1465 318.702 82.1909 318.664L129.592 278.234C129.682 278.157 129.818 278.165 129.9 278.251L134.747 283.295C134.787 283.338 134.809 283.394 134.806 283.452C134.804 283.51 134.777 283.564 134.733 283.603L87.6141 324.551C87.5626 324.597 87.4917 324.616 87.4231 324.602ZM82.65 318.846L87.4816 324.086L134.269 283.426L129.725 278.697L82.65 318.846Z" fill="#37434E"/>
<path fill-rule="evenodd" clip-rule="evenodd" d="M129.736 278.397L112.723 260.696C111.797 262.658 113.793 265.812 114.451 267.469C115.3 269.625 112.088 272.27 105.149 275.831C98.2106 279.393 98.4226 273.571 93.6229 272.92C91.734 272.667 90.616 273.343 89.964 274.255C92.4554 277.405 92.4151 281.797 89.8668 284.855L78.7907 298.151C74.5547 303.233 74.7734 310.612 79.3057 315.528L82.3483 318.828L129.751 278.4L129.736 278.397Z" fill="#7B858F"/>
<path fill-rule="evenodd" clip-rule="evenodd" d="M82.2799 319.036C82.2341 319.026 82.1922 319.003 82.1604 318.969L79.1179 315.67C74.5123 310.674 74.2903 303.175 78.5951 298.011L89.6716 284.714C92.1714 281.737 92.2078 277.443 89.7592 274.38C89.6998 274.305 89.6973 274.2 89.7532 274.123C90.6057 272.948 91.9108 272.471 93.6309 272.701C95.5237 272.957 96.6892 274.008 97.72 274.935C99.4052 276.457 100.863 277.769 105.024 275.636C112.059 272.03 114.983 269.458 114.223 267.541C114.088 267.198 113.888 266.778 113.678 266.327C112.854 264.599 111.728 262.234 112.5 260.593C112.53 260.528 112.592 260.482 112.665 260.471C112.737 260.46 112.81 260.485 112.861 260.537L129.876 278.238C129.917 278.281 129.939 278.338 129.936 278.397C129.934 278.455 129.907 278.51 129.862 278.548L82.4588 318.978C82.4114 319.022 82.3457 319.044 82.2799 319.036ZM90.2205 274.255C92.6919 277.474 92.6095 281.908 90.0211 284.99L78.945 298.286C74.7774 303.286 74.9926 310.547 79.4519 315.383L82.3467 318.523L129.416 278.382L112.802 261.1C112.377 262.555 113.361 264.624 114.095 266.162C114.31 266.613 114.513 267.041 114.655 267.396C115.523 269.589 112.621 272.249 105.251 276.026C100.81 278.3 99.1721 276.823 97.4388 275.261C96.4085 274.332 95.3439 273.371 93.5866 273.137C92.1135 272.936 90.9734 273.312 90.2205 274.255Z" fill="#37434E"/>
<path fill-rule="evenodd" clip-rule="evenodd" d="M238.622 124.455L252.684 125.634C253.985 125.744 254.959 126.863 254.861 128.135C254.813 128.745 254.52 129.31 254.044 129.705C253.569 130.099 252.951 130.291 252.326 130.238L238.264 129.064" fill="white"/>
<path fill-rule="evenodd" clip-rule="evenodd" d="M238.221 129.276C238.099 129.258 238.015 129.148 238.032 129.03C238.048 128.912 238.16 128.83 238.281 128.847L252.343 130.026C253.106 130.09 253.842 129.751 254.274 129.136C254.706 128.522 254.767 127.726 254.436 127.049C254.104 126.371 253.43 125.914 252.666 125.85L238.607 124.672C238.528 124.666 238.457 124.619 238.423 124.548C238.388 124.478 238.394 124.395 238.439 124.331C238.484 124.268 238.56 124.232 238.639 124.239L252.701 125.417C253.638 125.473 254.475 126.021 254.888 126.848C255.302 127.676 255.226 128.653 254.69 129.401C254.154 130.15 253.243 130.551 252.31 130.451L238.244 129.28L238.221 129.276Z" fill="#37434E"/>
<path fill-rule="evenodd" clip-rule="evenodd" d="M251.691 126.685L252.446 126.747C253.111 126.804 253.61 127.376 253.56 128.026C253.509 128.677 252.928 129.159 252.263 129.104L251.506 129.039L251.691 126.685Z" fill="white"/>
<path fill-rule="evenodd" clip-rule="evenodd" d="M251.472 129.251C251.424 129.241 251.38 129.216 251.349 129.18C251.31 129.136 251.291 129.079 251.295 129.021L251.48 126.667C251.49 126.549 251.595 126.462 251.717 126.471L252.471 126.534C253.258 126.6 253.848 127.277 253.788 128.046C253.728 128.815 253.041 129.385 252.254 129.319L251.5 129.255L251.472 129.251ZM251.903 126.917L251.754 128.842L252.289 128.886C252.647 128.927 252.998 128.775 253.204 128.488C253.411 128.202 253.44 127.826 253.281 127.509C253.122 127.191 252.799 126.982 252.439 126.963L251.903 126.917Z" fill="#37434E"/>
<path fill-rule="evenodd" clip-rule="evenodd" d="M239.38 119.902L253.441 121.08C254.743 121.189 255.718 122.308 255.619 123.58C255.519 124.851 254.384 125.793 253.082 125.685L239.02 124.506" fill="white"/>
<path fill-rule="evenodd" clip-rule="evenodd" d="M238.987 124.719C238.866 124.701 238.781 124.591 238.798 124.473C238.815 124.355 238.927 124.273 239.048 124.291L253.109 125.469C253.884 125.555 254.642 125.222 255.087 124.602C255.533 123.981 255.596 123.169 255.253 122.482C254.909 121.795 254.213 121.341 253.435 121.296L239.373 120.118C239.251 120.107 239.159 120.002 239.169 119.882C239.178 119.762 239.285 119.674 239.408 119.684L253.469 120.863C254.39 120.94 255.203 121.492 255.602 122.309C256.002 123.127 255.927 124.087 255.406 124.827C254.884 125.567 253.996 125.976 253.076 125.898L239.016 124.72L238.987 124.719Z" fill="#37434E"/>
<path fill-rule="evenodd" clip-rule="evenodd" d="M252.457 122.129L253.213 122.194C253.879 122.25 254.378 122.823 254.328 123.473C254.277 124.123 253.696 124.605 253.031 124.549L252.274 124.486L252.457 122.129Z" fill="white"/>
<path fill-rule="evenodd" clip-rule="evenodd" d="M252.225 124.699C252.115 124.677 252.038 124.578 252.047 124.468L252.229 122.114C252.233 122.057 252.261 122.004 252.305 121.966C252.35 121.929 252.408 121.911 252.466 121.916L253.223 121.981C253.741 122.011 254.205 122.314 254.434 122.772C254.663 123.23 254.621 123.771 254.324 124.185C254.027 124.599 253.523 124.821 253.006 124.764L252.249 124.702L252.225 124.699ZM252.656 122.365L252.506 124.287L253.043 124.333C253.394 124.363 253.734 124.206 253.933 123.923C254.132 123.64 254.16 123.273 254.007 122.96C253.854 122.648 253.543 122.437 253.191 122.408L252.656 122.365Z" fill="#37434E"/>
<path fill-rule="evenodd" clip-rule="evenodd" d="M238.065 129.046C236.259 130.878 237.063 133.38 237.905 134.451L239.449 136.417C240.182 137.434 239.971 138.827 238.97 139.577C237.969 140.326 236.534 140.165 235.717 139.211L233.894 136.895L233.905 136.897C232.657 135.112 232.263 132.89 232.826 130.813L190.433 129.44L189.008 112.955L240.139 115.354L254.2 116.533C255.501 116.643 256.475 117.762 256.376 119.033C256.328 119.644 256.034 120.208 255.559 120.603C255.084 120.997 254.466 121.189 253.841 121.137L239.779 119.958" fill="white"/>
<path fill-rule="evenodd" clip-rule="evenodd" d="M237.061 140.285C236.452 140.16 235.907 139.825 235.528 139.34L233.708 137.023C233.688 136.998 233.674 136.97 233.666 136.939C232.48 135.193 232.076 133.052 232.549 131.021L190.429 129.653C190.317 129.649 190.225 129.563 190.216 129.453L188.794 112.976C188.789 112.914 188.811 112.854 188.855 112.81C188.899 112.765 188.96 112.741 189.024 112.743L240.15 115.137L254.22 116.317C255.158 116.371 255.997 116.919 256.411 117.748C256.825 118.576 256.749 119.555 256.212 120.304C255.674 121.052 254.761 121.453 253.827 121.35L239.765 120.172C239.643 120.161 239.551 120.056 239.561 119.936C239.57 119.816 239.677 119.728 239.8 119.738L253.861 120.917C255.041 121.016 256.071 120.161 256.161 119.009C256.251 117.856 255.367 116.841 254.187 116.742L240.124 115.572L189.256 113.185L190.638 129.231L232.835 130.595C232.902 130.597 232.965 130.63 233.006 130.683C233.046 130.736 233.06 130.804 233.043 130.867C232.497 132.876 232.874 135.027 234.076 136.759C234.089 136.778 234.099 136.798 234.106 136.82L235.88 139.076C236.613 139.97 237.937 140.133 238.859 139.443C239.781 138.753 239.962 137.463 239.266 136.541L237.721 134.577C236.79 133.393 236.013 130.802 237.897 128.887C237.951 128.832 238.032 128.809 238.109 128.828C238.186 128.847 238.247 128.904 238.269 128.979C238.291 129.053 238.271 129.133 238.217 129.188C236.526 130.907 237.229 133.243 238.069 134.311L239.613 136.278C240.255 137.091 240.336 138.198 239.818 139.081C239.3 139.964 238.285 140.449 237.247 140.31C237.185 140.308 237.115 140.296 237.061 140.285Z" fill="#37434E"/>
<path fill-rule="evenodd" clip-rule="evenodd" d="M236.063 137.82L236.527 138.411C236.936 138.93 237.695 139.031 238.223 138.637C238.476 138.448 238.641 138.167 238.682 137.856C238.722 137.546 238.635 137.231 238.438 136.981L237.975 136.391L236.063 137.82Z" fill="white"/>
<path fill-rule="evenodd" clip-rule="evenodd" d="M237.202 139.063C236.866 138.995 236.565 138.809 236.355 138.541L235.891 137.951C235.855 137.905 235.839 137.848 235.846 137.791C235.853 137.734 235.883 137.683 235.929 137.648L237.84 136.218C237.887 136.184 237.946 136.169 238.004 136.177C238.063 136.185 238.116 136.215 238.152 136.26L238.615 136.851C238.981 137.316 239.015 137.951 238.7 138.445C238.385 138.938 237.788 139.184 237.202 139.063ZM236.375 137.861L236.704 138.28C236.92 138.555 237.269 138.698 237.618 138.655C237.968 138.611 238.266 138.389 238.4 138.07C238.533 137.752 238.482 137.387 238.266 137.112L237.936 136.694L236.375 137.861Z" fill="#37434E"/>
<path fill-rule="evenodd" clip-rule="evenodd" d="M253.214 117.579L253.971 117.642C254.636 117.698 255.134 118.27 255.083 118.921C255.032 119.571 254.452 120.053 253.786 119.998L253.032 119.934L253.214 117.579Z" fill="white"/>
<path fill-rule="evenodd" clip-rule="evenodd" d="M252.986 120.141C252.875 120.12 252.799 120.02 252.807 119.911L252.996 117.549C253 117.492 253.027 117.439 253.071 117.402C253.116 117.365 253.174 117.348 253.232 117.353L253.989 117.416C254.498 117.459 254.948 117.764 255.169 118.216C255.389 118.669 255.348 119.2 255.059 119.609C254.771 120.018 254.279 120.244 253.77 120.201L253.016 120.137L252.986 120.141ZM253.415 117.807L253.266 119.732L253.801 119.776C254.064 119.801 254.324 119.721 254.523 119.554C254.826 119.302 254.942 118.896 254.818 118.524C254.694 118.152 254.354 117.887 253.956 117.854L253.415 117.807Z" fill="#37434E"/>
<path fill-rule="evenodd" clip-rule="evenodd" d="M229.348 137.115L230.062 110.066L220.024 109.618C220.061 110.238 220.017 110.859 219.893 111.467C219.129 115.29 215.386 117.794 211.45 117.116C207.513 116.438 204.815 112.824 205.363 108.964L158.11 106.854C158.108 107.318 158.06 107.781 157.967 108.236C157.197 111.946 153.612 114.41 149.768 113.872C145.924 113.334 143.135 109.978 143.389 106.196L98.1577 104.168C98.1317 104.416 98.0966 104.664 98.0459 104.912C97.2969 108.497 93.9093 110.935 90.1747 110.577C86.44 110.219 83.5486 107.178 83.4563 103.513L72.1274 103.007L79.0301 85.1906C75.6907 85.3406 72.6453 83.2714 71.6131 80.151C70.581 77.0307 71.821 73.6421 74.6332 71.8983C67.0863 69.2695 57.1485 65.754 56.7973 65.3318L52.1494 76.1354C52.5185 76.157 52.8858 76.205 53.2483 76.2792C56.309 76.9061 58.6525 79.3466 59.0983 82.3715C59.5442 85.3964 57.9957 88.3497 55.2328 89.7437C52.4699 91.1378 49.0918 90.6704 46.8001 88.5768L41.1969 101.596C40.2114 103.874 39.6853 106.321 39.6472 108.802C42.1266 109.424 44.1121 111.254 44.8944 113.639C45.6767 116.023 45.1443 118.622 43.4872 120.507C47.0201 125.294 52.5892 128.253 58.5955 128.533L70.3714 129.126C69.7456 126.258 70.9532 123.32 73.4269 121.694C75.9005 120.068 79.1487 120.077 81.6456 121.716C84.1425 123.354 85.3919 126.298 84.8069 129.164C84.7592 129.396 84.6994 129.622 84.6314 129.843L96.6802 130.448L94.1604 149.815L138.633 152.692L134.043 132.33L161.475 133.708C160.7 130.713 161.952 127.585 164.591 125.924C167.23 124.263 170.674 124.436 173.16 126.354C175.647 128.273 176.627 131.513 175.599 134.417L229.348 137.115Z" fill="white"/>
<path fill-rule="evenodd" clip-rule="evenodd" d="M93.9118 150.232C93.863 150.222 93.8191 150.195 93.7871 150.157C93.7477 150.111 93.7298 150.051 93.7377 149.991L96.2255 130.858L84.4179 130.265C84.3498 130.261 84.2868 130.227 84.2473 130.172C84.2074 130.117 84.1958 130.047 84.2161 129.983C84.2837 129.764 84.3405 129.542 84.3851 129.324C84.9556 126.543 83.7447 123.686 81.3217 122.094C78.8988 120.503 75.7459 120.495 73.3455 122.074C70.9451 123.653 69.7748 126.504 70.3849 129.288C70.3988 129.353 70.3813 129.421 70.3375 129.471C70.2937 129.522 70.2284 129.549 70.1605 129.546L58.3824 128.964C52.313 128.675 46.6857 125.688 43.1083 120.854C43.0471 120.773 43.0512 120.661 43.1182 120.585C44.7252 118.757 45.2414 116.237 44.4826 113.924C43.7238 111.611 41.7982 109.836 39.3934 109.233C39.294 109.208 39.2242 109.12 39.225 109.02C39.2615 106.51 39.7934 104.035 40.7915 101.731L46.3947 88.7121C46.4225 88.6473 46.481 88.6001 46.5515 88.5857C46.6218 88.5713 46.6951 88.5913 46.7482 88.6393C48.972 90.6632 52.2444 91.1119 54.9199 89.7598C57.5954 88.4076 59.0951 85.5472 58.6649 82.6168C58.2348 79.6863 55.9679 77.3199 53.004 76.7074C52.6532 76.6355 52.2976 76.5891 51.9402 76.5686C51.8685 76.5643 51.8031 76.5263 51.7648 76.4666C51.7258 76.4066 51.7192 76.332 51.7471 76.2669L56.3945 65.4655C56.4244 65.3951 56.4903 65.3458 56.5678 65.3359C56.6472 65.3243 56.7271 65.3559 56.7765 65.4183C56.9593 65.5725 59.0743 66.5391 74.5003 71.9155C74.5807 71.943 74.6383 72.013 74.6484 72.0956C74.6559 72.1755 74.6175 72.2524 74.5488 72.2954C71.8265 73.9904 70.6281 77.2749 71.6286 80.2991C72.629 83.3232 75.5781 85.3307 78.8149 85.1909C78.8899 85.1872 78.962 85.2211 79.0063 85.2808C79.0503 85.3401 79.0608 85.4169 79.0345 85.4848L72.2388 103.021L83.2602 103.519C83.3745 103.519 83.4706 103.605 83.4815 103.716C83.5426 107.293 86.3542 110.274 89.9976 110.624C93.6409 110.974 96.9408 108.582 97.6453 105.079C97.694 104.841 97.7297 104.6 97.7524 104.359C97.7633 104.245 97.8627 104.16 97.9793 104.165L143.224 106.185C143.284 106.188 143.34 106.214 143.38 106.259C143.42 106.302 143.441 106.36 143.438 106.418C143.266 108.957 144.522 111.4 146.715 112.793C148.908 114.187 151.691 114.311 153.98 113.117C156.268 111.924 157.7 109.601 157.716 107.055C157.715 106.997 157.739 106.941 157.784 106.902C157.827 106.861 157.885 106.84 157.945 106.842L205.175 108.952C205.237 108.955 205.295 108.983 205.336 109.03C205.376 109.077 205.394 109.138 205.386 109.198C205.03 111.828 206.232 114.442 208.486 115.944C210.741 117.446 213.66 117.576 216.018 116.281C218.376 114.985 219.767 112.487 219.606 109.834C219.603 109.773 219.625 109.714 219.669 109.671C219.713 109.628 219.773 109.605 219.835 109.608L229.874 110.054C229.996 110.059 230.092 110.16 230.088 110.279L229.371 137.327C229.37 137.385 229.345 137.44 229.302 137.479C229.258 137.518 229.201 137.538 229.141 137.535L175.391 134.835C175.322 134.832 175.258 134.797 175.219 134.74C175.179 134.684 175.168 134.612 175.191 134.548C176.045 132.09 175.427 129.359 173.588 127.46C171.748 125.561 168.991 124.81 166.434 125.51C163.877 126.209 161.943 128.245 161.416 130.792C161.206 131.804 161.231 132.853 161.489 133.859C161.507 133.925 161.493 133.994 161.45 134.047C161.406 134.1 161.339 134.128 161.27 134.125L134.119 132.76L138.645 152.849C138.663 152.915 138.649 152.984 138.607 153.037C138.561 153.088 138.494 153.115 138.425 153.11L93.9448 150.236L93.9118 150.232ZM96.5183 130.442C96.5671 130.452 96.6111 130.478 96.6431 130.516C96.6833 130.562 96.702 130.623 96.6946 130.683L94.206 149.821L138.151 152.664L133.626 132.575C133.612 132.51 133.629 132.442 133.673 132.391C133.717 132.34 133.783 132.312 133.851 132.315L160.996 133.679C160.784 132.696 160.779 131.683 160.983 130.703C161.805 126.691 165.805 124.122 169.916 124.965C174.027 125.808 176.692 129.743 175.87 133.755C175.824 133.979 175.767 134.2 175.698 134.418L228.941 137.093L229.643 110.478L220.062 110.055C220.147 112.825 218.649 115.395 216.176 116.723C213.703 118.05 210.666 117.914 208.3 116.368C205.934 114.823 204.632 112.126 204.923 109.374L158.126 107.282C158.112 107.686 158.064 108.088 157.983 108.484C157.211 112.275 153.581 114.819 149.649 114.328C145.716 113.836 142.802 110.474 142.957 106.606L98.1422 104.604C98.1192 104.793 98.0893 104.983 98.0516 105.167C97.2977 108.832 93.864 111.347 90.0441 111.033C86.2243 110.718 83.2152 107.672 83.0271 103.929L71.9039 103.433C71.8327 103.43 71.767 103.393 71.7275 103.335C71.688 103.277 71.6795 103.203 71.7047 103.139L78.4913 85.6245C76.2055 85.6206 74.033 84.6114 72.575 82.8764C71.1171 81.1413 70.5283 78.8645 70.9718 76.676C71.3377 74.8548 72.3979 73.2437 73.9385 72.1681C60.5677 67.5105 57.473 66.2593 56.7007 65.8653L52.2729 76.1567C52.5469 76.1839 52.8195 76.2251 53.0894 76.28C56.2052 76.9172 58.6042 79.3808 59.1014 82.454C59.5986 85.5271 58.0888 88.5596 55.3177 90.0536C52.5467 91.5475 49.1007 91.1869 46.6818 89.1498L41.1969 101.9C40.2436 104.1 39.7254 106.459 39.6694 108.855C42.1465 109.538 44.1149 111.396 44.9012 113.793C45.6875 116.19 45.1852 118.802 43.5661 120.735C47.0714 125.383 52.5267 128.249 58.4019 128.527L69.8989 129.105C69.7341 128.195 69.7457 127.265 69.933 126.363C70.4252 123.729 72.3348 121.574 74.9281 120.724C77.5214 119.875 80.395 120.464 82.4448 122.266C84.4946 124.067 85.4018 126.8 84.8178 129.415C84.7883 129.559 84.7584 129.705 84.7155 129.848L96.4828 130.439L96.5183 130.442Z" fill="#37434E"/>
<path fill-rule="evenodd" clip-rule="evenodd" d="M215.451 194.712L224.225 184.979L205.7 167.717L196.162 177.566L215.451 194.712Z" fill="white"/>
<path fill-rule="evenodd" clip-rule="evenodd" d="M215.406 194.926C215.368 194.918 215.332 194.9 215.302 194.874L196.024 177.729C195.979 177.69 195.952 177.635 195.949 177.577C195.948 177.519 195.97 177.463 196.01 177.422L205.548 167.57C205.588 167.53 205.643 167.506 205.701 167.505C205.76 167.503 205.817 167.524 205.86 167.564L224.377 184.824C224.464 184.904 224.47 185.037 224.392 185.124L215.626 194.859C215.587 194.902 215.532 194.928 215.473 194.931C215.451 194.932 215.428 194.931 215.406 194.926ZM196.477 177.557L215.432 194.407L223.92 184.992L205.705 168.023L196.477 177.557Z" fill="#37434E"/>
<path fill-rule="evenodd" clip-rule="evenodd" d="M272.049 185.884L227.262 143.984L231.806 138.98L277.084 180.571L272.049 185.884Z" fill="white"/>
<path fill-rule="evenodd" clip-rule="evenodd" d="M271.999 186.097C271.959 186.089 271.921 186.07 271.891 186.042L227.103 144.142C227.017 144.061 227.011 143.928 227.09 143.842L231.634 138.84C231.674 138.797 231.73 138.771 231.789 138.769C231.849 138.767 231.907 138.788 231.95 138.828L277.226 180.416C277.315 180.498 277.32 180.634 277.238 180.721L272.196 186.032C272.156 186.073 272.1 186.098 272.042 186.099C272.028 186.1 272.013 186.099 271.999 186.097ZM227.56 143.976L272.029 185.577L276.763 180.584L231.814 139.294L227.56 143.976Z" fill="#37434E"/>
<path fill-rule="evenodd" clip-rule="evenodd" d="M225.312 178.744C225.489 174.129 231.295 173.875 227.091 167.557C222.887 161.24 219.927 158.393 217.874 159.369C216.291 160.123 213.351 162.269 211.308 161.546L205.7 167.719L224.223 184.99L226.571 182.544C226.706 182.402 226.853 182.269 226.993 182.137C226.024 181.568 225.251 180.562 225.312 178.744Z" fill="white"/>
<path fill-rule="evenodd" clip-rule="evenodd" d="M224.183 185.203C224.142 185.195 224.104 185.176 224.074 185.148L205.549 167.886C205.462 167.806 205.455 167.673 205.534 167.586L211.142 161.413C211.201 161.348 211.295 161.324 211.38 161.354C212.894 161.884 215.038 160.692 216.601 159.816C217.029 159.576 217.435 159.349 217.777 159.177C219.875 158.177 222.805 160.727 227.276 167.443C229.969 171.488 228.658 173.162 227.271 174.93C226.448 175.982 225.598 177.067 225.533 178.758C225.476 180.24 226.005 181.313 227.105 181.944C227.166 181.979 227.206 182.039 227.214 182.107C227.222 182.175 227.196 182.243 227.145 182.289C226.987 182.433 226.863 182.564 226.734 182.685L224.387 185.131C224.347 185.172 224.292 185.197 224.233 185.198C224.217 185.202 224.2 185.204 224.183 185.203ZM206.008 167.718L224.216 184.686L226.412 182.396C226.481 182.325 226.555 182.25 226.637 182.172C225.552 181.44 225.032 180.288 225.082 178.745C225.154 176.923 226.086 175.731 226.909 174.68C228.257 172.959 229.419 171.475 226.897 167.685C222.633 161.28 219.795 158.703 217.964 159.574C217.639 159.728 217.239 159.954 216.818 160.191C215.224 161.083 213.058 162.283 211.371 161.803L206.008 167.718Z" fill="#37434E"/>
<path fill-rule="evenodd" clip-rule="evenodd" d="M231.806 138.98L227.262 143.984L272.049 185.884L277.084 180.571L231.806 138.98Z" fill="white"/>
<path fill-rule="evenodd" clip-rule="evenodd" d="M271.999 186.097C271.959 186.089 271.921 186.07 271.891 186.042L227.103 144.142C227.017 144.061 227.011 143.928 227.09 143.842L231.634 138.84C231.674 138.797 231.73 138.771 231.789 138.769C231.849 138.767 231.907 138.788 231.95 138.828L277.226 180.416C277.315 180.498 277.32 180.634 277.238 180.721L272.196 186.032C272.156 186.073 272.1 186.098 272.042 186.099C272.028 186.1 272.013 186.099 271.999 186.097ZM227.56 143.976L272.029 185.577L276.763 180.584L231.814 139.294L227.56 143.976Z" fill="#37434E"/>
<path fill-rule="evenodd" clip-rule="evenodd" d="M227.265 143.987L211.315 161.548C213.358 162.273 216.298 160.127 217.882 159.37C219.935 158.395 222.892 161.243 227.099 167.559C231.306 173.875 225.496 174.131 225.319 178.746C225.25 180.562 226.031 181.57 227.002 182.128C229.891 179.512 234.262 179.206 237.548 181.39L251.849 190.887C257.313 194.518 264.63 193.732 269.078 189.037L272.064 185.888L227.265 143.987Z" fill="#4E556D"/>
<path fill-rule="evenodd" clip-rule="evenodd" d="M256.595 193.093C254.849 192.735 253.19 192.046 251.712 191.063L237.411 181.565C234.216 179.436 229.961 179.736 227.157 182.289C227.086 182.354 226.979 182.365 226.894 182.316C225.643 181.595 225.031 180.393 225.102 178.738C225.173 176.916 226.106 175.724 226.929 174.672C228.277 172.951 229.439 171.467 226.917 167.677C222.653 161.273 219.815 158.695 217.984 159.566C217.659 159.72 217.259 159.946 216.837 160.184C215.198 161.101 212.957 162.357 211.247 161.751C211.177 161.726 211.124 161.669 211.106 161.599C211.086 161.53 211.101 161.457 211.147 161.402L227.098 143.842C227.138 143.799 227.193 143.773 227.253 143.771C227.313 143.768 227.371 143.79 227.414 143.83L272.202 185.73C272.29 185.812 272.294 185.948 272.212 186.034L269.228 189.184C266.027 192.563 261.238 194.045 256.597 193.093L256.595 193.093ZM234.504 179.892C235.635 180.125 236.709 180.574 237.666 181.213L251.967 190.71C257.338 194.279 264.531 193.51 268.908 188.898L271.745 185.901L227.274 144.297L211.71 161.429C213.195 161.714 215.15 160.62 216.604 159.805C217.032 159.565 217.437 159.338 217.78 159.166C219.878 158.166 222.808 160.716 227.278 167.432C229.972 171.477 228.66 173.151 227.273 174.919C226.451 175.971 225.601 177.056 225.536 178.747C225.482 180.166 225.963 181.209 226.969 181.849C229.01 180.063 231.806 179.337 234.504 179.892Z" fill="#37434E"/>
<path fill-rule="evenodd" clip-rule="evenodd" d="M237.498 181.599C237.383 181.576 237.306 181.47 237.322 181.356L240.712 156.744C240.729 156.625 240.841 156.544 240.962 156.561C241.083 156.579 241.167 156.689 241.151 156.807L237.76 181.42C237.753 181.477 237.722 181.528 237.675 181.562C237.628 181.596 237.569 181.611 237.511 181.602L237.498 181.599Z" fill="#37434E"/>
<path fill-rule="evenodd" clip-rule="evenodd" d="M244.614 186.33C244.495 186.306 244.417 186.191 244.441 186.074L247.941 163.501C247.965 163.385 248.081 163.31 248.201 163.334C248.316 163.358 248.394 163.466 248.376 163.58L244.876 186.153C244.868 186.211 244.834 186.263 244.785 186.297C244.735 186.33 244.674 186.342 244.614 186.33Z" fill="#37434E"/>
<path fill-rule="evenodd" clip-rule="evenodd" d="M251.792 191.096C251.672 191.071 251.594 190.957 251.618 190.84L255.8 170.841C255.824 170.724 255.941 170.649 256.06 170.674C256.18 170.698 256.257 170.813 256.233 170.929L252.052 190.927C252.041 190.983 252.007 191.033 251.958 191.065C251.91 191.097 251.849 191.108 251.792 191.096Z" fill="#37434E"/>
<path fill-rule="evenodd" clip-rule="evenodd" d="M74.5068 57.4996L79.4914 44.6464C79.9529 43.4573 81.3163 42.8682 82.537 43.3305C83.1235 43.5522 83.598 43.9921 83.856 44.5531C84.1139 45.1142 84.134 45.7503 83.912 46.3214L78.9273 59.1746" fill="white"/>
<path fill-rule="evenodd" clip-rule="evenodd" d="M78.8876 59.3848L78.853 59.3777C78.7978 59.3573 78.7531 59.3162 78.7287 59.2636C78.7044 59.2111 78.7023 59.1514 78.7231 59.0978L83.7099 46.2451C83.9807 45.5476 83.849 44.7582 83.3644 44.1744C82.8798 43.5905 82.1159 43.3008 81.3605 43.4144C80.6051 43.528 79.9729 44.0277 79.7021 44.7252L74.7153 57.5779C74.687 57.6508 74.621 57.7031 74.5421 57.715C74.4632 57.7269 74.3834 57.6967 74.3327 57.6357C74.282 57.5747 74.2682 57.4923 74.2965 57.4194L79.2833 44.5666C79.5924 43.7026 80.3582 43.0751 81.2835 42.9275C82.2087 42.7799 83.1478 43.1355 83.7365 43.8563C84.3251 44.5771 84.4706 45.5497 84.1166 46.3967L79.1298 59.2495C79.0929 59.3456 78.9916 59.4023 78.8876 59.3848Z" fill="#37434E"/>
<path fill-rule="evenodd" clip-rule="evenodd" d="M74.5092 57.4982L79.4938 44.645C79.7159 44.0739 79.6957 43.4378 79.4378 42.8767C79.1799 42.3157 78.7054 41.8758 78.1189 41.6541C76.8982 41.1918 75.5348 41.7808 75.0733 42.97L70.0887 55.8232L64.3109 68.538L79.8786 73.994L84.6055 60.9668L88.3371 47.9955C88.5591 47.4244 88.539 46.7882 88.2811 46.2272C88.0231 45.6662 87.5486 45.2263 86.9621 45.0046C85.7414 44.5423 84.378 45.1313 83.9165 46.3205L78.9319 59.1737" fill="white"/>
<path fill-rule="evenodd" clip-rule="evenodd" d="M79.8305 74.2043L79.8002 74.1981L64.2347 68.7425C64.1768 68.7219 64.1301 68.6788 64.1057 68.6235C64.0806 68.5679 64.0804 68.5047 64.1052 68.4494L69.883 55.7346L74.865 42.8941C75.1742 42.0301 75.94 41.4025 76.8652 41.255C77.7905 41.1074 78.7296 41.463 79.3182 42.1838C79.9069 42.9046 80.0524 43.8772 79.6983 44.7242L74.7115 57.577C74.6833 57.6499 74.6173 57.7021 74.5383 57.714C74.4594 57.726 74.3796 57.6957 74.3289 57.6347C74.2782 57.5738 74.2644 57.4913 74.2927 57.4184L79.2795 44.5657C79.6981 43.4874 79.1403 42.2731 78.0336 41.8534C76.9269 41.4337 75.6903 41.9675 75.2717 43.0458L70.2849 55.8985L64.6003 68.4122L79.7318 73.7171L84.392 60.8943L88.1206 47.9377C88.3948 47.2413 88.2668 46.4512 87.7848 45.865C87.3029 45.2788 86.5401 44.9856 85.784 45.0958C85.0278 45.206 84.3931 45.7028 84.1189 46.3992L79.1321 59.252C79.0884 59.3647 78.9592 59.4205 78.8436 59.3767C78.7279 59.333 78.6696 59.2061 78.7132 59.0934L83.7 46.2407C84.0092 45.3767 84.775 44.7491 85.7002 44.6016C86.6255 44.454 87.5646 44.8096 88.1533 45.5304C88.7419 46.2512 88.8874 47.2238 88.5333 48.0708L84.8074 61.0257L80.0844 74.0669C80.0476 74.1688 79.939 74.2276 79.8305 74.2043Z" fill="#37434E"/>
<path fill-rule="evenodd" clip-rule="evenodd" d="M126.804 92.5035L120.831 105.403C120.831 105.403 103.634 113.849 108.629 103.057L113.624 92.2745" fill="white"/>
<path fill-rule="evenodd" clip-rule="evenodd" d="M109.48 108.665C108.989 108.582 108.531 108.364 108.16 108.036C107.199 107.132 107.285 105.434 108.425 102.969L113.42 92.1777C113.471 92.0665 113.605 92.0175 113.719 92.0683C113.833 92.1191 113.885 92.2504 113.834 92.3616L108.839 103.153C107.786 105.426 107.664 106.965 108.476 107.728C109.462 108.655 111.879 108.521 115.467 107.345C117.244 106.749 118.98 106.049 120.668 105.246L126.607 92.4149C126.631 92.3628 126.676 92.3225 126.731 92.3028C126.785 92.283 126.846 92.2855 126.9 92.3096C126.953 92.3337 126.995 92.3775 127.016 92.4313C127.036 92.4851 127.034 92.5446 127.01 92.5966L121.032 105.495C121.012 105.539 120.977 105.576 120.932 105.598C119.205 106.423 117.425 107.142 115.605 107.752C112.892 108.645 110.846 108.946 109.48 108.665Z" fill="#37434E"/>
<path fill-rule="evenodd" clip-rule="evenodd" d="M136.149 77.3682C135.915 72.2535 132.285 67.8599 127.212 66.5526C122.139 65.2452 116.821 67.3325 114.12 71.6909C113.709 72.3554 105.163 91.6253 105.113 91.9234L105.11 91.9382C105.082 92.0932 105.074 92.2514 105.086 92.4089C105.388 95.3693 109.386 99.5565 128.995 93.0758C128.995 93.0758 131.995 91.9599 132.689 86.0675C135.048 83.7854 136.304 80.6269 136.149 77.3682Z" fill="white"/>
<path fill-rule="evenodd" clip-rule="evenodd" d="M109.397 96.4232C108.488 96.257 107.616 95.929 106.826 95.4557C105.364 94.5282 104.948 93.3088 104.858 92.4401C104.845 92.2658 104.853 92.0908 104.884 91.919C104.885 91.8944 104.89 91.8703 104.898 91.8471C105.313 90.7033 113.526 72.2527 113.917 71.5906L113.92 71.5758C116.684 67.1563 122.092 65.0466 127.248 66.3762C132.405 67.7057 136.102 72.163 136.36 77.3617C136.51 80.6528 135.254 83.8436 132.893 86.1697C132.18 92.056 129.202 93.2314 129.074 93.2802C122.617 95.4095 114.475 97.4645 109.397 96.4232ZM105.322 91.9824C105.296 92.1186 105.288 92.2575 105.298 92.396C105.419 93.513 106.075 94.5124 107.066 95.0886C109.433 96.587 115.146 97.4061 128.917 92.8713C128.938 92.8647 131.797 91.6999 132.459 86.041C132.465 85.9924 132.488 85.9473 132.523 85.9133C134.836 83.6715 136.071 80.5745 135.928 77.3766C135.699 72.3568 132.135 68.0447 127.157 66.7616C122.178 65.4786 116.959 67.5275 114.309 71.8053C113.922 72.4352 105.561 91.2121 105.322 91.9824Z" fill="#37434E"/>
<path fill-rule="evenodd" clip-rule="evenodd" d="M138.408 70.8116L163.149 47.5835L184.092 54.4279L138.408 70.8116Z" fill="#9A91FF"/>
<path fill-rule="evenodd" clip-rule="evenodd" d="M138.364 71.0252C138.285 71.0082 138.221 70.9498 138.198 70.8733C138.175 70.7967 138.196 70.7144 138.254 70.6591L162.996 47.4309C163.054 47.3754 163.14 47.3565 163.218 47.3818L184.157 54.2253C184.247 54.254 184.309 54.3357 184.311 54.4283C184.313 54.521 184.254 54.604 184.165 54.6346L138.488 71.0175C138.448 71.0315 138.405 71.0342 138.364 71.0252ZM163.205 47.8327L139.321 70.2545L183.411 54.4381L163.205 47.8327Z" fill="#37434E"/>
<path fill-rule="evenodd" clip-rule="evenodd" d="M138.708 72.6822L182.777 68.4793L166.37 83.3534L138.708 72.6822Z" fill="#9A91FF"/>
<path fill-rule="evenodd" clip-rule="evenodd" d="M163.914 83.4597L163.878 83.4522L136.216 72.7809C136.12 72.7442 136.063 72.6487 136.076 72.5499C136.089 72.4511 136.17 72.3747 136.272 72.3651L180.341 68.1622C180.435 68.1532 180.526 68.2045 180.565 68.2896C180.605 68.3747 180.584 68.4744 180.514 68.537L164.107 83.4132C164.054 83.4577 163.983 83.4749 163.914 83.4597ZM137.234 72.7033L163.907 82.9979L179.73 68.6515L137.234 72.7033Z" fill="#37434E"/>
<path fill-rule="evenodd" clip-rule="evenodd" d="M166.328 83.5663C166.25 83.5501 166.186 83.4942 166.162 83.4198L162.003 70.8172L152.529 78.1249C152.481 78.1616 152.419 78.1768 152.358 78.1669C152.298 78.1573 152.244 78.124 152.21 78.0749L147.994 72.0987L144.161 74.9005C144.064 74.9656 143.931 74.944 143.859 74.8514C143.787 74.7588 143.802 74.6281 143.893 74.5549L147.912 71.6172C147.961 71.5869 148.021 71.5769 148.078 71.5895C148.137 71.6 148.189 71.6321 148.225 71.679L152.434 77.6517L161.975 70.2896C162.032 70.2456 162.107 70.2317 162.177 70.2526C162.247 70.2735 162.302 70.3264 162.324 70.3941L166.589 83.296C166.626 83.4095 166.563 83.5305 166.448 83.5666C166.409 83.5772 166.367 83.5771 166.328 83.5663Z" fill="#37434E"/>
<path fill-rule="evenodd" clip-rule="evenodd" d="M142.358 67.2762C142.238 67.2517 142.161 67.1372 142.185 67.0204C142.208 66.9037 142.325 66.829 142.444 66.8535L146.583 67.5809L148.665 60.9181C148.701 60.8054 148.823 60.7431 148.939 60.7784L157.856 63.5163L162.942 47.5168C162.96 47.4618 162.999 47.4162 163.051 47.3901C163.104 47.364 163.165 47.3597 163.221 47.378L184.16 54.2215C184.276 54.2595 184.341 54.3826 184.303 54.4965C184.265 54.6104 184.14 54.672 184.023 54.634L163.296 47.8602L158.211 63.8555C158.193 63.9101 158.154 63.9554 158.103 63.9815C158.051 64.0077 157.99 64.0124 157.934 63.9948L149.018 61.2548L146.939 67.8918C146.906 67.9979 146.795 68.061 146.684 68.0376L142.349 67.2744L142.358 67.2762Z" fill="#37434E"/>
<path fill-rule="evenodd" clip-rule="evenodd" d="M117.182 80.1229C116.59 80.531 115.907 80.794 115.187 80.8901C114.379 81.0032 113.552 80.9035 112.791 80.6014" fill="white"/>
<path fill-rule="evenodd" clip-rule="evenodd" d="M113.537 81.0487C113.253 80.9905 112.974 80.9069 112.706 80.799C112.651 80.7776 112.607 80.736 112.584 80.6832C112.56 80.6305 112.559 80.571 112.58 80.5179C112.602 80.4647 112.644 80.4222 112.698 80.3998C112.751 80.3773 112.812 80.3767 112.867 80.3982C113.591 80.685 114.378 80.7803 115.148 80.6743C115.833 80.5827 116.484 80.3326 117.047 79.9448C117.096 79.9131 117.155 79.9019 117.213 79.9138C117.271 79.9256 117.322 79.9595 117.354 80.0078C117.421 80.1075 117.394 80.2406 117.293 80.3058C116.674 80.7338 115.957 81.0091 115.203 81.1085C114.649 81.1826 114.086 81.1624 113.537 81.0487Z" fill="#37434E"/>
<path fill-rule="evenodd" clip-rule="evenodd" d="M118.219 72.4453C119.855 73.5128 120.639 75.4636 120.178 77.3201L118.219 72.4453Z" fill="white"/>
<path fill-rule="evenodd" clip-rule="evenodd" d="M120.136 77.5334C120.016 77.5088 119.939 77.3943 119.963 77.2776C120.398 75.5111 119.651 73.6568 118.094 72.6417C118.023 72.601 117.981 72.5253 117.984 72.4451C117.987 72.3648 118.035 72.2934 118.11 72.2596C118.184 72.2258 118.271 72.2352 118.337 72.284C120.043 73.3971 120.866 75.4278 120.396 77.3664C120.372 77.4831 120.255 77.5579 120.136 77.5334Z" fill="#37434E"/>
<path fill-rule="evenodd" clip-rule="evenodd" d="M112.421 75.9557L108.337 78.6488L111.456 79.6783" fill="white"/>
<path fill-rule="evenodd" clip-rule="evenodd" d="M111.413 79.8867L111.389 79.8818L108.271 78.8439C108.191 78.8179 108.132 78.7494 108.12 78.6675C108.111 78.5885 108.147 78.5112 108.213 78.4664L112.296 75.7796C112.397 75.7133 112.534 75.74 112.603 75.8393C112.672 75.9385 112.646 76.0727 112.545 76.139L108.831 78.5887L111.524 79.4778C111.642 79.5093 111.713 79.6283 111.682 79.7436C111.651 79.8588 111.53 79.9267 111.412 79.8952L111.413 79.8867Z" fill="#37434E"/>
<path d="M116.869 76.9151C117.23 76.9891 117.581 76.7634 117.654 76.4109C117.726 76.0584 117.492 75.7126 117.131 75.6385C116.769 75.5644 116.418 75.7902 116.346 76.1427C116.273 76.4952 116.508 76.841 116.869 76.9151Z" fill="#37434E"/>
<path fill-rule="evenodd" clip-rule="evenodd" d="M116.855 77.0216C116.509 76.9511 116.253 76.6614 116.232 76.3168C116.206 75.898 116.532 75.541 116.96 75.519C117.389 75.4977 117.758 75.8195 117.785 76.2388C117.81 76.6583 117.484 77.0153 117.055 77.0383C116.988 77.0413 116.921 77.0356 116.855 77.0216ZM117.115 75.7534C117.068 75.744 117.019 75.74 116.971 75.7415C116.664 75.7566 116.431 76.012 116.449 76.3121C116.467 76.6122 116.73 76.8434 117.037 76.8286C117.344 76.8139 117.578 76.5588 117.56 76.2587C117.551 76.1141 117.484 75.9782 117.373 75.8812C117.302 75.8145 117.215 75.7676 117.119 75.7454L117.115 75.7534Z" fill="#37434E"/>
<path fill-rule="evenodd" clip-rule="evenodd" d="M123.71 66.1805C123.469 66.1884 123.231 66.2057 122.995 66.2301C121.583 68.4675 121.272 71.2141 122.147 73.7204C123.022 76.2266 124.991 78.2311 127.517 79.1869C125.818 80.6455 125.529 83.1336 126.849 84.9546C128.169 86.7757 130.672 87.3429 132.65 86.2696C132.663 86.2062 132.676 86.147 132.676 86.0788C133.575 85.2075 134.324 84.1997 134.895 83.0936C135.697 81.5407 136.126 79.8263 136.148 78.0802C136.153 77.8477 136.151 77.6161 136.139 77.38C135.812 70.9718 130.263 65.9713 123.71 66.1805Z" fill="#9A91FF"/>
<path fill-rule="evenodd" clip-rule="evenodd" d="M129.585 86.9091C127.915 86.5678 126.558 85.3655 126.046 83.7723C125.534 82.1791 125.948 80.448 127.126 79.2558C124.634 78.2049 122.725 76.1471 121.898 73.6214C121.071 71.0957 121.41 68.3536 122.825 66.1131C122.86 66.0562 122.921 66.019 122.99 66.0126C123.25 65.9888 123.488 65.9716 123.717 65.9636C130.397 65.744 136.057 70.8393 136.39 77.3716C136.399 77.5936 136.403 77.8279 136.397 78.0845C136.366 79.8611 135.918 81.6032 135.089 83.1769C134.523 84.2811 133.784 85.2902 132.896 86.1675L132.887 86.214L132.872 86.2837C132.863 86.3516 132.822 86.4109 132.761 86.4436C131.792 86.9649 130.662 87.1291 129.574 86.9069L129.585 86.9091ZM123.135 66.4256C121.793 68.6092 121.515 71.2715 122.377 73.6952C123.239 76.1188 125.152 78.0546 127.6 78.9808C127.672 79.0077 127.725 79.0695 127.74 79.1439C127.756 79.2204 127.729 79.2989 127.668 79.3495C126.331 80.5124 125.901 82.3829 126.597 84.011C127.293 85.6391 128.962 86.6678 130.757 86.5746C131.351 86.5448 131.93 86.391 132.456 86.1235L132.472 86.0474C132.478 85.9988 132.501 85.9537 132.536 85.9197C133.419 85.0648 134.155 84.0758 134.717 82.9904C135.506 81.467 135.928 79.7842 135.951 78.0701C135.954 77.8241 135.951 77.5987 135.941 77.383C135.616 71.0915 130.163 66.1864 123.729 66.3999C123.531 66.3968 123.337 66.4098 123.128 66.4285L123.135 66.4256Z" fill="#37434E"/>
<path fill-rule="evenodd" clip-rule="evenodd" d="M127.198 86.4705C128.626 85.2591 130.673 85.0288 132.365 85.8893C134.057 86.7498 135.051 88.527 134.874 90.3747C134.697 92.2224 133.385 93.7669 131.562 94.2727C129.739 94.7785 127.774 94.1433 126.604 92.6697" fill="white"/>
<path fill-rule="evenodd" clip-rule="evenodd" d="M129.29 94.5383C128.155 94.3059 127.139 93.6859 126.424 92.7899C126.348 92.6954 126.365 92.5598 126.461 92.4871C126.557 92.4143 126.696 92.4319 126.771 92.5264C128.065 94.1587 130.347 94.6846 132.227 93.7837C134.108 92.8829 135.066 90.8048 134.518 88.8153C133.97 86.8259 132.067 85.4762 129.97 85.5883C128.995 85.6338 128.068 85.9982 127.336 86.6231C127.292 86.6607 127.234 86.6792 127.175 86.6746C127.116 86.67 127.061 86.6426 127.023 86.5985C126.943 86.5078 126.953 86.372 127.045 86.2946C127.852 85.6072 128.874 85.2065 129.948 85.1565C131.841 85.0424 133.639 86.0172 134.552 87.6526C135.466 89.2879 135.327 91.2845 134.197 92.7648C133.066 94.245 131.152 94.938 129.294 94.5392L129.29 94.5383Z" fill="#37434E"/>
<path fill-rule="evenodd" clip-rule="evenodd" d="M129.285 92.75L129.236 92.7398C129.141 92.6963 129.089 92.5938 129.112 92.4942C129.113 92.4784 129.116 92.4627 129.122 92.4477C129.733 91.1247 129.129 89.5569 127.771 88.9442C127.676 88.9007 127.624 88.7982 127.647 88.6986C127.65 88.6822 127.653 88.666 127.657 88.65C127.681 88.598 127.726 88.5577 127.781 88.5379C127.835 88.5182 127.896 88.5207 127.95 88.5448C129.309 89.1556 130.906 88.5794 131.52 87.2572C131.557 87.1433 131.683 87.0817 131.8 87.1196C131.916 87.1576 131.981 87.2807 131.943 87.3946C131.942 87.4105 131.939 87.4261 131.933 87.4411C131.637 88.0763 131.612 88.8032 131.865 89.4615C132.117 90.1197 132.626 90.6553 133.279 90.9501C133.374 90.9936 133.426 91.0961 133.402 91.1957C133.4 91.2121 133.397 91.2283 133.392 91.2443C133.368 91.2963 133.324 91.3366 133.269 91.3564C133.214 91.3761 133.153 91.3736 133.1 91.3495C131.741 90.7387 130.143 91.3149 129.53 92.6371C129.485 92.7252 129.384 92.7717 129.285 92.75ZM128.921 89.224C129.523 89.8382 129.843 90.6652 129.806 91.511C130.427 90.9276 131.269 90.6224 132.134 90.6669C131.531 90.0539 131.211 89.2274 131.249 88.3821C130.626 88.9639 129.785 89.2683 128.921 89.224Z" fill="#37434E"/>
<path fill-rule="evenodd" clip-rule="evenodd" d="M128.912 89.2216C129.515 89.8357 129.835 90.6628 129.797 91.5086C130.419 90.9252 131.261 90.6199 132.126 90.6645C131.523 90.0515 131.202 89.225 131.24 88.3796C130.618 88.9615 129.777 89.2658 128.912 89.2216Z" fill="#FFF763"/>
<path fill-rule="evenodd" clip-rule="evenodd" d="M69.2151 109.989L69.1761 109.981C69.0636 109.935 69.0086 109.81 69.0532 109.7L71.7229 103.14C71.7683 103.028 71.8986 102.974 72.0139 103.019C72.1292 103.065 72.1859 103.193 72.1404 103.305L69.4629 109.87C69.4197 109.962 69.3166 110.011 69.2151 109.989Z" fill="#37434E"/>
<path fill-rule="evenodd" clip-rule="evenodd" d="M56.5427 117.851C52.4318 117.008 49.7661 113.073 50.5887 109.061C51.4113 105.049 55.4107 102.48 59.5216 103.323C63.6325 104.165 66.2983 108.101 65.4757 112.113C64.6487 116.122 60.6526 118.689 56.5427 117.851ZM59.4349 103.745C55.5632 102.951 51.7965 105.371 51.0218 109.15C50.2471 112.928 52.7577 116.635 56.6294 117.429C60.5011 118.222 64.2678 115.803 65.0425 112.024C65.8121 108.247 63.3037 104.543 59.4349 103.745Z" fill="#37434E"/>
<path d="M183.593 126.314C187.584 127.133 191.467 124.638 192.266 120.743C193.064 116.848 190.476 113.027 186.485 112.208C182.493 111.39 178.61 113.884 177.812 117.78C177.013 121.675 179.601 125.496 183.593 126.314Z" fill="#FFC107"/>
<path fill-rule="evenodd" clip-rule="evenodd" d="M183.551 126.522C179.44 125.679 176.775 121.745 177.596 117.734C178.417 113.722 182.415 111.152 186.525 111.993C190.636 112.833 193.304 116.766 192.485 120.778C191.662 124.791 187.663 127.362 183.551 126.522ZM186.442 112.418C183.606 111.837 180.707 112.98 179.098 115.316C177.489 117.651 177.487 120.717 179.093 123.085C180.699 125.452 183.596 126.654 186.433 126.13C189.27 125.605 191.488 123.457 192.052 120.689C192.817 116.913 190.308 113.215 186.442 112.418Z" fill="#37434E"/>
<path fill-rule="evenodd" clip-rule="evenodd" d="M76.9366 85.4648C73.9092 84.8415 71.5522 82.4901 70.976 79.5183C70.3999 76.5465 71.7194 73.5469 74.3131 71.9325C74.3699 71.8966 74.4406 71.8883 74.505 71.9102C79.12 73.5172 82.8883 74.8074 82.9242 74.8191C82.9813 74.8384 83.0281 74.8795 83.0538 74.933C83.0794 74.9865 83.0818 75.0477 83.0602 75.1025L79.0378 85.4859C79.0071 85.5662 78.9303 85.6205 78.8425 85.6242C78.2036 85.6496 77.5633 85.5961 76.9366 85.4648ZM74.4638 72.3532C72.0561 73.8972 70.8511 76.7168 71.4113 79.4963C71.9714 82.2758 74.1861 84.4674 77.022 85.0483C77.5659 85.16 78.1205 85.2101 78.6749 85.1978L82.5768 75.1487C81.7097 74.8542 78.4062 73.7188 74.4638 72.3532Z" fill="#37434E"/>
<path d="M58.6866 84.8143C59.3543 81.0823 56.8526 77.455 53.0154 76.6682L58.6866 84.8143ZM58.6866 84.8143L58.6513 84.9862C58.1419 87.4707 56.2971 89.4819 53.8235 90.2437C51.3904 90.993 48.7241 90.4175 46.819 88.7401L52.0685 76.5362C52.3865 76.5601 52.7028 76.6042 53.0154 76.6682L58.6866 84.8143Z" fill="#FFC107" stroke="#37434E" stroke-width="0.362019"/>
<path fill-rule="evenodd" clip-rule="evenodd" d="M39.4531 109.015C39.4067 113.208 40.7543 117.316 43.2931 120.72C44.9502 118.835 45.4826 116.236 44.7003 113.852C43.918 111.467 41.9326 109.637 39.4531 109.015Z" fill="#FFC107"/>
<path fill-rule="evenodd" clip-rule="evenodd" d="M43.2438 120.929C43.1901 120.918 43.1424 120.888 43.1099 120.845C40.5455 117.401 39.1803 113.249 39.218 109.008C39.2184 108.943 39.2489 108.882 39.3009 108.842C39.353 108.801 39.421 108.787 39.4861 108.801C42.0387 109.444 44.0821 111.329 44.8876 113.784C45.6931 116.24 45.1459 118.916 43.4413 120.858C43.3971 120.908 43.3316 120.935 43.2637 120.931L43.2438 120.929ZM39.6667 109.296C39.6892 113.252 40.9574 117.116 43.2988 120.364C44.7672 118.55 45.2108 116.133 44.4826 113.914C43.7544 111.695 41.9495 109.964 39.6667 109.296Z" fill="#37434E"/>
<path fill-rule="evenodd" clip-rule="evenodd" d="M78.8346 120.835C76.4003 120.336 73.8846 121.067 72.1418 122.78C70.3989 124.492 69.6631 126.955 70.1842 129.333L84.439 130.054C84.507 129.832 84.5668 129.606 84.6145 129.374C84.9993 127.503 84.6065 125.552 83.5224 123.95C82.4384 122.349 80.752 121.228 78.8346 120.835Z" fill="#FFC107"/>
<path fill-rule="evenodd" clip-rule="evenodd" d="M70.1331 129.542C70.0462 129.524 69.9782 129.457 69.9603 129.372C69.7404 128.378 69.7333 127.353 69.9394 126.36C70.4316 123.726 72.3412 121.57 74.9345 120.721C77.5278 119.871 80.4013 120.461 82.4511 122.262C84.501 124.063 85.4081 126.797 84.8242 129.412C84.7765 129.644 84.728 129.881 84.6448 130.11C84.6162 130.205 84.5251 130.268 84.4239 130.263L70.1669 129.543L70.1331 129.542ZM78.7835 121.044C76.4519 120.568 74.042 121.253 72.3527 122.873C70.6634 124.493 69.9154 126.835 70.3566 129.123L84.2684 129.822C84.3161 129.655 84.3572 129.488 84.391 129.323C85.1606 125.545 82.6522 121.842 78.7835 121.044Z" fill="#37434E"/>
<path fill-rule="evenodd" clip-rule="evenodd" d="M89.1781 110.697C91.0956 111.09 93.0869 110.723 94.7137 109.677C96.3405 108.632 97.4695 106.993 97.852 105.121C97.9027 104.874 97.9378 104.626 97.9638 104.378L83.2616 103.726C83.3337 107.103 85.7929 110 89.1781 110.697Z" fill="#FFC107"/>
<path fill-rule="evenodd" clip-rule="evenodd" d="M89.1349 110.907C85.6548 110.177 83.1266 107.201 83.0356 103.727C83.0339 103.667 83.0578 103.61 83.1014 103.568C83.145 103.527 83.2044 103.505 83.2656 103.508L97.9687 104.166C98.0296 104.169 98.0869 104.195 98.1272 104.24C98.1676 104.285 98.1873 104.344 98.1818 104.404C98.1562 104.66 98.1189 104.919 98.0678 105.169C97.2408 109.178 93.2448 111.745 89.1349 110.907ZM83.486 103.952C83.6812 107.47 86.5214 110.323 90.114 110.608C93.7066 110.893 96.9297 108.523 97.6355 105.076C97.6685 104.915 97.7023 104.75 97.7166 104.581L83.486 103.952Z" fill="#37434E"/>
<path fill-rule="evenodd" clip-rule="evenodd" d="M161.236 134.121C161.153 134.104 161.087 134.042 161.066 133.961C160.791 132.892 160.764 131.779 160.987 130.703C161.81 126.691 165.809 124.122 169.92 124.965C174.031 125.808 176.697 129.743 175.874 133.755C175.808 134.072 175.722 134.385 175.615 134.691C175.583 134.782 175.494 134.841 175.395 134.835L161.272 134.124L161.236 134.121ZM169.834 125.385C165.964 124.595 162.2 127.012 161.421 130.787C161.222 131.747 161.234 132.739 161.456 133.697L175.247 134.391C175.865 132.504 175.627 130.441 174.593 128.721C173.559 127.001 171.828 125.787 169.834 125.385Z" fill="#37434E"/>
<path fill-rule="evenodd" clip-rule="evenodd" d="M161.236 134.121C161.153 134.104 161.087 134.042 161.066 133.961C160.791 132.892 160.764 131.779 160.987 130.703C161.81 126.691 165.809 124.122 169.92 124.965C174.031 125.808 176.697 129.743 175.874 133.755C175.808 134.072 175.722 134.385 175.615 134.691C175.583 134.782 175.494 134.841 175.395 134.835L161.272 134.124L161.236 134.121ZM169.834 125.385C165.964 124.595 162.2 127.012 161.421 130.787C161.222 131.747 161.234 132.739 161.456 133.697L175.247 134.391C175.865 132.504 175.627 130.441 174.593 128.721C173.559 127.001 171.828 125.787 169.834 125.385Z" fill="#37434E"/>
<path fill-rule="evenodd" clip-rule="evenodd" d="M175.483 133.061C175.485 130.048 174.102 127.54 171.747 126.165C169.393 124.79 166.461 125.129 164.32 126.803C162.18 128.476 161.397 129.934 161.458 133.528L175.246 134.218C175.425 133.051 175.127 134.796 175.483 133.061Z" fill="white"/>
<path fill-rule="evenodd" clip-rule="evenodd" d="M149.105 114.01C153.095 114.828 156.978 112.335 157.777 108.441C157.87 107.986 157.918 107.524 157.921 107.059L143.2 106.401C142.949 110.01 145.476 113.265 149.105 114.01Z" fill="#FFC107"/>
<path fill-rule="evenodd" clip-rule="evenodd" d="M149.062 114.222C145.326 113.451 142.726 110.099 142.981 106.383C142.989 106.268 143.09 106.18 143.209 106.186L157.93 106.843C158.049 106.849 158.143 106.946 158.142 107.063C158.139 107.541 158.09 108.018 157.995 108.486C157.168 112.495 153.171 115.061 149.062 114.222ZM143.398 106.625C143.263 110.262 146.006 113.418 149.703 113.88C153.4 114.342 156.814 111.956 157.551 108.395C157.626 108.022 157.672 107.643 157.686 107.262L143.398 106.625Z" fill="#37434E"/>
<path fill-rule="evenodd" clip-rule="evenodd" d="M211.035 117.245C215.026 118.063 218.909 115.569 219.708 111.673C219.832 111.066 219.876 110.444 219.839 109.824L205.178 109.17C204.664 112.93 207.226 116.462 211.035 117.245Z" fill="#FFC107"/>
<path fill-rule="evenodd" clip-rule="evenodd" d="M210.988 117.454C207.068 116.643 204.431 113.008 204.955 109.137C204.975 109.032 205.071 108.958 205.18 108.963L219.841 109.618C219.953 109.624 220.044 109.712 220.052 109.823C220.195 112.122 219.239 114.347 217.463 115.844C215.688 117.34 213.295 117.939 210.985 117.465L210.988 117.454ZM205.369 109.393C205.091 111.988 206.317 114.532 208.547 115.989C210.778 117.446 213.641 117.574 215.971 116.321C218.302 115.067 219.711 112.641 219.625 110.03L205.369 109.393Z" fill="#37434E"/>
<path fill-rule="evenodd" clip-rule="evenodd" d="M212.615 135.564C208.504 134.722 205.837 130.787 206.659 126.775C207.48 122.763 211.479 120.192 215.59 121.034C219.701 121.876 222.368 125.811 221.546 129.823C220.722 133.833 216.726 136.401 212.615 135.564ZM215.507 121.46C212.671 120.877 209.772 122.02 208.162 124.354C206.553 126.689 206.549 129.755 208.154 132.123C209.758 134.491 212.654 135.694 215.491 135.171C218.329 134.648 220.548 132.502 221.113 129.734C221.88 125.958 219.373 122.258 215.507 121.46Z" fill="#37434E"/>
<path fill-rule="evenodd" clip-rule="evenodd" d="M93.9601 150.021L26.5541 171.03C16.9381 174.026 9.76487 181.867 7.77903 191.552C5.84218 200.998 9.12972 210.793 16.4386 217.349L74.4722 269.414L105.207 241.798L62.0305 202.748L97.4834 188.123L137.33 232.109C143.468 238.884 152.107 242.994 161.309 243.516C172.093 244.13 182.498 239.757 189.405 231.708L220.09 195.958L191.909 173.809L165.31 203.719L146.56 183.855L138.433 152.896L93.9601 150.021Z" fill="white"/>
<path fill-rule="evenodd" clip-rule="evenodd" d="M74.4288 269.623C74.39 269.615 74.3542 269.596 74.3244 269.571L16.293 217.507C8.83307 210.815 5.53576 200.785 7.63552 191.169C9.73528 181.554 16.9154 173.805 26.4879 170.822L93.896 149.814C93.9222 149.807 93.9496 149.803 93.977 149.804L138.443 152.679C138.536 152.69 138.612 152.755 138.636 152.843L146.743 183.742L165.283 203.388L191.718 173.66C191.795 173.572 191.93 173.561 192.023 173.634L220.205 195.783C220.251 195.82 220.281 195.873 220.287 195.931C220.293 195.989 220.273 196.046 220.236 196.091L189.578 231.845C183.136 239.348 173.647 243.706 163.582 243.784C153.518 243.861 143.875 239.65 137.168 232.247L97.4275 188.383L62.4225 202.815L105.35 241.627C105.395 241.669 105.421 241.727 105.421 241.787C105.421 241.847 105.395 241.904 105.35 241.944L74.6155 269.56C74.5672 269.609 74.498 269.632 74.4288 269.623ZM93.9921 150.237L26.6269 171.223C17.2051 174.16 10.1382 181.788 8.07129 191.252C6.00433 200.717 9.24889 210.59 16.5906 217.178L74.4713 269.118L104.885 241.79L61.8841 202.91C61.8279 202.86 61.8014 202.785 61.814 202.713C61.8271 202.64 61.8769 202.58 61.9461 202.552L97.3968 187.927C97.4834 187.889 97.5855 187.91 97.6502 187.979L137.498 231.958C144.12 239.266 153.641 243.422 163.577 243.345C173.513 243.268 182.882 238.964 189.24 231.555L219.78 195.971L191.936 174.105L165.477 203.859C165.436 203.905 165.377 203.931 165.314 203.932C165.252 203.933 165.192 203.907 165.149 203.862L146.4 184.009C146.374 183.982 146.356 183.95 146.347 183.914L138.262 153.101L93.9921 150.237Z" fill="#37434E"/>
<path fill-rule="evenodd" clip-rule="evenodd" d="M61.9856 202.957C61.9476 202.95 61.9122 202.933 61.883 202.908L48.0525 190.674C47.9839 190.626 47.9494 190.543 47.9632 190.462C47.9773 190.381 48.0374 190.315 48.1182 190.292C48.199 190.27 48.2864 190.294 48.3436 190.355L62.1658 202.585C62.2565 202.665 62.2638 202.802 62.1823 202.89C62.1328 202.943 62.0589 202.969 61.9856 202.957Z" fill="#37434E"/>
<path fill-rule="evenodd" clip-rule="evenodd" d="M97.4365 188.333C97.343 188.314 97.2725 188.237 97.2618 188.145C97.251 188.052 97.3025 187.963 97.3893 187.925L111.65 181.694C111.722 181.662 111.806 181.671 111.871 181.717C111.935 181.763 111.97 181.838 111.962 181.915C111.954 181.992 111.905 182.059 111.833 182.09L97.5734 188.315C97.5311 188.336 97.4831 188.342 97.4365 188.333Z" fill="#37434E"/>
<path fill-rule="evenodd" clip-rule="evenodd" d="M166.498 205.433C166.447 205.422 166.402 205.394 166.369 205.354L165.136 203.85C165.08 203.791 165.062 203.705 165.091 203.63C165.119 203.554 165.188 203.5 165.27 203.49C165.352 203.481 165.433 203.517 165.48 203.584L166.713 205.088C166.772 205.159 166.779 205.258 166.73 205.336C166.682 205.413 166.589 205.452 166.498 205.433Z" fill="#37434E"/>
<path fill-rule="evenodd" clip-rule="evenodd" d="M96.4366 130.865C96.3218 130.842 96.2447 130.736 96.2608 130.622L96.7982 126.9C96.8062 126.844 96.837 126.792 96.8838 126.758C96.9306 126.724 96.9896 126.71 97.0477 126.718C97.1625 126.741 97.2396 126.848 97.2236 126.961L96.6861 130.683C96.6781 130.74 96.6474 130.791 96.6005 130.825C96.5537 130.86 96.4947 130.874 96.4366 130.865Z" fill="#37434E"/>
<path fill-rule="evenodd" clip-rule="evenodd" d="M133.811 132.753C133.725 132.736 133.656 132.67 133.638 132.585L132.668 128.224C132.643 128.107 132.719 127.994 132.837 127.97C132.895 127.958 132.954 127.969 133.004 128C133.053 128.031 133.088 128.08 133.101 128.137L134.069 132.497C134.094 132.613 134.02 132.727 133.902 132.752C133.872 132.758 133.841 132.759 133.811 132.753Z" fill="#37434E"/>
<path fill-rule="evenodd" clip-rule="evenodd" d="M70.2119 58.6457L77.427 37.9853C77.9177 36.5801 79.4844 35.8409 80.9262 36.3342L91.4462 39.934C92.888 40.4273 93.659 41.9664 93.1683 43.3716L85.9532 64.0321C85.4624 65.4373 83.8958 66.1765 82.454 65.6831L71.934 62.0834C70.4922 61.59 69.7212 60.0509 70.2119 58.6457Z" fill="#EBECF2"/>
<path fill-rule="evenodd" clip-rule="evenodd" d="M83.1524 66.1573C83.0278 66.1317 82.9051 66.0977 82.7851 66.0555L72.0339 62.3579C70.5339 61.8416 69.7342 60.2381 70.2475 58.7761L77.5806 37.8921C77.8269 37.1891 78.3499 36.6135 79.0343 36.2919C79.7186 35.9704 80.5083 35.9293 81.2292 36.1779L91.9674 39.8728C92.6887 40.1204 93.2824 40.6373 93.6178 41.3096C93.9533 41.982 94.0028 42.7546 93.7556 43.4572L86.4311 64.343C85.9608 65.6663 84.5628 66.4399 83.1524 66.1573ZM80.79 36.504C79.5965 36.2609 78.4116 36.9169 78.0177 38.0389L70.6759 58.9212C70.4669 59.5153 70.5087 60.1686 70.7921 60.7372C71.0754 61.3059 71.5772 61.7433 72.1869 61.9532L82.9381 65.6508C84.2071 66.0869 85.5875 65.4383 86.0222 64.2019L93.3579 43.3162C93.7917 42.0794 93.1152 40.7233 91.8466 40.2863L81.1062 36.5909C81.003 36.5545 80.8973 36.5255 80.79 36.504Z" fill="#37434E"/>
<path fill-rule="evenodd" clip-rule="evenodd" d="M71.6406 56.3882L78.0035 38.2712L93.2693 43.5237L86.9064 61.6407L71.6406 56.3882Z" fill="white"/>
<path fill-rule="evenodd" clip-rule="evenodd" d="M87.047 62.0095L87.0189 62.0037L71.2572 56.5806C71.142 56.541 71.0804 56.418 71.1194 56.3057L77.5847 37.8932C77.6038 37.8384 77.6447 37.7936 77.6982 37.7689C77.7509 37.7448 77.8115 37.7421 77.8667 37.7616L93.6375 43.1844C93.6932 43.2035 93.7391 43.2435 93.7649 43.2955C93.7906 43.3475 93.7942 43.4073 93.7748 43.4614L87.3073 61.8735C87.2885 61.9272 87.2486 61.9713 87.1964 61.9961C87.1499 62.0175 87.0971 62.0222 87.047 62.0095ZM71.6145 56.2464L86.944 61.5214L93.2671 43.5159L77.9507 38.2436L71.6145 56.2464Z" fill="#37434E"/>
<path fill-rule="evenodd" clip-rule="evenodd" d="M78.1071 62.808C78.0477 62.7958 77.9892 62.7794 77.9321 62.759C77.229 62.5169 76.8542 61.7651 77.095 61.0798C77.3359 60.3945 78.1011 60.0352 78.8043 60.2773C79.32 60.4538 79.6788 60.916 79.7131 61.448C79.7474 61.9799 79.4504 62.4765 78.9608 62.7056C78.6965 62.8311 78.3964 62.8671 78.1071 62.808ZM78.5487 60.6543C78.2115 60.5856 77.8655 60.7096 77.6561 60.9742C77.4467 61.2388 77.4102 61.5981 77.5619 61.9012C77.7229 62.2232 78.0655 62.4206 78.43 62.4013C78.7945 62.3821 79.1091 62.15 79.2273 61.8132C79.3039 61.594 79.2884 61.3533 79.1841 61.1436C79.0777 60.9328 78.8914 60.7705 78.6652 60.6914L78.5487 60.6543Z" fill="#37434E"/>
<path d="M89.8678 41.2444C90.1202 41.2961 90.3657 41.1384 90.4162 40.8921C90.4667 40.6458 90.3031 40.4042 90.0507 40.3525C89.7983 40.3007 89.5528 40.4585 89.5023 40.7047C89.4518 40.951 89.6155 41.1927 89.8678 41.2444Z" fill="#4D5B67"/>
<path fill-rule="evenodd" clip-rule="evenodd" d="M90.0466 40.3516C89.8068 40.3047 89.5723 40.4463 89.5091 40.6763C89.446 40.9063 89.5755 41.1467 89.8061 41.2273L89.8667 41.2398C90.1067 41.2879 90.3421 41.1468 90.4059 40.9165C90.4698 40.6863 90.3403 40.4453 90.1094 40.3645L90.0466 40.3516Z" fill="#37434E"/>
<path d="M91.5397 41.8201C91.7921 41.8718 92.0376 41.7141 92.0881 41.4678C92.1386 41.2215 91.975 40.9799 91.7226 40.9282C91.4702 40.8764 91.2247 41.0341 91.1742 41.2804C91.1237 41.5267 91.2873 41.7683 91.5397 41.8201Z" fill="#4D5B67"/>
<path fill-rule="evenodd" clip-rule="evenodd" d="M82.005 47.9273C81.8296 47.9586 81.7128 48.126 81.744 48.3014L82.1863 50.7839C82.1905 50.8075 82.2129 50.8231 82.2365 50.8189C82.269 50.8131 82.2958 50.8445 82.285 50.8758L82.284 50.8784C82.2759 50.9018 82.2883 50.9274 82.3118 50.9356L83.812 51.4562C83.9803 51.5146 84.164 51.4255 84.2224 51.2573C84.2808 51.089 84.1917 50.9053 84.0235 50.8469L83.4847 50.6599C83.0467 50.5079 82.7251 50.1311 82.6438 49.6747L82.379 48.1883C82.3478 48.0129 82.1803 47.8961 82.005 47.9273Z" fill="#8276FF"/>
<path d="M81.744 48.3014L81.5865 48.3294L81.744 48.3014ZM83.812 51.4562L83.8645 51.305L83.8645 51.305L83.812 51.4562ZM84.2224 51.2573L84.3736 51.3098L84.2224 51.2573ZM84.0235 50.8469L84.076 50.6957L84.076 50.6957L84.0235 50.8469ZM82.284 50.8784L82.1328 50.8259L82.1328 50.8259L82.284 50.8784ZM82.3118 50.9356L82.3642 50.7843L82.3118 50.9356ZM83.4847 50.6599L83.4322 50.8112L83.4847 50.6599ZM82.285 50.8758L82.4362 50.9282L82.285 50.8758ZM81.9016 48.2733C81.8859 48.185 81.9447 48.1007 82.033 48.0849L81.9769 47.7697C81.7145 47.8165 81.5397 48.0671 81.5865 48.3294L81.9016 48.2733ZM82.3439 50.7558L81.9016 48.2733L81.5865 48.3294L82.0287 50.812L82.3439 50.7558ZM82.4353 50.9309L82.4362 50.9282L82.1337 50.8233L82.1328 50.8259L82.4353 50.9309ZM83.8645 51.305L82.3642 50.7843L82.2593 51.0868L83.7596 51.6074L83.8645 51.305ZM84.0712 51.2048C84.0418 51.2895 83.9493 51.3344 83.8645 51.305L83.7596 51.6074C84.0113 51.6948 84.2863 51.5615 84.3736 51.3098L84.0712 51.2048ZM83.971 50.9981C84.0557 51.0276 84.1006 51.1201 84.0712 51.2048L84.3736 51.3098C84.461 51.058 84.3277 50.7831 84.076 50.6957L83.971 50.9981ZM83.4322 50.8112L83.971 50.9981L84.076 50.6957L83.5372 50.5087L83.4322 50.8112ZM82.2214 48.2163L82.4862 49.7027L82.8014 49.6466L82.5366 48.1602L82.2214 48.2163ZM82.033 48.0849C82.1213 48.0692 82.2057 48.128 82.2214 48.2163L82.5366 48.1602C82.4898 47.8978 82.2393 47.723 81.9769 47.7697L82.033 48.0849ZM82.1328 50.8259C82.0957 50.9329 82.1523 51.0497 82.2593 51.0868L82.3642 50.7843C82.4243 50.8052 82.4561 50.8708 82.4353 50.9309L82.1328 50.8259ZM83.5372 50.5087C83.1539 50.3757 82.8725 50.046 82.8014 49.6466L82.4862 49.7027C82.5776 50.2162 82.9395 50.6402 83.4322 50.8112L83.5372 50.5087ZM82.2645 50.9765C82.1767 50.9922 82.1045 50.9076 82.1337 50.8233L82.4362 50.9282C82.4871 50.7815 82.3613 50.6341 82.2084 50.6613L82.2645 50.9765ZM82.0287 50.812C82.0484 50.9226 82.154 50.9962 82.2645 50.9765L82.2084 50.6613C82.2719 50.65 82.3325 50.6923 82.3439 50.7558L82.0287 50.812Z" fill="#8276FF"/>
<path fill-rule="evenodd" clip-rule="evenodd" d="M85.2821 46.8171C85.4176 46.5912 85.7232 46.5371 85.9087 46.7241C86.5572 47.3781 87.0204 48.2291 87.1941 49.2045C87.6489 51.7576 85.9479 54.196 83.3948 54.6508C80.8416 55.1055 78.4032 53.4045 77.9485 50.8514C77.4937 48.2982 79.1947 45.8598 81.7478 45.4051C82.4824 45.2742 83.2074 45.3218 83.8784 45.5168C84.1327 45.5907 84.2305 45.8872 84.0944 46.1143C83.9872 46.2932 83.7682 46.3675 83.5668 46.3134C83.0385 46.1714 82.4713 46.1405 81.8971 46.2428C79.8066 46.6151 78.4138 48.6117 78.7862 50.7021C79.1585 52.7926 81.1551 54.1854 83.2455 53.8131C85.336 53.4407 86.7288 51.4442 86.3564 49.3537C86.219 48.5823 85.8605 47.9059 85.3577 47.3782C85.2131 47.2264 85.1744 46.997 85.2821 46.8171Z" fill="#8276FF"/>
<path d="M83.8784 45.5168L83.8189 45.7218L83.8784 45.5168ZM85.3577 47.3782L85.2032 47.5254L85.3577 47.3782ZM85.9087 46.7241L86.0602 46.5738L85.9087 46.7241ZM87.4043 49.167C87.2227 48.1476 86.7383 47.2576 86.0602 46.5738L85.7571 46.8744C86.3761 47.4986 86.8181 48.3106 86.984 49.2419L87.4043 49.167ZM83.4322 54.8609C86.1014 54.3854 87.8797 51.8362 87.4043 49.167L86.984 49.2419C87.4181 51.679 85.7944 54.0065 83.3573 54.4406L83.4322 54.8609ZM77.7383 50.8888C78.2138 53.558 80.763 55.3363 83.4322 54.8609L83.3573 54.4406C80.9202 54.8747 78.5927 53.251 78.1586 50.8139L77.7383 50.8888ZM81.7104 45.1949C79.0412 45.6704 77.2629 48.2196 77.7383 50.8888L78.1586 50.8139C77.7245 48.3769 79.3482 46.0493 81.7853 45.6152L81.7104 45.1949ZM83.938 45.3118C83.2362 45.1079 82.4779 45.0582 81.7104 45.1949L81.7853 45.6152C82.4868 45.4902 83.1786 45.5357 83.8189 45.7218L83.938 45.3118ZM81.9345 46.4529C82.4773 46.3562 83.0127 46.3855 83.5114 46.5195L83.6222 46.1072C83.0642 45.9573 82.4654 45.9247 81.8596 46.0326L81.9345 46.4529ZM78.9963 50.6647C78.6446 48.6903 79.9601 46.8046 81.9345 46.4529L81.8596 46.0326C79.6531 46.4257 78.183 48.533 78.576 50.7396L78.9963 50.6647ZM83.2081 53.6029C81.2337 53.9546 79.348 52.6391 78.9963 50.6647L78.576 50.7396C78.9691 52.9461 81.0764 54.4162 83.283 54.0232L83.2081 53.6029ZM86.1463 49.3911C86.498 51.3655 85.1825 53.2512 83.2081 53.6029L83.283 54.0232C85.4895 53.6301 86.9596 51.5228 86.5666 49.3162L86.1463 49.3911ZM85.2032 47.5254C85.678 48.0238 86.0165 48.6623 86.1463 49.3911L86.5666 49.3162C86.4216 48.5024 86.0431 47.7881 85.5123 47.231L85.2032 47.5254ZM83.8189 45.7218C83.9227 45.7519 83.9844 45.8827 83.9113 46.0046L84.2775 46.224C84.4767 45.8917 84.3427 45.4294 83.938 45.3118L83.8189 45.7218ZM85.5123 47.231C85.4255 47.1399 85.4127 47.0144 85.4652 46.9269L85.0991 46.7074C84.936 46.9795 85.0007 47.3129 85.2032 47.5254L85.5123 47.231ZM83.9113 46.0046C83.8591 46.0917 83.7432 46.1397 83.6222 46.1072L83.5114 46.5195C83.7933 46.5952 84.1153 46.4946 84.2775 46.224L83.9113 46.0046ZM86.0602 46.5738C85.7651 46.2763 85.2974 46.3765 85.0991 46.7074L85.4652 46.9269C85.5377 46.8059 85.6812 46.7979 85.7571 46.8744L86.0602 46.5738Z" fill="#8276FF"/>
<path fill-rule="evenodd" clip-rule="evenodd" d="M91.7267 40.93C91.4814 40.8673 91.2318 41.008 91.1658 41.2461C91.0997 41.4843 91.2415 41.7321 91.4845 41.8032C91.5042 41.8094 91.5245 41.8136 91.5451 41.8156C91.7851 41.8637 92.0205 41.7226 92.0843 41.4924C92.1481 41.2622 92.0187 41.0212 91.7878 40.9403L91.7267 40.93Z" fill="#37434E"/>
<path fill-rule="evenodd" clip-rule="evenodd" d="M64.3119 68.5382L77.7512 73.2583L82.1981 74.7934L87.7781 64.628L88.4123 50.8586C88.441 50.2466 88.2196 49.6461 87.7967 49.1897C87.3738 48.7332 86.7843 48.4582 86.158 48.4252C85.5308 48.3884 84.9168 48.5974 84.4518 49.0059C83.9869 49.4144 83.7094 49.9888 83.6806 50.602L83.0464 64.3715L80.8939 66.0643" fill="white"/>
<path fill-rule="evenodd" clip-rule="evenodd" d="M82.151 75.0048L82.1229 74.999L77.6759 73.4527L64.2367 68.7326C64.1217 68.692 64.0612 68.5682 64.1016 68.456C64.142 68.3439 64.2681 68.286 64.3832 68.3266L77.812 73.0533L82.0866 74.5266L87.5548 64.5653L88.1877 50.8462C88.2414 49.6907 87.3265 48.7025 86.1443 48.6389C84.9621 48.5753 83.9601 49.4605 83.9064 50.6159L83.2722 64.3853C83.2693 64.447 83.2395 64.5042 83.1904 64.5426L81.0379 66.2354C80.9923 66.271 80.9339 66.2874 80.8756 66.2808C80.8172 66.2742 80.7637 66.2452 80.7269 66.2002C80.6505 66.1076 80.6641 65.9729 80.7572 65.8981L82.83 64.2638L83.462 50.5931C83.4802 49.6754 84.006 48.8444 84.8356 48.4223C85.6651 48.0002 86.6678 48.0535 87.4548 48.5614C88.2417 49.0694 88.6891 49.9522 88.6234 50.8673L87.9892 64.6367C87.9895 64.6687 87.983 64.7004 87.9701 64.7297L82.3984 74.8989C82.3509 74.9855 82.2491 75.029 82.151 75.0048Z" fill="#37434E"/>
<path fill-rule="evenodd" clip-rule="evenodd" d="M87.1498 51.5655L87.1572 50.8248C87.1598 50.5113 87.0347 50.2084 86.8096 49.983C86.5845 49.7575 86.2778 49.628 85.9571 49.6229C85.6367 49.617 85.3282 49.7359 85.0999 49.9536C84.8715 50.1712 84.7419 50.4696 84.7398 50.7829L84.7324 51.5236L87.1498 51.5655Z" fill="white"/>
<path fill-rule="evenodd" clip-rule="evenodd" d="M84.6897 51.738C84.6465 51.7292 84.6068 51.708 84.5758 51.6772C84.5347 51.6359 84.512 51.5805 84.5126 51.5233L84.52 50.7826C84.524 50.2834 84.8001 49.8267 85.2443 49.5846C85.6884 49.3425 86.2332 49.3518 86.6734 49.609C87.1136 49.8661 87.3823 50.332 87.3783 50.8313L87.3709 51.5719C87.3699 51.6909 87.2708 51.7858 87.1491 51.7842L84.7317 51.7422L84.6897 51.738ZM86.1439 49.8624C86.0823 49.849 86.0194 49.8421 85.9564 49.8415C85.4112 49.832 84.9656 50.2563 84.9609 50.7893L84.957 51.3149L86.9313 51.3497L86.9352 50.8241C86.9392 50.3618 86.6074 49.9585 86.1439 49.8624Z" fill="#37434E"/>
</g>
</g>
<defs>
<clipPath id="clip0_1_1971">
<rect width="295.933" height="218.942" fill="white" transform="translate(44.1016) rotate(11.5871)"/>
</clipPath>
</defs>
</svg>
