<svg width="424" height="169" viewBox="0 0 424 169" fill="none" xmlns="http://www.w3.org/2000/svg">
<g filter="url(#filter0_d_1_1811)">
<rect x="66.2734" y="16.9639" width="336.706" height="249.274" rx="16.7423" transform="rotate(11.87 66.2734 16.9639)" fill="white"/>
</g>
<mask id="path-2-inside-1_1_1811" fill="white">
<path fill-rule="evenodd" clip-rule="evenodd" d="M160.419 213.352L187.148 86.183L187.195 85.9599L187.77 86.0807L187.723 86.3038L160.994 213.473L160.947 213.696L160.372 213.575L160.419 213.352ZM146.334 77.6159L118.28 211.086L118.231 211.32L118.806 211.441L118.855 211.207L146.908 77.7368L146.958 77.5026L146.383 77.3818L146.334 77.6159ZM106.095 69.1388L80.3294 191.725L80.2842 191.94L80.8591 192.061L80.9043 191.846L106.67 69.2597L106.715 69.0446L106.141 68.9238L106.095 69.1388ZM227.402 94.5486L211.75 169.017L211.723 169.148L212.297 169.268L212.325 169.138L227.977 94.6694L228.005 94.5387L227.43 94.4179L227.402 94.5486ZM245.72 207.314L267.633 103.058L267.672 102.875L268.247 102.996L268.208 103.179L246.295 207.435L246.257 207.618L245.682 207.497L245.72 207.314ZM307.86 111.552L281.613 236.43L281.567 236.649L282.141 236.77L282.187 236.551L308.435 111.673L308.481 111.454L307.906 111.333L307.86 111.552ZM340.856 157.615L348.736 120.123L348.75 120.058L349.357 120.185L349.343 120.251L341.463 157.743L341.449 157.808L340.842 157.681L340.856 157.615Z"/>
</mask>
<path d="M187.148 86.183L186.41 86.0278L187.148 86.183ZM160.419 213.352L161.158 213.507L160.419 213.352ZM187.195 85.9599L187.351 85.2215L186.612 85.0663L186.457 85.8047L187.195 85.9599ZM187.77 86.0807L188.509 86.2359L188.664 85.4976L187.925 85.3424L187.77 86.0807ZM160.947 213.696L160.792 214.434L161.53 214.59L161.686 213.851L160.947 213.696ZM160.372 213.575L159.634 213.42L159.479 214.158L160.217 214.314L160.372 213.575ZM118.231 211.32L117.492 211.165L117.337 211.904L118.076 212.059L118.231 211.32ZM118.806 211.441L118.65 212.18L119.389 212.335L119.544 211.596L118.806 211.441ZM146.958 77.5026L147.696 77.6578L147.851 76.9194L147.113 76.7642L146.958 77.5026ZM146.383 77.3818L146.538 76.6434L145.8 76.4882L145.644 77.2266L146.383 77.3818ZM80.3294 191.725L79.5911 191.57L80.3294 191.725ZM80.2842 191.94L79.5459 191.785L79.3907 192.524L80.129 192.679L80.2842 191.94ZM80.8591 192.061L80.7039 192.8L81.4422 192.955L81.5974 192.216L80.8591 192.061ZM106.67 69.2597L107.409 69.4149L106.67 69.2597ZM106.715 69.0446L107.454 69.1998L107.609 68.4614L106.871 68.3062L106.715 69.0446ZM106.141 68.9238L106.296 68.1854L105.557 68.0302L105.402 68.7686L106.141 68.9238ZM211.723 169.148L210.984 168.992L210.829 169.731L211.567 169.886L211.723 169.148ZM212.297 169.268L212.142 170.007L212.881 170.162L213.036 169.424L212.297 169.268ZM227.977 94.6694L228.715 94.8246L227.977 94.6694ZM228.005 94.5387L228.743 94.6939L228.898 93.9556L228.16 93.8004L228.005 94.5387ZM227.43 94.4179L227.585 93.6795L226.847 93.5243L226.691 94.2627L227.43 94.4179ZM267.672 102.875L267.827 102.137L267.089 101.982L266.934 102.72L267.672 102.875ZM268.247 102.996L268.985 103.151L269.14 102.413L268.402 102.258L268.247 102.996ZM246.257 207.618L246.102 208.356L246.84 208.511L246.995 207.773L246.257 207.618ZM245.682 207.497L244.943 207.342L244.788 208.08L245.527 208.235L245.682 207.497ZM281.613 236.43L280.874 236.275L281.613 236.43ZM307.86 111.552L308.599 111.707L307.86 111.552ZM281.567 236.649L280.828 236.494L280.673 237.232L281.411 237.387L281.567 236.649ZM282.141 236.77L281.986 237.508L282.725 237.663L282.88 236.925L282.141 236.77ZM308.481 111.454L309.219 111.609L309.375 110.871L308.636 110.715L308.481 111.454ZM307.906 111.333L308.061 110.595L307.323 110.439L307.168 111.178L307.906 111.333ZM348.75 120.058L348.905 119.319L348.167 119.164L348.012 119.902L348.75 120.058ZM349.357 120.185L350.095 120.34L350.25 119.602L349.512 119.447L349.357 120.185ZM341.449 157.808L341.294 158.547L342.032 158.702L342.187 157.964L341.449 157.808ZM340.842 157.681L340.104 157.526L339.949 158.264L340.687 158.419L340.842 157.681ZM186.41 86.0278L159.681 213.197L161.158 213.507L187.887 86.3382L186.41 86.0278ZM186.457 85.8047L186.41 86.0278L187.887 86.3382L187.934 86.1151L186.457 85.8047ZM187.925 85.3424L187.351 85.2215L187.04 86.6983L187.615 86.8191L187.925 85.3424ZM188.462 86.459L188.509 86.2359L187.032 85.9255L186.985 86.1486L188.462 86.459ZM161.732 213.628L188.462 86.459L186.985 86.1486L160.256 213.318L161.732 213.628ZM161.686 213.851L161.732 213.628L160.256 213.318L160.209 213.541L161.686 213.851ZM160.217 214.314L160.792 214.434L161.102 212.958L160.528 212.837L160.217 214.314ZM159.681 213.197L159.634 213.42L161.111 213.73L161.158 213.507L159.681 213.197ZM119.018 211.241L147.072 77.7711L145.595 77.4607L117.542 210.931L119.018 211.241ZM118.969 211.476L119.018 211.241L117.542 210.931L117.492 211.165L118.969 211.476ZM118.961 210.703L118.386 210.582L118.076 212.059L118.65 212.18L118.961 210.703ZM118.116 211.052L118.067 211.286L119.544 211.596L119.593 211.362L118.116 211.052ZM146.17 77.5816L118.116 211.052L119.593 211.362L147.647 77.892L146.17 77.5816ZM146.219 77.3474L146.17 77.5816L147.647 77.892L147.696 77.6578L146.219 77.3474ZM146.228 78.1201L146.802 78.241L147.113 76.7642L146.538 76.6434L146.228 78.1201ZM147.072 77.7711L147.121 77.537L145.644 77.2266L145.595 77.4607L147.072 77.7711ZM81.0678 191.88L106.834 69.294L105.357 68.9836L79.5911 191.57L81.0678 191.88ZM81.0226 192.096L81.0678 191.88L79.5911 191.57L79.5459 191.785L81.0226 192.096ZM81.0143 191.323L80.4394 191.202L80.129 192.679L80.7039 192.8L81.0143 191.323ZM80.1659 191.691L80.1207 191.906L81.5974 192.216L81.6426 192.001L80.1659 191.691ZM105.932 69.1045L80.1659 191.691L81.6426 192.001L107.409 69.4149L105.932 69.1045ZM105.977 68.8894L105.932 69.1045L107.409 69.4149L107.454 69.1998L105.977 68.8894ZM105.985 69.6621L106.56 69.783L106.871 68.3062L106.296 68.1854L105.985 69.6621ZM106.834 69.294L106.879 69.079L105.402 68.7686L105.357 68.9836L106.834 69.294ZM212.488 169.172L228.141 94.7038L226.664 94.3934L211.012 168.862L212.488 169.172ZM212.461 169.303L212.488 169.172L211.012 168.862L210.984 168.992L212.461 169.303ZM212.453 168.53L211.878 168.409L211.567 169.886L212.142 170.007L212.453 168.53ZM211.586 168.983L211.559 169.113L213.036 169.424L213.063 169.293L211.586 168.983ZM227.239 94.5142L211.586 168.983L213.063 169.293L228.715 94.8246L227.239 94.5142ZM227.266 94.3835L227.239 94.5142L228.715 94.8246L228.743 94.6939L227.266 94.3835ZM227.274 95.1563L227.849 95.2771L228.16 93.8004L227.585 93.6795L227.274 95.1563ZM228.141 94.7038L228.168 94.5731L226.691 94.2627L226.664 94.3934L228.141 94.7038ZM266.895 102.903L244.982 207.159L246.459 207.469L268.372 103.214L266.895 102.903ZM266.934 102.72L266.895 102.903L268.372 103.214L268.41 103.031L266.934 102.72ZM268.402 102.258L267.827 102.137L267.517 103.614L268.092 103.735L268.402 102.258ZM268.947 103.334L268.985 103.151L267.508 102.841L267.47 103.024L268.947 103.334ZM247.034 207.59L268.947 103.334L267.47 103.024L245.557 207.28L247.034 207.59ZM246.995 207.773L247.034 207.59L245.557 207.28L245.518 207.463L246.995 207.773ZM245.527 208.235L246.102 208.356L246.412 206.879L245.837 206.759L245.527 208.235ZM244.982 207.159L244.943 207.342L246.42 207.652L246.459 207.469L244.982 207.159ZM282.351 236.585L308.599 111.707L307.122 111.397L280.874 236.275L282.351 236.585ZM282.305 236.804L282.351 236.585L280.874 236.275L280.828 236.494L282.305 236.804ZM282.297 236.031L281.722 235.911L281.411 237.387L281.986 237.508L282.297 236.031ZM281.449 236.395L281.403 236.615L282.88 236.925L282.926 236.706L281.449 236.395ZM307.697 111.518L281.449 236.395L282.926 236.706L309.173 111.828L307.697 111.518ZM307.743 111.299L307.697 111.518L309.173 111.828L309.219 111.609L307.743 111.299ZM307.751 112.071L308.326 112.192L308.636 110.715L308.061 110.595L307.751 112.071ZM308.599 111.707L308.645 111.488L307.168 111.178L307.122 111.397L308.599 111.707ZM347.998 119.968L340.118 157.46L341.594 157.77L349.475 120.279L347.998 119.968ZM348.012 119.902L347.998 119.968L349.475 120.279L349.488 120.213L348.012 119.902ZM349.512 119.447L348.905 119.319L348.595 120.796L349.202 120.923L349.512 119.447ZM350.081 120.406L350.095 120.34L348.618 120.03L348.605 120.096L350.081 120.406ZM342.201 157.898L350.081 120.406L348.605 120.096L340.724 157.587L342.201 157.898ZM342.187 157.964L342.201 157.898L340.724 157.587L340.711 157.653L342.187 157.964ZM340.687 158.419L341.294 158.547L341.604 157.07L340.997 156.942L340.687 158.419ZM340.118 157.46L340.104 157.526L341.58 157.836L341.594 157.77L340.118 157.46Z" fill="url(#paint0_linear_1_1811)" fill-opacity="0.12632" mask="url(#path-2-inside-1_1_1811)"/>
<path d="M110.631 205.682C91.6903 175.161 70.1062 199.31 63.8325 200.98L55.3426 241.373L348.7 303.033L384.122 140.982C330.902 145.567 318.584 193.639 299.817 218.221C280.561 243.444 274.326 240.299 264.623 236.69C251.996 231.994 247.115 217.319 233.3 186.541C211.24 137.394 166.354 213.486 155.506 223.004C152.134 225.963 124.242 227.614 110.631 205.682Z" fill="#EDEEF0" fill-opacity="0.22"/>
<path d="M64.4923 199.565C69.1764 196.508 93.7674 176.419 113.154 203.523C138.226 238.577 160.298 213.572 163.213 210.762C171.038 203.218 210.457 139.461 234.984 185.28C252.123 217.297 252.386 233.914 268.204 237.238C278.958 239.499 288.287 235 305.077 209.2C321.867 183.4 339.448 139.761 382.334 142.99" stroke="url(#paint1_linear_1_1811)" stroke-width="2.53137" stroke-linecap="round"/>
<path d="M211.719 169.147L190.816 268.595" stroke="url(#paint2_linear_1_1811)" stroke-width="0.359557" stroke-linecap="square"/>
<path d="M330.156 168.231L303.937 292.972" stroke="url(#paint3_linear_1_1811)" stroke-width="0.359557" stroke-linecap="square"/>
<path d="M334.125 163.662L306.819 293.576" stroke="url(#paint4_linear_1_1811)" stroke-width="0.359557" stroke-linecap="square"/>
<path d="M337.141 160.696L309.109 294.06" stroke="url(#paint5_linear_1_1811)" stroke-width="0.359557" stroke-linecap="square"/>
<path d="M340.172 157.73L311.416 294.543" stroke="url(#paint6_linear_1_1811)" stroke-width="0.359557" stroke-linecap="square"/>
<path d="M342.953 155.914L314.288 295.147" stroke="url(#paint7_linear_1_1811)" stroke-width="0.359557" stroke-linecap="square"/>
<path d="M346.43 153.644L316.586 295.63" stroke="url(#paint8_linear_1_1811)" stroke-width="0.359557" stroke-linecap="square"/>
<path d="M349.336 151.253L318.888 296.114" stroke="url(#paint9_linear_1_1811)" stroke-width="0.359557" stroke-linecap="square"/>
<path d="M352.117 149.438L321.186 296.598" stroke="url(#paint10_linear_1_1811)" stroke-width="0.359557" stroke-linecap="square"/>
<path d="M354.898 147.622L323.484 297.081" stroke="url(#paint11_linear_1_1811)" stroke-width="0.359557" stroke-linecap="square"/>
<path d="M357.32 147.529L325.785 297.564" stroke="url(#paint12_linear_1_1811)" stroke-width="0.359557" stroke-linecap="square"/>
<path d="M360.102 145.713L328.083 298.046" stroke="url(#paint13_linear_1_1811)" stroke-width="0.359557" stroke-linecap="square"/>
<path d="M362.641 145.047L330.381 298.53" stroke="url(#paint14_linear_1_1811)" stroke-width="0.359557" stroke-linecap="square"/>
<path d="M365.43 143.231L332.686 299.014" stroke="url(#paint15_linear_1_1811)" stroke-width="0.359557" stroke-linecap="square"/>
<path d="M367.969 142.565L334.984 299.497" stroke="url(#paint16_linear_1_1811)" stroke-width="0.359557" stroke-linecap="square"/>
<path d="M370.508 141.898L337.281 299.98" stroke="url(#paint17_linear_1_1811)" stroke-width="0.359557" stroke-linecap="square"/>
<path d="M372.93 141.807L339.582 300.464" stroke="url(#paint18_linear_1_1811)" stroke-width="0.359557" stroke-linecap="square"/>
<path d="M375.344 141.715L341.875 300.947" stroke="url(#paint19_linear_1_1811)" stroke-width="0.359557" stroke-linecap="square"/>
<path d="M377.648 142.199L344.18 301.43" stroke="url(#paint20_linear_1_1811)" stroke-width="0.359557" stroke-linecap="square"/>
<path d="M379.945 142.682L346.477 301.914" stroke="url(#paint21_linear_1_1811)" stroke-width="0.359557" stroke-linecap="square"/>
<path d="M73.4351 48.5769L74.4781 43.6149L73.8312 43.4789L73.9655 42.8399L75.3145 43.1235L74.1372 48.7245L73.4351 48.5769ZM77.1762 43.9184C77.3588 43.7811 77.5763 43.6867 77.8287 43.6355C78.0864 43.5853 78.3888 43.5967 78.7359 43.6696C79.0882 43.7437 79.3804 43.882 79.6124 44.0845C79.8508 44.2829 80.0122 44.5337 80.0968 44.837C80.2483 45.3961 80.2346 46.1016 80.0555 46.9536C79.8256 48.0475 79.4679 48.7823 78.9826 49.1581C78.5844 49.4588 78.0803 49.545 77.4702 49.4168C76.35 49.1813 75.8434 48.3912 75.9504 47.0463C75.9763 46.7662 76.0246 46.4578 76.0954 46.1212C76.1672 45.7794 76.2471 45.4777 76.335 45.2161C76.4293 44.9503 76.5477 44.7006 76.6902 44.467C76.8379 44.2345 76.9999 44.0516 77.1762 43.9184ZM79.4716 45.2246C79.4414 44.9766 79.3464 44.7754 79.1866 44.621C79.0332 44.4625 78.833 44.3572 78.5858 44.3053C78.3386 44.2533 78.1246 44.2523 77.9439 44.3022C77.7685 44.3532 77.6222 44.435 77.5052 44.5477C77.3881 44.6604 77.2812 44.8164 77.1844 45.0157C77.0887 45.2097 77.0125 45.4024 76.9558 45.5937C76.9055 45.7808 76.8527 46.0058 76.7975 46.2688C76.7422 46.5318 76.6994 46.7616 76.669 46.9584C76.645 47.1511 76.6371 47.3581 76.6455 47.5795C76.655 47.7957 76.6906 47.9789 76.7524 48.1292C76.8142 48.2794 76.9151 48.4132 77.0552 48.5305C77.2005 48.649 77.3836 48.7314 77.6045 48.7778C77.8254 48.8242 78.0236 48.822 78.1991 48.771C78.3798 48.7211 78.5287 48.6398 78.6457 48.5271C78.768 48.4155 78.8749 48.2595 78.9665 48.0591C79.1214 47.7402 79.2436 47.3678 79.3331 46.9418C79.4226 46.5158 79.476 46.1838 79.493 45.9457C79.5154 45.7088 79.5082 45.4684 79.4716 45.2246ZM82.2466 44.9841C82.4292 44.8468 82.6467 44.7525 82.8991 44.7012C83.1568 44.651 83.4592 44.6624 83.8063 44.7354C84.1587 44.8094 84.4508 44.9477 84.6828 45.1502C84.9212 45.3486 85.0827 45.5995 85.1672 45.9028C85.3188 46.4618 85.305 47.1673 85.1259 48.0193C84.896 49.1132 84.5384 49.8481 84.053 50.2238C83.6548 50.5245 83.1507 50.6108 82.5407 50.4825C81.4205 50.2471 80.9138 49.4569 81.0208 48.112C81.0467 47.8319 81.095 47.5235 81.1658 47.187C81.2376 46.8451 81.3175 46.5434 81.4055 46.2818C81.4998 46.0161 81.6181 45.7664 81.7606 45.5327C81.9083 45.3002 82.0703 45.1173 82.2466 44.9841ZM84.5421 46.2903C84.5118 46.0424 84.4168 45.8412 84.2571 45.6868C84.1037 45.5282 83.9034 45.423 83.6562 45.371C83.409 45.3191 83.1951 45.318 83.0144 45.3679C82.8389 45.4189 82.6926 45.5007 82.5756 45.6134C82.4586 45.7261 82.3516 45.8821 82.2548 46.0814C82.1591 46.2755 82.0829 46.4681 82.0263 46.6594C81.9759 46.8465 81.9232 47.0716 81.8679 47.3345C81.8126 47.5975 81.7698 47.8274 81.7394 48.0242C81.7154 48.2168 81.7076 48.4238 81.7159 48.6453C81.7254 48.8614 81.7611 49.0446 81.8228 49.1949C81.8846 49.3452 81.9855 49.479 82.1256 49.5963C82.271 49.7147 82.4541 49.7971 82.675 49.8435C82.8958 49.89 83.094 49.8877 83.2695 49.8367C83.4502 49.7868 83.5991 49.7055 83.7161 49.5929C83.8384 49.4813 83.9453 49.3253 84.0369 49.1249C84.1918 48.806 84.314 48.4335 84.4035 48.0075C84.4931 47.5815 84.5464 47.2495 84.5635 47.0115C84.5858 46.7745 84.5787 46.5342 84.5421 46.2903Z" fill="#90939C"/>
<path d="M65.3851 89.6766L69.1875 90.4758L69.0747 91.0122L65.7242 95.7446L64.9353 95.5788L68.3735 90.939L65.2574 90.284L65.3851 89.6766ZM70.2541 90.6753L73.6699 91.3932L73.5389 92.0164L70.7857 91.4378L70.406 93.2443C70.5582 93.095 70.7648 92.9874 71.0258 92.9215C71.2867 92.8555 71.5671 92.8541 71.8669 92.9171C72.1719 92.9812 72.4359 93.0971 72.6587 93.2647C72.888 93.4282 73.0505 93.6216 73.1463 93.845C73.3244 94.2778 73.3626 94.7361 73.2609 95.22C73.136 95.8142 72.8681 96.2659 72.4572 96.5749C72.0474 96.8787 71.5427 96.9676 70.9432 96.8415C70.3489 96.7166 69.9101 96.4789 69.6269 96.1283C69.3489 95.7788 69.2159 95.3665 69.2279 94.8912L69.9142 95.0355C69.9281 95.3349 70.0311 95.59 70.2229 95.8005C70.4201 96.0122 70.7053 96.1573 71.0787 96.2358C71.4574 96.3153 71.7784 96.251 72.0419 96.0428C72.3105 95.8357 72.4897 95.5191 72.5792 95.0931C72.6687 94.6672 72.6295 94.3184 72.4614 94.047C72.2996 93.7713 72.0084 93.5893 71.5877 93.5009C71.3037 93.4412 71.0436 93.4634 70.8076 93.5676C70.5715 93.6717 70.377 93.8395 70.224 94.0709L69.5693 93.9333L70.2541 90.6753Z" fill="#90939C"/>
<path d="M55.9594 136.462L59.3752 137.18L59.2442 137.803L56.491 137.225L56.1113 139.031C56.2635 138.882 56.4701 138.774 56.7311 138.708C56.9921 138.642 57.2724 138.641 57.5722 138.704C57.8772 138.768 58.1412 138.884 58.364 139.051C58.5933 139.215 58.7558 139.408 58.8516 139.632C59.0297 140.065 59.068 140.523 58.9663 141.007C58.8413 141.601 58.5734 142.053 58.1625 142.362C57.7527 142.665 57.248 142.754 56.6485 142.628C56.0542 142.503 55.6154 142.266 55.3322 141.915C55.0542 141.566 54.9212 141.153 54.9332 140.678L55.6195 140.822C55.6335 141.122 55.7364 141.377 55.9282 141.587C56.1254 141.799 56.4106 141.944 56.784 142.023C57.1627 142.102 57.4837 142.038 57.7472 141.83C58.0159 141.622 58.195 141.306 58.2845 140.88C58.374 140.454 58.3348 140.105 58.1667 139.834C58.0049 139.558 57.7137 139.376 57.293 139.288C57.009 139.228 56.749 139.25 56.5129 139.354C56.2768 139.458 56.0823 139.626 55.9293 139.858L55.2746 139.72L55.9594 136.462ZM61.3006 138.161C61.4833 138.024 61.7008 137.93 61.9532 137.878C62.2109 137.828 62.5133 137.84 62.8604 137.913C63.2127 137.987 63.5049 138.125 63.7369 138.327C63.9753 138.526 64.1367 138.777 64.2212 139.08C64.3728 139.639 64.3591 140.345 64.18 141.196C63.9501 142.29 63.5924 143.025 63.1071 143.401C62.7089 143.702 62.2048 143.788 61.5947 143.66C60.4745 143.424 59.9679 142.634 60.0748 141.289C60.1008 141.009 60.1491 140.701 60.2199 140.364C60.2917 140.022 60.3716 139.721 60.4595 139.459C60.5538 139.193 60.6722 138.944 60.8147 138.71C60.9624 138.477 61.1244 138.294 61.3006 138.161ZM63.5961 139.468C63.5659 139.22 63.4709 139.018 63.3111 138.864C63.1577 138.705 62.9575 138.6 62.7103 138.548C62.4631 138.496 62.2491 138.495 62.0684 138.545C61.893 138.596 61.7467 138.678 61.6297 138.791C61.5126 138.903 61.4057 139.059 61.3089 139.259C61.2132 139.453 61.137 139.645 61.0803 139.837C61.03 140.024 60.9772 140.249 60.9219 140.512C60.8667 140.775 60.8239 141.005 60.7935 141.201C60.7695 141.394 60.7616 141.601 60.77 141.822C60.7795 142.039 60.8151 142.222 60.8769 142.372C60.9387 142.522 61.0396 142.656 61.1797 142.773C61.325 142.892 61.5081 142.974 61.729 143.021C61.9499 143.067 62.1481 143.065 62.3235 143.014C62.5043 142.964 62.6531 142.883 62.7702 142.77C62.8925 142.658 62.9994 142.502 63.091 142.302C63.2458 141.983 63.3681 141.611 63.4576 141.185C63.5471 140.759 63.6004 140.427 63.6175 140.189C63.6399 139.952 63.6327 139.711 63.5961 139.468Z" fill="#90939C"/>
<defs>
<filter id="filter0_d_1_1811" x="0.376206" y="0.167752" width="422.783" height="355.204" filterUnits="userSpaceOnUse" color-interpolation-filters="sRGB">
<feFlood flood-opacity="0" result="BackgroundImageFix"/>
<feColorMatrix in="SourceAlpha" type="matrix" values="0 0 0 0 0 0 0 0 0 0 0 0 0 0 0 0 0 0 127 0" result="hardAlpha"/>
<feOffset dx="6.37769" dy="4.20507"/>
<feGaussianBlur stdDeviation="12.0418"/>
<feComposite in2="hardAlpha" operator="out"/>
<feColorMatrix type="matrix" values="0 0 0 0 0.32549 0 0 0 0 0.32549 0 0 0 0 0.380392 0 0 0 0.1 0"/>
<feBlend mode="normal" in2="BackgroundImageFix" result="effect1_dropShadow_1_1811"/>
<feBlend mode="normal" in="SourceGraphic" in2="effect1_dropShadow_1_1811" result="shape"/>
</filter>
<linearGradient id="paint0_linear_1_1811" x1="106.796" y1="66.0332" x2="78.0349" y2="202.872" gradientUnits="userSpaceOnUse">
<stop stop-color="#FAD961" stop-opacity="0.7"/>
<stop offset="1" stop-color="#F76B1C"/>
</linearGradient>
<linearGradient id="paint1_linear_1_1811" x1="234.573" y1="117.529" x2="184.574" y2="329.709" gradientUnits="userSpaceOnUse">
<stop stop-color="#8276FF"/>
<stop offset="1" stop-color="#FBDC82"/>
</linearGradient>
<linearGradient id="paint2_linear_1_1811" x1="212.208" y1="169.25" x2="191.305" y2="268.698" gradientUnits="userSpaceOnUse">
<stop stop-color="#8276FF"/>
<stop offset="1" stop-color="#8276FF" stop-opacity="0"/>
</linearGradient>
<linearGradient id="paint3_linear_1_1811" x1="330.646" y1="168.334" x2="304.427" y2="293.075" gradientUnits="userSpaceOnUse">
<stop stop-color="#8276FF"/>
<stop offset="1" stop-color="#8276FF" stop-opacity="0"/>
</linearGradient>
<linearGradient id="paint4_linear_1_1811" x1="334.614" y1="163.764" x2="307.308" y2="293.679" gradientUnits="userSpaceOnUse">
<stop stop-color="#8276FF"/>
<stop offset="1" stop-color="#8276FF" stop-opacity="0"/>
</linearGradient>
<linearGradient id="paint5_linear_1_1811" x1="337.63" y1="160.799" x2="309.599" y2="294.162" gradientUnits="userSpaceOnUse">
<stop stop-color="#8276FF"/>
<stop offset="1" stop-color="#8276FF" stop-opacity="0"/>
</linearGradient>
<linearGradient id="paint6_linear_1_1811" x1="340.661" y1="157.833" x2="311.905" y2="294.646" gradientUnits="userSpaceOnUse">
<stop stop-color="#8276FF"/>
<stop offset="1" stop-color="#8276FF" stop-opacity="0"/>
</linearGradient>
<linearGradient id="paint7_linear_1_1811" x1="343.443" y1="156.015" x2="314.778" y2="295.248" gradientUnits="userSpaceOnUse">
<stop stop-color="#8276FF"/>
<stop offset="1" stop-color="#8276FF" stop-opacity="0"/>
</linearGradient>
<linearGradient id="paint8_linear_1_1811" x1="346.919" y1="153.747" x2="317.075" y2="295.733" gradientUnits="userSpaceOnUse">
<stop stop-color="#8276FF"/>
<stop offset="1" stop-color="#8276FF" stop-opacity="0"/>
</linearGradient>
<linearGradient id="paint9_linear_1_1811" x1="349.825" y1="151.356" x2="319.378" y2="296.216" gradientUnits="userSpaceOnUse">
<stop stop-color="#8276FF"/>
<stop offset="1" stop-color="#8276FF" stop-opacity="0"/>
</linearGradient>
<linearGradient id="paint10_linear_1_1811" x1="352.606" y1="149.54" x2="321.675" y2="296.7" gradientUnits="userSpaceOnUse">
<stop stop-color="#8276FF"/>
<stop offset="1" stop-color="#8276FF" stop-opacity="0"/>
</linearGradient>
<linearGradient id="paint11_linear_1_1811" x1="355.388" y1="147.724" x2="323.973" y2="297.184" gradientUnits="userSpaceOnUse">
<stop stop-color="#8276FF"/>
<stop offset="1" stop-color="#8276FF" stop-opacity="0"/>
</linearGradient>
<linearGradient id="paint12_linear_1_1811" x1="357.81" y1="147.632" x2="326.274" y2="297.666" gradientUnits="userSpaceOnUse">
<stop stop-color="#8276FF"/>
<stop offset="1" stop-color="#8276FF" stop-opacity="0"/>
</linearGradient>
<linearGradient id="paint13_linear_1_1811" x1="360.591" y1="145.816" x2="328.572" y2="298.149" gradientUnits="userSpaceOnUse">
<stop stop-color="#8276FF"/>
<stop offset="1" stop-color="#8276FF" stop-opacity="0"/>
</linearGradient>
<linearGradient id="paint14_linear_1_1811" x1="363.13" y1="145.15" x2="330.87" y2="298.633" gradientUnits="userSpaceOnUse">
<stop stop-color="#8276FF"/>
<stop offset="1" stop-color="#8276FF" stop-opacity="0"/>
</linearGradient>
<linearGradient id="paint15_linear_1_1811" x1="365.919" y1="143.334" x2="333.176" y2="299.116" gradientUnits="userSpaceOnUse">
<stop stop-color="#8276FF"/>
<stop offset="1" stop-color="#8276FF" stop-opacity="0"/>
</linearGradient>
<linearGradient id="paint16_linear_1_1811" x1="368.458" y1="142.668" x2="335.473" y2="299.6" gradientUnits="userSpaceOnUse">
<stop stop-color="#8276FF"/>
<stop offset="1" stop-color="#8276FF" stop-opacity="0"/>
</linearGradient>
<linearGradient id="paint17_linear_1_1811" x1="370.997" y1="142.001" x2="337.77" y2="300.083" gradientUnits="userSpaceOnUse">
<stop stop-color="#8276FF"/>
<stop offset="1" stop-color="#8276FF" stop-opacity="0"/>
</linearGradient>
<linearGradient id="paint18_linear_1_1811" x1="373.419" y1="141.909" x2="340.072" y2="300.566" gradientUnits="userSpaceOnUse">
<stop stop-color="#8276FF"/>
<stop offset="1" stop-color="#8276FF" stop-opacity="0"/>
</linearGradient>
<linearGradient id="paint19_linear_1_1811" x1="375.833" y1="141.818" x2="342.365" y2="301.049" gradientUnits="userSpaceOnUse">
<stop stop-color="#8276FF"/>
<stop offset="1" stop-color="#8276FF" stop-opacity="0"/>
</linearGradient>
<linearGradient id="paint20_linear_1_1811" x1="378.138" y1="142.302" x2="344.669" y2="301.533" gradientUnits="userSpaceOnUse">
<stop stop-color="#8276FF"/>
<stop offset="1" stop-color="#8276FF" stop-opacity="0"/>
</linearGradient>
<linearGradient id="paint21_linear_1_1811" x1="380.435" y1="142.785" x2="346.966" y2="302.017" gradientUnits="userSpaceOnUse">
<stop stop-color="#8276FF"/>
<stop offset="1" stop-color="#8276FF" stop-opacity="0"/>
</linearGradient>
</defs>
</svg>
