<svg width="409" height="28" viewBox="0 0 409 28" fill="none" xmlns="http://www.w3.org/2000/svg">
<g filter="url(#filter0_d_1_2147)">
<path d="M65.44 16.0684V5.57236H68.72C69.4347 5.57236 70.0693 5.66836 70.624 5.86036C71.1787 6.04169 71.6107 6.35103 71.92 6.78836C72.24 7.21503 72.4 7.79103 72.4 8.51636C72.4 9.32703 72.1867 9.98303 71.76 10.4844C71.3333 10.975 70.7573 11.311 70.032 11.4924L72.704 16.0684H71.2L68.672 11.6364H66.768V16.0684H65.44ZM66.768 10.5484H68.528C69.3493 10.5484 69.9787 10.383 70.416 10.0524C70.8533 9.71103 71.072 9.19903 71.072 8.51636C71.072 7.82303 70.8533 7.33769 70.416 7.06036C69.9787 6.78303 69.3493 6.64436 68.528 6.64436H66.768V10.5484ZM77.4971 16.2604C76.8038 16.2604 76.1745 16.1004 75.6091 15.7804C75.0438 15.4497 74.5958 14.9804 74.2651 14.3724C73.9345 13.7644 73.7691 13.039 73.7691 12.1964C73.7691 11.343 73.9345 10.6124 74.2651 10.0044C74.6065 9.39636 75.0438 8.92703 75.5771 8.59636C76.1105 8.26569 76.6705 8.10036 77.2571 8.10036C78.2491 8.10036 79.0118 8.43103 79.5451 9.09236C80.0891 9.75369 80.3611 10.639 80.3611 11.7484C80.3611 11.887 80.3558 12.0257 80.3451 12.1644C80.3451 12.2924 80.3345 12.4044 80.3131 12.5004H75.0651C75.1185 13.3217 75.3745 13.9777 75.8331 14.4684C76.3025 14.959 76.9105 15.2044 77.6571 15.2044C78.0305 15.2044 78.3718 15.151 78.6811 15.0444C79.0011 14.927 79.3051 14.7777 79.5931 14.5964L80.0571 15.4604C79.7265 15.6737 79.3478 15.8604 78.9211 16.0204C78.5051 16.1804 78.0305 16.2604 77.4971 16.2604ZM75.0491 11.5564H79.2091C79.2091 10.767 79.0385 10.1697 78.6971 9.76436C78.3665 9.34836 77.8971 9.14036 77.2891 9.14036C76.7451 9.14036 76.2545 9.35369 75.8171 9.78036C75.3905 10.1964 75.1345 10.7884 75.0491 11.5564ZM84.1207 16.0684L81.3207 8.29236H82.6807L84.1528 12.7084C84.2701 13.0924 84.3874 13.4764 84.5048 13.8604C84.6327 14.2444 84.7554 14.623 84.8728 14.9964H84.9367C85.0541 14.623 85.1714 14.2444 85.2888 13.8604C85.4168 13.4764 85.5341 13.0924 85.6407 12.7084L87.1128 8.29236H88.4088L85.6568 16.0684H84.1207ZM89.9895 16.0684V8.29236H91.3015V16.0684H89.9895ZM90.6615 6.69236C90.4055 6.69236 90.1922 6.61769 90.0215 6.46836C89.8615 6.30836 89.7815 6.09503 89.7815 5.82836C89.7815 5.57236 89.8615 5.36436 90.0215 5.20436C90.1922 5.04436 90.4055 4.96436 90.6615 4.96436C90.9175 4.96436 91.1255 5.04436 91.2855 5.20436C91.4562 5.36436 91.5415 5.57236 91.5415 5.82836C91.5415 6.09503 91.4562 6.30836 91.2855 6.46836C91.1255 6.61769 90.9175 6.69236 90.6615 6.69236ZM97.159 16.2604C96.4657 16.2604 95.8363 16.1004 95.271 15.7804C94.7057 15.4497 94.2577 14.9804 93.927 14.3724C93.5963 13.7644 93.431 13.039 93.431 12.1964C93.431 11.343 93.5963 10.6124 93.927 10.0044C94.2683 9.39636 94.7057 8.92703 95.239 8.59636C95.7723 8.26569 96.3323 8.10036 96.919 8.10036C97.911 8.10036 98.6737 8.43103 99.207 9.09236C99.751 9.75369 100.023 10.639 100.023 11.7484C100.023 11.887 100.018 12.0257 100.007 12.1644C100.007 12.2924 99.9963 12.4044 99.975 12.5004H94.727C94.7803 13.3217 95.0363 13.9777 95.495 14.4684C95.9643 14.959 96.5723 15.2044 97.319 15.2044C97.6923 15.2044 98.0337 15.151 98.343 15.0444C98.663 14.927 98.967 14.7777 99.255 14.5964L99.719 15.4604C99.3883 15.6737 99.0097 15.8604 98.583 16.0204C98.167 16.1804 97.6923 16.2604 97.159 16.2604ZM94.711 11.5564H98.871C98.871 10.767 98.7003 10.1697 98.359 9.76436C98.0283 9.34836 97.559 9.14036 96.951 9.14036C96.407 9.14036 95.9163 9.35369 95.479 9.78036C95.0523 10.1964 94.7963 10.7884 94.711 11.5564ZM103.335 16.0684L101.175 8.29236H102.519L103.671 12.7884C103.756 13.151 103.836 13.5137 103.911 13.8764C103.985 14.2284 104.06 14.5857 104.135 14.9484H104.199C104.284 14.5857 104.369 14.2284 104.455 13.8764C104.54 13.5137 104.631 13.151 104.727 12.7884L105.927 8.29236H107.207L108.423 12.7884C108.519 13.151 108.609 13.5137 108.695 13.8764C108.791 14.2284 108.881 14.5857 108.967 14.9484H109.031C109.116 14.5857 109.196 14.2284 109.271 13.8764C109.356 13.5137 109.436 13.151 109.511 12.7884L110.647 8.29236H111.895L109.815 16.0684H108.215L107.095 11.8924C106.999 11.519 106.908 11.151 106.823 10.7884C106.748 10.4257 106.663 10.047 106.567 9.65236H106.503C106.417 10.047 106.332 10.431 106.247 10.8044C106.161 11.167 106.065 11.535 105.959 11.9084L104.871 16.0684H103.335ZM115.699 16.2604C115.144 16.2604 114.616 16.159 114.115 15.9564C113.614 15.743 113.176 15.487 112.803 15.1884L113.459 14.3084C113.8 14.575 114.152 14.799 114.515 14.9804C114.878 15.151 115.288 15.2364 115.747 15.2364C116.259 15.2364 116.643 15.119 116.899 14.8844C117.155 14.639 117.283 14.351 117.283 14.0204C117.283 13.7537 117.192 13.5297 117.011 13.3484C116.84 13.167 116.616 13.0177 116.339 12.9004C116.072 12.7724 115.795 12.655 115.507 12.5484C115.144 12.4097 114.787 12.255 114.435 12.0844C114.083 11.903 113.795 11.6737 113.571 11.3964C113.347 11.1084 113.235 10.7457 113.235 10.3084C113.235 9.67903 113.47 9.15636 113.939 8.74036C114.419 8.31369 115.08 8.10036 115.923 8.10036C116.403 8.10036 116.851 8.18569 117.267 8.35636C117.683 8.52703 118.04 8.73503 118.339 8.98036L117.699 9.81236C117.432 9.60969 117.155 9.44436 116.867 9.31636C116.579 9.18836 116.264 9.12436 115.923 9.12436C115.432 9.12436 115.07 9.23636 114.835 9.46036C114.611 9.68436 114.499 9.94569 114.499 10.2444C114.499 10.4897 114.579 10.6924 114.739 10.8524C114.899 11.0017 115.107 11.135 115.363 11.2524C115.619 11.359 115.891 11.471 116.179 11.5884C116.552 11.727 116.92 11.887 117.283 12.0684C117.646 12.239 117.944 12.4737 118.179 12.7724C118.424 13.0604 118.547 13.4497 118.547 13.9404C118.547 14.3564 118.435 14.7404 118.211 15.0924C117.998 15.4444 117.678 15.727 117.251 15.9404C116.835 16.1537 116.318 16.2604 115.699 16.2604ZM123.957 16.0684V9.36436H122.901V8.37236L123.957 8.29236V7.06036C123.957 6.27103 124.139 5.64703 124.501 5.18836C124.875 4.71903 125.451 4.48436 126.229 4.48436C126.475 4.48436 126.709 4.51103 126.933 4.56436C127.157 4.60703 127.355 4.66569 127.525 4.74036L127.237 5.74836C126.949 5.62036 126.656 5.55636 126.357 5.55636C125.632 5.55636 125.269 6.05769 125.269 7.06036V8.29236H126.917V9.36436H125.269V16.0684H123.957ZM128.485 16.0684V8.29236H129.573L129.685 9.70036H129.733C130 9.20969 130.325 8.82036 130.709 8.53236C131.093 8.24436 131.504 8.10036 131.941 8.10036C132.25 8.10036 132.528 8.15369 132.773 8.26036L132.517 9.41236C132.389 9.36969 132.272 9.33769 132.165 9.31636C132.058 9.29503 131.925 9.28436 131.765 9.28436C131.434 9.28436 131.088 9.41769 130.725 9.68436C130.373 9.95103 130.064 10.415 129.797 11.0764V16.0684H128.485ZM136.98 16.2604C136.35 16.2604 135.758 16.1004 135.204 15.7804C134.66 15.4604 134.217 14.9964 133.876 14.3884C133.545 13.7804 133.38 13.0497 133.38 12.1964C133.38 11.3217 133.545 10.5804 133.876 9.97236C134.217 9.36436 134.66 8.90036 135.204 8.58036C135.758 8.26036 136.35 8.10036 136.98 8.10036C137.62 8.10036 138.212 8.26036 138.756 8.58036C139.3 8.90036 139.737 9.36436 140.068 9.97236C140.409 10.5804 140.58 11.3217 140.58 12.1964C140.58 13.0497 140.409 13.7804 140.068 14.3884C139.737 14.9964 139.3 15.4604 138.756 15.7804C138.212 16.1004 137.62 16.2604 136.98 16.2604ZM136.98 15.1724C137.652 15.1724 138.19 14.9004 138.596 14.3564C139.012 13.8017 139.22 13.0817 139.22 12.1964C139.22 11.3004 139.012 10.575 138.596 10.0204C138.19 9.46569 137.652 9.18836 136.98 9.18836C136.318 9.18836 135.78 9.46569 135.364 10.0204C134.948 10.575 134.74 11.3004 134.74 12.1964C134.74 13.0817 134.948 13.8017 135.364 14.3564C135.78 14.9004 136.318 15.1724 136.98 15.1724ZM142.708 16.0684V8.29236H143.796L143.908 9.41236H143.956C144.297 9.03903 144.67 8.72969 145.076 8.48436C145.481 8.22836 145.913 8.10036 146.372 8.10036C146.969 8.10036 147.433 8.23369 147.764 8.50036C148.105 8.75636 148.356 9.11903 148.516 9.58836C148.921 9.15103 149.332 8.79369 149.748 8.51636C150.164 8.23903 150.606 8.10036 151.076 8.10036C151.876 8.10036 152.468 8.36169 152.852 8.88436C153.246 9.39636 153.444 10.1484 153.444 11.1404V16.0684H152.132V11.3164C152.132 10.591 152.014 10.063 151.78 9.73236C151.545 9.40169 151.182 9.23636 150.692 9.23636C150.116 9.23636 149.465 9.63636 148.74 10.4364V16.0684H147.428V11.3164C147.428 10.591 147.31 10.063 147.076 9.73236C146.841 9.40169 146.473 9.23636 145.972 9.23636C145.396 9.23636 144.745 9.63636 144.02 10.4364V16.0684H142.708ZM161.88 16.2604C161.059 16.2604 160.366 16.1217 159.8 15.8444C159.246 15.5564 158.782 15.2257 158.408 14.8524L159.256 13.6684C159.566 13.9564 159.912 14.2124 160.296 14.4364C160.68 14.6497 161.128 14.7564 161.64 14.7564C162.206 14.7564 162.675 14.5857 163.048 14.2444C163.422 13.903 163.608 13.423 163.608 12.8044C163.608 12.1964 163.438 11.727 163.096 11.3964C162.755 11.0657 162.302 10.9004 161.736 10.9004C161.406 10.9004 161.128 10.9484 160.904 11.0444C160.68 11.1297 160.414 11.2737 160.104 11.4764L159.224 10.9164L159.528 5.89236H164.968V7.44436H161.128L160.92 9.90836C161.134 9.80169 161.342 9.72169 161.544 9.66836C161.758 9.60436 161.998 9.57236 162.264 9.57236C162.851 9.57236 163.384 9.68436 163.864 9.90836C164.344 10.1324 164.728 10.479 165.016 10.9484C165.315 11.4177 165.464 12.0204 165.464 12.7564C165.464 13.4924 165.294 14.1217 164.952 14.6444C164.622 15.167 164.184 15.567 163.64 15.8444C163.096 16.1217 162.51 16.2604 161.88 16.2604ZM167.492 16.0684V14.5644H169.764V7.87636H167.892V6.72436C168.393 6.62836 168.83 6.51636 169.204 6.38836C169.577 6.24969 169.924 6.08436 170.244 5.89236H171.62V14.5644H173.62V16.0684H167.492ZM175.919 16.0684V5.60436H177.775V10.3564H177.823L181.551 5.60436H183.615L180.399 9.68436L184.159 16.0684H182.111L179.279 11.1404L177.775 13.0124V16.0684H175.919ZM187.625 14.4844V11.4604H184.761V10.1164H187.625V7.09236H189.017V10.1164H191.881V11.4604H189.017V14.4844H187.625ZM197.096 16.0684V4.67636H198.408V7.78036L198.36 9.38036C198.733 9.02836 199.122 8.72969 199.528 8.48436C199.944 8.22836 200.418 8.10036 200.952 8.10036C201.773 8.10036 202.37 8.36169 202.744 8.88436C203.128 9.39636 203.32 10.1484 203.32 11.1404V16.0684H202.008V11.3164C202.008 10.591 201.89 10.063 201.656 9.73236C201.421 9.40169 201.048 9.23636 200.536 9.23636C200.141 9.23636 199.784 9.33769 199.464 9.54036C199.154 9.74303 198.802 10.0417 198.408 10.4364V16.0684H197.096ZM207.671 16.2604C207.02 16.2604 206.476 16.0684 206.039 15.6844C205.612 15.2897 205.399 14.7457 205.399 14.0524C205.399 13.199 205.778 12.5484 206.535 12.1004C207.303 11.6417 208.514 11.3217 210.167 11.1404C210.167 10.8097 210.119 10.495 210.023 10.1964C209.938 9.89769 209.778 9.65769 209.543 9.47636C209.319 9.28436 208.994 9.18836 208.567 9.18836C208.119 9.18836 207.698 9.27369 207.303 9.44436C206.908 9.61503 206.556 9.80703 206.247 10.0204L205.735 9.10836C206.098 8.87369 206.54 8.64969 207.063 8.43636C207.596 8.21236 208.172 8.10036 208.791 8.10036C209.74 8.10036 210.428 8.39369 210.855 8.98036C211.282 9.55636 211.495 10.3297 211.495 11.3004V16.0684H210.407L210.295 15.1404H210.247C209.884 15.439 209.484 15.7004 209.047 15.9244C208.62 16.1484 208.162 16.2604 207.671 16.2604ZM208.055 15.2044C208.428 15.2044 208.78 15.1137 209.111 14.9324C209.442 14.751 209.794 14.495 210.167 14.1644V12.0044C208.876 12.1644 207.97 12.4044 207.447 12.7244C206.935 13.0444 206.679 13.455 206.679 13.9564C206.679 14.3937 206.812 14.7137 207.079 14.9164C207.346 15.1084 207.671 15.2044 208.055 15.2044ZM214.021 19.3484V8.29236H215.109L215.221 9.18836H215.269C215.621 8.88969 216.005 8.63369 216.421 8.42036C216.848 8.20703 217.291 8.10036 217.749 8.10036C218.752 8.10036 219.515 8.46303 220.037 9.18836C220.56 9.90303 220.821 10.863 220.821 12.0684C220.821 12.943 220.661 13.695 220.341 14.3244C220.032 14.9537 219.621 15.4337 219.109 15.7644C218.608 16.095 218.059 16.2604 217.461 16.2604C217.099 16.2604 216.736 16.1804 216.373 16.0204C216.021 15.8604 215.664 15.6417 215.301 15.3644L215.333 16.7244V19.3484H214.021ZM217.237 15.1564C217.877 15.1564 218.405 14.8844 218.821 14.3404C219.248 13.7857 219.461 13.0284 219.461 12.0684C219.461 11.215 219.301 10.527 218.981 10.0044C218.672 9.47103 218.149 9.20436 217.413 9.20436C217.083 9.20436 216.747 9.29503 216.405 9.47636C216.075 9.65769 215.717 9.91903 215.333 10.2604V14.3404C215.685 14.639 216.027 14.8524 216.357 14.9804C216.688 15.0977 216.981 15.1564 217.237 15.1564ZM222.976 19.3484V8.29236H224.064L224.176 9.18836H224.224C224.576 8.88969 224.96 8.63369 225.376 8.42036C225.803 8.20703 226.246 8.10036 226.704 8.10036C227.707 8.10036 228.47 8.46303 228.992 9.18836C229.515 9.90303 229.776 10.863 229.776 12.0684C229.776 12.943 229.616 13.695 229.296 14.3244C228.987 14.9537 228.576 15.4337 228.064 15.7644C227.563 16.095 227.014 16.2604 226.416 16.2604C226.054 16.2604 225.691 16.1804 225.328 16.0204C224.976 15.8604 224.619 15.6417 224.256 15.3644L224.288 16.7244V19.3484H222.976ZM226.192 15.1564C226.832 15.1564 227.36 14.8844 227.776 14.3404C228.203 13.7857 228.416 13.0284 228.416 12.0684C228.416 11.215 228.256 10.527 227.936 10.0044C227.627 9.47103 227.104 9.20436 226.368 9.20436C226.038 9.20436 225.702 9.29503 225.36 9.47636C225.03 9.65769 224.672 9.91903 224.288 10.2604V14.3404C224.64 14.639 224.982 14.8524 225.312 14.9804C225.643 15.0977 225.936 15.1564 226.192 15.1564ZM231.997 19.4124C231.826 19.4124 231.661 19.3964 231.501 19.3644C231.352 19.3324 231.213 19.295 231.085 19.2524L231.341 18.2124C231.426 18.2337 231.522 18.255 231.629 18.2764C231.736 18.3084 231.837 18.3244 231.933 18.3244C232.37 18.3244 232.733 18.1644 233.021 17.8444C233.309 17.535 233.533 17.1404 233.693 16.6604L233.869 16.0844L230.749 8.29236H232.109L233.693 12.5964C233.81 12.927 233.933 13.2844 234.061 13.6684C234.2 14.0524 234.328 14.4257 234.445 14.7884H234.509C234.626 14.4364 234.738 14.0684 234.845 13.6844C234.952 13.3004 235.058 12.9377 235.165 12.5964L236.557 8.29236H237.837L234.909 16.7084C234.728 17.2204 234.509 17.679 234.253 18.0844C234.008 18.4897 233.698 18.8097 233.325 19.0444C232.962 19.2897 232.52 19.4124 231.997 19.4124ZM244.973 16.2604C244.151 16.2604 243.549 16.0044 243.165 15.4924C242.781 14.9697 242.589 14.2124 242.589 13.2204V8.29236H243.917V13.0444C243.917 13.7697 244.029 14.2977 244.253 14.6284C244.487 14.959 244.861 15.1244 245.373 15.1244C245.778 15.1244 246.135 15.023 246.445 14.8204C246.765 14.607 247.106 14.271 247.469 13.8124V8.29236H248.781V16.0684H247.693L247.581 14.8524H247.533C247.17 15.279 246.786 15.6204 246.381 15.8764C245.975 16.1324 245.506 16.2604 244.973 16.2604ZM253.516 16.2604C252.961 16.2604 252.433 16.159 251.932 15.9564C251.431 15.743 250.993 15.487 250.62 15.1884L251.276 14.3084C251.617 14.575 251.969 14.799 252.332 14.9804C252.695 15.151 253.105 15.2364 253.564 15.2364C254.076 15.2364 254.46 15.119 254.716 14.8844C254.972 14.639 255.1 14.351 255.1 14.0204C255.1 13.7537 255.009 13.5297 254.828 13.3484C254.657 13.167 254.433 13.0177 254.156 12.9004C253.889 12.7724 253.612 12.655 253.324 12.5484C252.961 12.4097 252.604 12.255 252.252 12.0844C251.9 11.903 251.612 11.6737 251.388 11.3964C251.164 11.1084 251.052 10.7457 251.052 10.3084C251.052 9.67903 251.287 9.15636 251.756 8.74036C252.236 8.31369 252.897 8.10036 253.74 8.10036C254.22 8.10036 254.668 8.18569 255.084 8.35636C255.5 8.52703 255.857 8.73503 256.156 8.98036L255.516 9.81236C255.249 9.60969 254.972 9.44436 254.684 9.31636C254.396 9.18836 254.081 9.12436 253.74 9.12436C253.249 9.12436 252.887 9.23636 252.652 9.46036C252.428 9.68436 252.316 9.94569 252.316 10.2444C252.316 10.4897 252.396 10.6924 252.556 10.8524C252.716 11.0017 252.924 11.135 253.18 11.2524C253.436 11.359 253.708 11.471 253.996 11.5884C254.369 11.727 254.737 11.887 255.1 12.0684C255.463 12.239 255.761 12.4737 255.996 12.7724C256.241 13.0604 256.364 13.4497 256.364 13.9404C256.364 14.3564 256.252 14.7404 256.028 15.0924C255.815 15.4444 255.495 15.727 255.068 15.9404C254.652 16.1537 254.135 16.2604 253.516 16.2604ZM261.419 16.2604C260.726 16.2604 260.096 16.1004 259.531 15.7804C258.966 15.4497 258.518 14.9804 258.187 14.3724C257.856 13.7644 257.691 13.039 257.691 12.1964C257.691 11.343 257.856 10.6124 258.187 10.0044C258.528 9.39636 258.966 8.92703 259.499 8.59636C260.032 8.26569 260.592 8.10036 261.179 8.10036C262.171 8.10036 262.934 8.43103 263.467 9.09236C264.011 9.75369 264.283 10.639 264.283 11.7484C264.283 11.887 264.278 12.0257 264.267 12.1644C264.267 12.2924 264.256 12.4044 264.235 12.5004H258.987C259.04 13.3217 259.296 13.9777 259.755 14.4684C260.224 14.959 260.832 15.2044 261.579 15.2044C261.952 15.2044 262.294 15.151 262.603 15.0444C262.923 14.927 263.227 14.7777 263.515 14.5964L263.979 15.4604C263.648 15.6737 263.27 15.8604 262.843 16.0204C262.427 16.1804 261.952 16.2604 261.419 16.2604ZM258.971 11.5564H263.131C263.131 10.767 262.96 10.1697 262.619 9.76436C262.288 9.34836 261.819 9.14036 261.211 9.14036C260.667 9.14036 260.176 9.35369 259.739 9.78036C259.312 10.1964 259.056 10.7884 258.971 11.5564ZM266.285 16.0684V8.29236H267.373L267.485 9.70036H267.533C267.799 9.20969 268.125 8.82036 268.509 8.53236C268.893 8.24436 269.303 8.10036 269.741 8.10036C270.05 8.10036 270.327 8.15369 270.573 8.26036L270.317 9.41236C270.189 9.36969 270.071 9.33769 269.965 9.31636C269.858 9.29503 269.725 9.28436 269.565 9.28436C269.234 9.28436 268.887 9.41769 268.525 9.68436C268.173 9.95103 267.863 10.415 267.597 11.0764V16.0684H266.285ZM273.881 16.2604C273.326 16.2604 272.798 16.159 272.297 15.9564C271.796 15.743 271.358 15.487 270.985 15.1884L271.641 14.3084C271.982 14.575 272.334 14.799 272.697 14.9804C273.06 15.151 273.47 15.2364 273.929 15.2364C274.441 15.2364 274.825 15.119 275.081 14.8844C275.337 14.639 275.465 14.351 275.465 14.0204C275.465 13.7537 275.374 13.5297 275.193 13.3484C275.022 13.167 274.798 13.0177 274.521 12.9004C274.254 12.7724 273.977 12.655 273.689 12.5484C273.326 12.4097 272.969 12.255 272.617 12.0844C272.265 11.903 271.977 11.6737 271.753 11.3964C271.529 11.1084 271.417 10.7457 271.417 10.3084C271.417 9.67903 271.652 9.15636 272.121 8.74036C272.601 8.31369 273.262 8.10036 274.105 8.10036C274.585 8.10036 275.033 8.18569 275.449 8.35636C275.865 8.52703 276.222 8.73503 276.521 8.98036L275.881 9.81236C275.614 9.60969 275.337 9.44436 275.049 9.31636C274.761 9.18836 274.446 9.12436 274.105 9.12436C273.614 9.12436 273.252 9.23636 273.017 9.46036C272.793 9.68436 272.681 9.94569 272.681 10.2444C272.681 10.4897 272.761 10.6924 272.921 10.8524C273.081 11.0017 273.289 11.135 273.545 11.2524C273.801 11.359 274.073 11.471 274.361 11.5884C274.734 11.727 275.102 11.887 275.465 12.0684C275.828 12.239 276.126 12.4737 276.361 12.7724C276.606 13.0604 276.729 13.4497 276.729 13.9404C276.729 14.3564 276.617 14.7404 276.393 15.0924C276.18 15.4444 275.86 15.727 275.433 15.9404C275.017 16.1537 274.5 16.2604 273.881 16.2604ZM285.355 16.2604C284.992 16.2604 284.614 16.175 284.219 16.0044C283.835 15.823 283.472 15.5777 283.131 15.2684H283.083L282.971 16.0684H281.915V4.67636H283.227V7.78036L283.195 9.18836C283.547 8.87903 283.931 8.62303 284.347 8.42036C284.774 8.20703 285.2 8.10036 285.627 8.10036C286.64 8.10036 287.408 8.45769 287.931 9.17236C288.454 9.88703 288.715 10.847 288.715 12.0524C288.715 12.9377 288.555 13.695 288.235 14.3244C287.926 14.9537 287.515 15.4337 287.003 15.7644C286.502 16.095 285.952 16.2604 285.355 16.2604ZM285.131 15.1564C285.771 15.1564 286.299 14.8844 286.715 14.3404C287.142 13.7857 287.355 13.0284 287.355 12.0684C287.355 11.215 287.195 10.527 286.875 10.0044C286.566 9.47103 286.043 9.20436 285.307 9.20436C284.976 9.20436 284.64 9.29503 284.299 9.47636C283.958 9.65769 283.6 9.91903 283.227 10.2604V14.3404C283.568 14.639 283.904 14.8524 284.235 14.9804C284.576 15.0977 284.875 15.1564 285.131 15.1564ZM293.991 16.2604C293.298 16.2604 292.668 16.1004 292.103 15.7804C291.538 15.4497 291.09 14.9804 290.759 14.3724C290.428 13.7644 290.263 13.039 290.263 12.1964C290.263 11.343 290.428 10.6124 290.759 10.0044C291.1 9.39636 291.538 8.92703 292.071 8.59636C292.604 8.26569 293.164 8.10036 293.751 8.10036C294.743 8.10036 295.506 8.43103 296.039 9.09236C296.583 9.75369 296.855 10.639 296.855 11.7484C296.855 11.887 296.85 12.0257 296.839 12.1644C296.839 12.2924 296.828 12.4044 296.807 12.5004H291.559C291.612 13.3217 291.868 13.9777 292.327 14.4684C292.796 14.959 293.404 15.2044 294.151 15.2044C294.524 15.2044 294.866 15.151 295.175 15.0444C295.495 14.927 295.799 14.7777 296.087 14.5964L296.551 15.4604C296.22 15.6737 295.842 15.8604 295.415 16.0204C294.999 16.1804 294.524 16.2604 293.991 16.2604ZM291.543 11.5564H295.703C295.703 10.767 295.532 10.1697 295.191 9.76436C294.86 9.34836 294.391 9.14036 293.783 9.14036C293.239 9.14036 292.748 9.35369 292.311 9.78036C291.884 10.1964 291.628 10.7884 291.543 11.5564ZM300.248 16.2604C299.758 16.2604 299.4 16.111 299.176 15.8124C298.963 15.503 298.856 15.0657 298.856 14.5004V4.67636H300.168V14.5964C300.168 14.799 300.206 14.9484 300.28 15.0444C300.355 15.1297 300.44 15.1724 300.536 15.1724C300.579 15.1724 300.616 15.1724 300.648 15.1724C300.691 15.1617 300.75 15.151 300.824 15.1404L301 16.1324C300.915 16.175 300.814 16.207 300.696 16.2284C300.579 16.2497 300.43 16.2604 300.248 16.2604ZM306.038 16.2604C305.409 16.2604 304.817 16.1004 304.262 15.7804C303.718 15.4604 303.276 14.9964 302.934 14.3884C302.604 13.7804 302.438 13.0497 302.438 12.1964C302.438 11.3217 302.604 10.5804 302.934 9.97236C303.276 9.36436 303.718 8.90036 304.262 8.58036C304.817 8.26036 305.409 8.10036 306.038 8.10036C306.678 8.10036 307.27 8.26036 307.814 8.58036C308.358 8.90036 308.796 9.36436 309.126 9.97236C309.468 10.5804 309.638 11.3217 309.638 12.1964C309.638 13.0497 309.468 13.7804 309.126 14.3884C308.796 14.9964 308.358 15.4604 307.814 15.7804C307.27 16.1004 306.678 16.2604 306.038 16.2604ZM306.038 15.1724C306.71 15.1724 307.249 14.9004 307.654 14.3564C308.07 13.8017 308.278 13.0817 308.278 12.1964C308.278 11.3004 308.07 10.575 307.654 10.0204C307.249 9.46569 306.71 9.18836 306.038 9.18836C305.377 9.18836 304.838 9.46569 304.422 10.0204C304.006 10.575 303.798 11.3004 303.798 12.1964C303.798 13.0817 304.006 13.8017 304.422 14.3564C304.838 14.9004 305.377 15.1724 306.038 15.1724ZM312.936 16.0684L310.776 8.29236H312.12L313.272 12.7884C313.357 13.151 313.437 13.5137 313.512 13.8764C313.587 14.2284 313.661 14.5857 313.736 14.9484H313.8C313.885 14.5857 313.971 14.2284 314.056 13.8764C314.141 13.5137 314.232 13.151 314.328 12.7884L315.528 8.29236H316.808L318.024 12.7884C318.12 13.151 318.211 13.5137 318.296 13.8764C318.392 14.2284 318.483 14.5857 318.568 14.9484H318.632C318.717 14.5857 318.797 14.2284 318.872 13.8764C318.957 13.5137 319.037 13.151 319.112 12.7884L320.248 8.29236H321.496L319.416 16.0684H317.816L316.696 11.8924C316.6 11.519 316.509 11.151 316.424 10.7884C316.349 10.4257 316.264 10.047 316.168 9.65236H316.104C316.019 10.047 315.933 10.431 315.848 10.8044C315.763 11.167 315.667 11.535 315.56 11.9084L314.472 16.0684H312.936ZM328.343 16.2604C327.693 16.2604 327.149 16.0684 326.711 15.6844C326.285 15.2897 326.071 14.7457 326.071 14.0524C326.071 13.199 326.45 12.5484 327.207 12.1004C327.975 11.6417 329.186 11.3217 330.839 11.1404C330.839 10.8097 330.791 10.495 330.695 10.1964C330.61 9.89769 330.45 9.65769 330.215 9.47636C329.991 9.28436 329.666 9.18836 329.239 9.18836C328.791 9.18836 328.37 9.27369 327.975 9.44436C327.581 9.61503 327.229 9.80703 326.919 10.0204L326.407 9.10836C326.77 8.87369 327.213 8.64969 327.735 8.43636C328.269 8.21236 328.845 8.10036 329.463 8.10036C330.413 8.10036 331.101 8.39369 331.527 8.98036C331.954 9.55636 332.167 10.3297 332.167 11.3004V16.0684H331.079L330.967 15.1404H330.919C330.557 15.439 330.157 15.7004 329.719 15.9244C329.293 16.1484 328.834 16.2604 328.343 16.2604ZM328.727 15.2044C329.101 15.2044 329.453 15.1137 329.783 14.9324C330.114 14.751 330.466 14.495 330.839 14.1644V12.0044C329.549 12.1644 328.642 12.4044 328.119 12.7244C327.607 13.0444 327.351 13.455 327.351 13.9564C327.351 14.3937 327.485 14.7137 327.751 14.9164C328.018 15.1084 328.343 15.2044 328.727 15.2044ZM334.694 16.0684V8.29236H335.782L335.894 9.41236H335.942C336.315 9.03903 336.71 8.72969 337.126 8.48436C337.542 8.22836 338.017 8.10036 338.55 8.10036C339.371 8.10036 339.969 8.36169 340.342 8.88436C340.726 9.39636 340.918 10.1484 340.918 11.1404V16.0684H339.606V11.3164C339.606 10.591 339.489 10.063 339.254 9.73236C339.019 9.40169 338.646 9.23636 338.134 9.23636C337.739 9.23636 337.382 9.33769 337.062 9.54036C336.753 9.74303 336.401 10.0417 336.006 10.4364V16.0684H334.694ZM346.18 16.2604C345.209 16.2604 344.431 15.9084 343.844 15.2044C343.257 14.4897 342.964 13.487 342.964 12.1964C342.964 11.3537 343.119 10.6284 343.428 10.0204C343.748 9.40169 344.164 8.92703 344.676 8.59636C345.199 8.26569 345.753 8.10036 346.34 8.10036C346.788 8.10036 347.177 8.18036 347.508 8.34036C347.839 8.50036 348.175 8.71903 348.516 8.99636L348.452 7.66836V4.67636H349.78V16.0684H348.692L348.58 15.1564H348.532C348.233 15.455 347.881 15.7164 347.476 15.9404C347.071 16.1537 346.639 16.2604 346.18 16.2604ZM346.468 15.1564C347.151 15.1564 347.812 14.799 348.452 14.0844V10.0204C348.121 9.72169 347.801 9.51369 347.492 9.39636C347.193 9.26836 346.884 9.20436 346.564 9.20436C346.148 9.20436 345.769 9.33236 345.428 9.58836C345.097 9.83369 344.831 10.1804 344.628 10.6284C344.425 11.0657 344.324 11.583 344.324 12.1804C344.324 13.1084 344.511 13.839 344.884 14.3724C345.257 14.895 345.785 15.1564 346.468 15.1564ZM359.202 16.2604C358.839 16.2604 358.461 16.175 358.066 16.0044C357.682 15.823 357.319 15.5777 356.978 15.2684H356.93L356.818 16.0684H355.762V4.67636H357.074V7.78036L357.042 9.18836C357.394 8.87903 357.778 8.62303 358.194 8.42036C358.621 8.20703 359.047 8.10036 359.474 8.10036C360.487 8.10036 361.255 8.45769 361.778 9.17236C362.301 9.88703 362.562 10.847 362.562 12.0524C362.562 12.9377 362.402 13.695 362.082 14.3244C361.773 14.9537 361.362 15.4337 360.85 15.7644C360.349 16.095 359.799 16.2604 359.202 16.2604ZM358.978 15.1564C359.618 15.1564 360.146 14.8844 360.562 14.3404C360.989 13.7857 361.202 13.0284 361.202 12.0684C361.202 11.215 361.042 10.527 360.722 10.0044C360.413 9.47103 359.89 9.20436 359.154 9.20436C358.823 9.20436 358.487 9.29503 358.146 9.47636C357.805 9.65769 357.447 9.91903 357.074 10.2604V14.3404C357.415 14.639 357.751 14.8524 358.082 14.9804C358.423 15.0977 358.722 15.1564 358.978 15.1564ZM367.838 16.2604C367.144 16.2604 366.515 16.1004 365.95 15.7804C365.384 15.4497 364.936 14.9804 364.606 14.3724C364.275 13.7644 364.11 13.039 364.11 12.1964C364.11 11.343 364.275 10.6124 364.606 10.0044C364.947 9.39636 365.384 8.92703 365.918 8.59636C366.451 8.26569 367.011 8.10036 367.598 8.10036C368.59 8.10036 369.352 8.43103 369.886 9.09236C370.43 9.75369 370.702 10.639 370.702 11.7484C370.702 11.887 370.696 12.0257 370.686 12.1644C370.686 12.2924 370.675 12.4044 370.654 12.5004H365.406C365.459 13.3217 365.715 13.9777 366.174 14.4684C366.643 14.959 367.251 15.2044 367.998 15.2044C368.371 15.2044 368.712 15.151 369.022 15.0444C369.342 14.927 369.646 14.7777 369.934 14.5964L370.398 15.4604C370.067 15.6737 369.688 15.8604 369.262 16.0204C368.846 16.1804 368.371 16.2604 367.838 16.2604ZM365.39 11.5564H369.55C369.55 10.767 369.379 10.1697 369.038 9.76436C368.707 9.34836 368.238 9.14036 367.63 9.14036C367.086 9.14036 366.595 9.35369 366.158 9.78036C365.731 10.1964 365.475 10.7884 365.39 11.5564ZM372.909 19.4124C372.739 19.4124 372.573 19.3964 372.413 19.3644C372.264 19.3324 372.125 19.295 371.997 19.2524L372.253 18.2124C372.339 18.2337 372.435 18.255 372.541 18.2764C372.648 18.3084 372.749 18.3244 372.845 18.3244C373.283 18.3244 373.645 18.1644 373.933 17.8444C374.221 17.535 374.445 17.1404 374.605 16.6604L374.781 16.0844L371.661 8.29236H373.021L374.605 12.5964C374.723 12.927 374.845 13.2844 374.973 13.6684C375.112 14.0524 375.24 14.4257 375.357 14.7884H375.421C375.539 14.4364 375.651 14.0684 375.757 13.6844C375.864 13.3004 375.971 12.9377 376.077 12.5964L377.469 8.29236H378.749L375.821 16.7084C375.64 17.2204 375.421 17.679 375.165 18.0844C374.92 18.4897 374.611 18.8097 374.237 19.0444C373.875 19.2897 373.432 19.4124 372.909 19.4124ZM383.292 16.2604C382.662 16.2604 382.07 16.1004 381.516 15.7804C380.972 15.4604 380.529 14.9964 380.188 14.3884C379.857 13.7804 379.692 13.0497 379.692 12.1964C379.692 11.3217 379.857 10.5804 380.188 9.97236C380.529 9.36436 380.972 8.90036 381.516 8.58036C382.07 8.26036 382.662 8.10036 383.292 8.10036C383.932 8.10036 384.524 8.26036 385.068 8.58036C385.612 8.90036 386.049 9.36436 386.38 9.97236C386.721 10.5804 386.892 11.3217 386.892 12.1964C386.892 13.0497 386.721 13.7804 386.38 14.3884C386.049 14.9964 385.612 15.4604 385.068 15.7804C384.524 16.1004 383.932 16.2604 383.292 16.2604ZM383.292 15.1724C383.964 15.1724 384.502 14.9004 384.908 14.3564C385.324 13.8017 385.532 13.0817 385.532 12.1964C385.532 11.3004 385.324 10.575 384.908 10.0204C384.502 9.46569 383.964 9.18836 383.292 9.18836C382.63 9.18836 382.092 9.46569 381.676 10.0204C381.26 10.575 381.052 11.3004 381.052 12.1964C381.052 13.0817 381.26 13.8017 381.676 14.3564C382.092 14.9004 382.63 15.1724 383.292 15.1724ZM389.019 16.0684V8.29236H390.107L390.219 9.41236H390.267C390.641 9.03903 391.035 8.72969 391.451 8.48436C391.867 8.22836 392.342 8.10036 392.875 8.10036C393.697 8.10036 394.294 8.36169 394.667 8.88436C395.051 9.39636 395.243 10.1484 395.243 11.1404V16.0684H393.931V11.3164C393.931 10.591 393.814 10.063 393.579 9.73236C393.345 9.40169 392.971 9.23636 392.459 9.23636C392.065 9.23636 391.707 9.33769 391.387 9.54036C391.078 9.74303 390.726 10.0417 390.331 10.4364V16.0684H389.019ZM400.506 16.2604C399.535 16.2604 398.756 15.9084 398.17 15.2044C397.583 14.4897 397.29 13.487 397.29 12.1964C397.29 11.3537 397.444 10.6284 397.754 10.0204C398.074 9.40169 398.49 8.92703 399.002 8.59636C399.524 8.26569 400.079 8.10036 400.666 8.10036C401.114 8.10036 401.503 8.18036 401.834 8.34036C402.164 8.50036 402.5 8.71903 402.842 8.99636L402.778 7.66836V4.67636H404.106V16.0684H403.018L402.906 15.1564H402.858C402.559 15.455 402.207 15.7164 401.802 15.9404C401.396 16.1537 400.964 16.2604 400.506 16.2604ZM400.794 15.1564C401.476 15.1564 402.138 14.799 402.778 14.0844V10.0204C402.447 9.72169 402.127 9.51369 401.818 9.39636C401.519 9.26836 401.21 9.20436 400.89 9.20436C400.474 9.20436 400.095 9.33236 399.754 9.58836C399.423 9.83369 399.156 10.1804 398.954 10.6284C398.751 11.0657 398.65 11.583 398.65 12.1804C398.65 13.1084 398.836 13.839 399.21 14.3724C399.583 14.895 400.111 15.1564 400.794 15.1564Z" fill="white"/>
<rect x="4" width="51.815" height="19.654" rx="2.68009" fill="#FDC600"/>
<path fill-rule="evenodd" clip-rule="evenodd" d="M11.2571 12.8164L9.07336 13.9425C8.87042 14.0472 8.6194 13.9706 8.51264 13.7695C8.47012 13.6902 8.45547 13.5994 8.47095 13.5112L8.89006 11.1262L7.12538 9.43727C6.96127 9.28023 6.95774 9.02261 7.11788 8.86146C7.18158 8.79731 7.26509 8.75557 7.35545 8.74271L9.79732 8.39662L10.8892 6.22706C10.9907 6.02546 11.2421 5.94261 11.4451 6.04211C11.527 6.08171 11.5933 6.14673 11.6337 6.22706L12.7256 8.39662L15.1674 8.74271C15.2442 8.75348 15.3163 8.78514 15.3756 8.83408C15.435 8.88302 15.4791 8.94729 15.5031 9.0196C15.527 9.0919 15.5298 9.16934 15.5112 9.24313C15.4925 9.31692 15.4531 9.3841 15.3975 9.43705L13.6328 11.126L14.0519 13.511C14.0612 13.5637 14.0598 13.6177 14.0478 13.6698C14.0358 13.722 14.0133 13.7713 13.9819 13.815C13.9504 13.8586 13.9104 13.8958 13.8643 13.9243C13.8181 13.9528 13.7667 13.972 13.7129 13.981C13.6229 13.9962 13.5303 13.9819 13.4495 13.9378L11.2657 12.8117L11.2571 12.8164ZM20.9 12.8164L18.7158 13.9425C18.5128 14.0472 18.2618 13.9706 18.155 13.7695C18.1125 13.6902 18.0979 13.5994 18.1133 13.5112L18.5325 11.1262L16.7678 9.43727C16.6037 9.28023 16.6001 9.02261 16.7603 8.86146C16.824 8.79731 16.9075 8.75557 16.9979 8.74271L19.4397 8.39662L20.5316 6.22706C20.6331 6.02546 20.8845 5.94261 21.0875 6.04211C21.1694 6.08171 21.2357 6.14673 21.2761 6.22706L22.368 8.39662L24.8098 8.74271C24.8866 8.75348 24.9587 8.78514 25.018 8.83408C25.0774 8.88302 25.1215 8.94729 25.1455 9.0196C25.1694 9.0919 25.1722 9.16934 25.1536 9.24313C25.1349 9.31692 25.0955 9.3841 25.0399 9.43705L23.2752 11.126L23.6943 13.511C23.7036 13.5637 23.7022 13.6177 23.6902 13.6698C23.6782 13.722 23.6557 13.7713 23.6243 13.815C23.5928 13.8586 23.5528 13.8958 23.5067 13.9243C23.4605 13.9528 23.4091 13.972 23.3553 13.981C23.2653 13.9962 23.1727 13.9819 23.0919 13.9378L20.9082 12.8117L20.9 12.8164ZM30.5444 12.8164L28.3601 13.9425C28.1572 14.0472 27.9062 13.9706 27.7994 13.7695C27.7569 13.6902 27.7423 13.5994 27.7577 13.5112L28.1768 11.1262L26.4122 9.43727C26.3565 9.38433 26.317 9.31713 26.2983 9.24331C26.2796 9.16949 26.2824 9.092 26.3064 9.01966C26.3304 8.94732 26.3745 8.88301 26.4339 8.83406C26.4933 8.7851 26.5654 8.75345 26.6422 8.74271L29.0841 8.39662L30.176 6.22706C30.2775 6.02546 30.5289 5.94261 30.7319 6.04211C30.8137 6.08185 30.88 6.14682 30.9205 6.22706L32.0124 8.39662L34.4542 8.74271C34.6814 8.77515 34.838 8.98173 34.8054 9.20409C34.7923 9.2927 34.7497 9.37459 34.6843 9.43705L32.9196 11.126L33.3387 13.511C33.3773 13.7327 33.2256 13.9432 32.9995 13.981C32.9095 13.9962 32.8171 13.9819 32.7361 13.9378L30.5523 12.8117L30.5444 12.8164ZM40.1872 12.8164L38.0034 13.9425C37.955 13.9674 37.9021 13.9827 37.8477 13.9875C37.7933 13.9922 37.7384 13.9864 37.6863 13.9703C37.6341 13.9543 37.5858 13.9282 37.5439 13.8938C37.5021 13.8593 37.4676 13.8171 37.4425 13.7695C37.4001 13.6903 37.3851 13.5995 37.3984 13.5112L37.8175 11.1262L36.0528 9.43727C35.9971 9.38433 35.9577 9.31713 35.939 9.24331C35.9203 9.16949 35.9231 9.092 35.947 9.01966C35.971 8.94732 36.0152 8.88301 36.0745 8.83406C36.1339 8.7851 36.2061 8.75345 36.2829 8.74271L38.7247 8.39662L39.8166 6.22706C39.9181 6.02546 40.1696 5.94261 40.3725 6.04211C40.4543 6.08185 40.5206 6.14682 40.5611 6.22706L41.653 8.39662L44.0949 8.74271C44.1488 8.75034 44.2008 8.76833 44.2476 8.79566C44.2945 8.82299 44.3354 8.85911 44.368 8.90197C44.4007 8.94483 44.4243 8.99357 44.4377 9.04541C44.4511 9.09726 44.4539 9.15118 44.446 9.20409C44.4328 9.29061 44.3904 9.37454 44.3247 9.43705L42.56 11.126L42.9792 13.511C42.9924 13.5859 42.984 13.663 42.9549 13.7334C42.9258 13.8039 42.8771 13.865 42.8143 13.9096C42.7516 13.9543 42.6773 13.9809 42.6 13.9863C42.5226 13.9917 42.4453 13.9757 42.3767 13.9401L40.1925 12.814L40.1872 12.8164ZM51.1194 8.0462V13.4803L49.8312 12.8162L47.6474 13.9423C47.5788 13.9779 47.5015 13.9939 47.4241 13.9886C47.3467 13.9832 47.2724 13.9567 47.2096 13.912C47.1468 13.8673 47.0981 13.8062 47.069 13.7357C47.0398 13.6652 47.0314 13.5881 47.0447 13.5131L47.4639 11.1281L45.6992 9.43922C45.6435 9.38627 45.604 9.31907 45.5854 9.24525C45.5667 9.17143 45.5694 9.09395 45.5934 9.02161C45.6174 8.94926 45.6615 8.88496 45.7209 8.836C45.7803 8.78705 45.8525 8.7554 45.9292 8.74466L48.3711 8.39856L49.463 6.229C49.5645 6.02741 49.8159 5.94456 50.0189 6.04406C50.1008 6.08366 50.1671 6.14867 50.2075 6.229L51.1229 8.04598L51.1194 8.0462Z" fill="white"/>
<path d="M47.6076 13.8583L49.8371 12.7089L52.0665 13.8583C52.119 13.8855 52.1782 13.8977 52.2374 13.8936C52.2966 13.8894 52.3534 13.8691 52.4014 13.8349C52.4495 13.8007 52.4867 13.754 52.5091 13.7C52.5314 13.6461 52.5379 13.5871 52.5277 13.5298L52.102 11.0955L53.9055 9.37148C53.9556 9.3239 53.9882 9.26117 53.9982 9.19303C54.0233 9.02258 53.9029 8.86424 53.729 8.8398L51.2364 8.48463L50.1216 6.26964L50.0228 6.31723L50.1216 6.26964C50.0954 6.21744 50.0548 6.17348 50.0045 6.14274C49.9541 6.112 49.8959 6.0957 49.8366 6.0957C49.7773 6.0957 49.7191 6.112 49.6688 6.14274C49.6184 6.17348 49.5778 6.21744 49.5516 6.26964L48.4368 8.48463L45.9442 8.8398C45.8855 8.84811 45.8303 8.87238 45.7849 8.90987C45.7395 8.94736 45.7057 8.99657 45.6874 9.05191C45.6691 9.10726 45.6669 9.16653 45.6812 9.22302C45.6955 9.2795 45.7256 9.33093 45.7682 9.37148L45.8449 9.29426L45.7682 9.37148L47.5717 11.0955L47.1459 13.5298C47.134 13.5973 47.1453 13.6669 47.1779 13.7275C47.1973 13.7637 47.2238 13.7959 47.2559 13.8221C47.288 13.8483 47.325 13.868 47.3649 13.8802C47.4047 13.8923 47.4467 13.8967 47.4882 13.8929C47.5298 13.8892 47.5702 13.8774 47.6072 13.8583H47.6076Z" fill="white"/>
</g>
<defs>
<filter id="filter0_d_1_2147" x="0" y="0" width="408.105" height="27.6539" filterUnits="userSpaceOnUse" color-interpolation-filters="sRGB">
<feFlood flood-opacity="0" result="BackgroundImageFix"/>
<feColorMatrix in="SourceAlpha" type="matrix" values="0 0 0 0 0 0 0 0 0 0 0 0 0 0 0 0 0 0 127 0" result="hardAlpha"/>
<feOffset dy="4"/>
<feGaussianBlur stdDeviation="2"/>
<feComposite in2="hardAlpha" operator="out"/>
<feColorMatrix type="matrix" values="0 0 0 0 0 0 0 0 0 0 0 0 0 0 0 0 0 0 0.25 0"/>
<feBlend mode="normal" in2="BackgroundImageFix" result="effect1_dropShadow_1_2147"/>
<feBlend mode="normal" in="SourceGraphic" in2="effect1_dropShadow_1_2147" result="shape"/>
</filter>
</defs>
</svg>
